<?xml version="1.0" standalone="no"?>
<!DOCTYPE svg PUBLIC "-//W3C//DTD SVG 1.1//EN" "http://www.w3.org/Graphics/SVG/1.1/DTD/svg11.dtd" >
<svg>
<metadata>
Created by FontForge 20090622 at Tue Apr 16 20:59:32 2019
 By deploy user
Copyright &#194;&#169; 2008 - 2009 Linotype GmbH, www.linotype.com. All rights reserved. This font software may not be reproduced, modified, disclosed or transferred without the express written approval of Linotype GmbH.
</metadata>
<defs>
<font id="DINNextLTPro-Medium" horiz-adv-x="549" >
  <font-face 
    font-family="DIN Next LT Pro Medium"
    font-weight="500"
    font-stretch="normal"
    units-per-em="1000"
    panose-1="2 11 6 3 2 2 3 5 2 3"
    ascent="750"
    descent="-250"
    x-height="482"
    cap-height="680"
    bbox="-163.118 -228 1027 920"
    underline-thickness="50"
    underline-position="-50"
    unicode-range="U+0020-U+FB04"
  />
<missing-glyph horiz-adv-x="483" 
d="M0 10v660q0 10 10 10h463q10 0 10 -10v-660q0 -10 -10 -10h-463q-10 0 -10 10zM59 61q0 -6 6 -6h353q6 0 6 6v558q0 6 -6 6h-353q-6 0 -6 -6v-558zM202 237q-10 0 -10 10v24q0 30 17 55l51 70q21 30 21 53q0 21 -13.5 35t-34.5 14q-43 0 -55 -45q-2 -11 -11 -9l-52 9
q-10 2 -8 11q10 46 43 72.5t86 26.5q52 0 85.5 -32.5t33.5 -81.5q0 -42 -26 -74l-50 -71q-13 -18 -13 -41v-16q0 -10 -10 -10h-54zM190 124v59q0 10 10 10h58q10 0 10 -10v-59q0 -10 -10 -10h-58q-10 0 -10 10z" />
    <glyph glyph-name="IJ" unicode="IJ" horiz-adv-x="775" 
d="M75 10v660q0 10 10 10h98q10 0 10 -10v-660q0 -10 -10 -10h-98q-10 0 -10 10zM292 71q-5 8 2 14l73 55q8 5 15 -3q36 -42 91 -42t84 34t29 100v441q0 10 10 10h98q10 0 10 -10v-441q0 -114 -63 -177t-172 -63q-56 0 -105 23.5t-72 58.5z" />
    <glyph glyph-name="ij" unicode="ij" horiz-adv-x="516" 
d="M175 573h-92q-10 0 -10 10v87q0 10 10 10h92q10 0 10 -10v-87q0 -10 -10 -10zM175 0h-92q-10 0 -10 10v462q0 10 10 10h92q10 0 10 -10v-462q0 -10 -10 -10zM433 573h-92q-10 0 -10 10v87q0 10 10 10h92q10 0 10 -10v-87q0 -10 -10 -10zM281 -180h-28q-10 0 -10 10v80
q0 10 10 10h22q31 0 43.5 12.5t12.5 44.5v495q0 10 10 10h92q10 0 10 -10v-493q0 -159 -162 -159z" />
    <glyph glyph-name="napostrophe" unicode="&#x22;n" horiz-adv-x="548" 
d="M-5 502q-10 0 -10 11v157q0 10 10 10h83q10 0 10 -10v-73q0 -12 -7 -19l-71 -69q-7 -7 -15 -7zM470 0h-92q-10 0 -10 10v278q0 48 -23.5 76.5t-67.5 28.5q-43 0 -67.5 -29t-24.5 -76v-278q0 -10 -10 -10h-92q-10 0 -10 10v462q0 10 10 10h92q10 0 10 -10v-35h1
q39 56 127 56q76 0 121.5 -50t45.5 -129v-304q0 -10 -10 -10z" />
    <glyph glyph-name="f_f" unicode="ff" horiz-adv-x="656" 
d="M190 0h-92q-10 0 -10 10v379q0 6 -6 6h-32q-10 0 -10 10v67q0 10 10 10h32q6 0 6 6v31q0 161 160 161h44q10 0 10 -10v-80q0 -10 -10 -10h-31q-37 0 -49 -11.5t-12 -47.5v-33q0 -6 6 -6h86q10 0 10 -10v-67q0 -10 -10 -10h-86q-6 0 -6 -6v-379q0 -10 -10 -10zM518 0h-92
q-10 0 -10 10v379q0 6 -6 6h-32q-10 0 -10 10v67q0 10 10 10h32q6 0 6 6v31q0 161 160 161h44q10 0 10 -10v-80q0 -10 -10 -10h-31q-37 0 -49 -11.5t-12 -47.5v-33q0 -6 6 -6h86q10 0 10 -10v-67q0 -10 -10 -10h-86q-6 0 -6 -6v-379q0 -10 -10 -10z" />
    <glyph glyph-name="fi" unicode="fi" horiz-adv-x="586" 
d="M190 0h-92q-10 0 -10 10v379q0 6 -6 6h-32q-10 0 -10 10v67q0 10 10 10h32q6 0 6 6v31q0 161 160 161h44q10 0 10 -10v-80q0 -10 -10 -10h-31q-37 0 -49 -11.5t-12 -47.5v-33q0 -6 6 -6h86q10 0 10 -10v-67q0 -10 -10 -10h-86q-6 0 -6 -6v-379q0 -10 -10 -10zM503 573
h-92q-10 0 -10 10v87q0 10 10 10h92q10 0 10 -10v-87q0 -10 -10 -10zM503 0h-92q-10 0 -10 10v462q0 10 10 10h92q10 0 10 -10v-462q0 -10 -10 -10z" />
    <glyph glyph-name="fl" unicode="fl" horiz-adv-x="619" 
d="M190 0h-92q-10 0 -10 10v379q0 6 -6 6h-32q-10 0 -10 10v67q0 10 10 10h32q6 0 6 6v31q0 161 160 161h44q10 0 10 -10v-80q0 -10 -10 -10h-31q-37 0 -49 -11.5t-12 -47.5v-33q0 -6 6 -6h86q10 0 10 -10v-67q0 -10 -10 -10h-86q-6 0 -6 -6v-379q0 -10 -10 -10zM575 -6h-44
q-70 0 -101 33.5t-31 104.5v538q0 10 10 10h92q10 0 10 -10v-532q0 -24 10 -34t32 -10h22q10 0 10 -10v-80q0 -10 -10 -10z" />
    <glyph glyph-name="f_f_i" unicode="ffi" horiz-adv-x="914" 
d="M190 0h-92q-10 0 -10 10v379q0 6 -6 6h-32q-10 0 -10 10v67q0 10 10 10h32q6 0 6 6v31q0 161 160 161h44q10 0 10 -10v-80q0 -10 -10 -10h-31q-37 0 -49 -11.5t-12 -47.5v-33q0 -6 6 -6h86q10 0 10 -10v-67q0 -10 -10 -10h-86q-6 0 -6 -6v-379q0 -10 -10 -10zM518 0h-92
q-10 0 -10 10v379q0 6 -6 6h-32q-10 0 -10 10v67q0 10 10 10h32q6 0 6 6v31q0 161 160 161h44q10 0 10 -10v-80q0 -10 -10 -10h-31q-37 0 -49 -11.5t-12 -47.5v-33q0 -6 6 -6h86q10 0 10 -10v-67q0 -10 -10 -10h-86q-6 0 -6 -6v-379q0 -10 -10 -10zM831 573h-92
q-10 0 -10 10v87q0 10 10 10h92q10 0 10 -10v-87q0 -10 -10 -10zM831 0h-92q-10 0 -10 10v462q0 10 10 10h92q10 0 10 -10v-462q0 -10 -10 -10z" />
    <glyph glyph-name="f_f_l" unicode="ffl" horiz-adv-x="947" 
d="M190 0h-92q-10 0 -10 10v379q0 6 -6 6h-32q-10 0 -10 10v67q0 10 10 10h32q6 0 6 6v31q0 161 160 161h44q10 0 10 -10v-80q0 -10 -10 -10h-31q-37 0 -49 -11.5t-12 -47.5v-33q0 -6 6 -6h86q10 0 10 -10v-67q0 -10 -10 -10h-86q-6 0 -6 -6v-379q0 -10 -10 -10zM518 0h-92
q-10 0 -10 10v379q0 6 -6 6h-32q-10 0 -10 10v67q0 10 10 10h32q6 0 6 6v31q0 161 160 161h44q10 0 10 -10v-80q0 -10 -10 -10h-31q-37 0 -49 -11.5t-12 -47.5v-33q0 -6 6 -6h86q10 0 10 -10v-67q0 -10 -10 -10h-86q-6 0 -6 -6v-379q0 -10 -10 -10zM903 -6h-44
q-70 0 -101 33.5t-31 104.5v538q0 10 10 10h92q10 0 10 -10v-532q0 -24 10 -34t32 -10h22q10 0 10 -10v-80q0 -10 -10 -10z" />
    <glyph glyph-name=".notdef" horiz-adv-x="483" 
d="M0 10v660q0 10 10 10h463q10 0 10 -10v-660q0 -10 -10 -10h-463q-10 0 -10 10zM59 61q0 -6 6 -6h353q6 0 6 6v558q0 6 -6 6h-353q-6 0 -6 -6v-558zM202 237q-10 0 -10 10v24q0 30 17 55l51 70q21 30 21 53q0 21 -13.5 35t-34.5 14q-43 0 -55 -45q-2 -11 -11 -9l-52 9
q-10 2 -8 11q10 46 43 72.5t86 26.5q52 0 85.5 -32.5t33.5 -81.5q0 -42 -26 -74l-50 -71q-13 -18 -13 -41v-16q0 -10 -10 -10h-54zM190 124v59q0 10 10 10h58q10 0 10 -10v-59q0 -10 -10 -10h-58q-10 0 -10 10z" />
    <glyph glyph-name=".null" horiz-adv-x="500" 
 />
    <glyph glyph-name="nonmarkingreturn" horiz-adv-x="333" 
 />
    <glyph glyph-name="space" unicode=" " horiz-adv-x="236" 
 />
    <glyph glyph-name="exclam" unicode="!" horiz-adv-x="307" 
d="M124 190q-10 0 -10 10l-23 470q0 10 10 10h105q10 0 10 -10l-23 -470q0 -10 -10 -10h-59zM93 10v102q0 10 10 10h100q10 0 10 -10v-102q0 -10 -10 -10h-100q-10 0 -10 10z" />
    <glyph glyph-name="quotedbl" unicode="&#x22;" horiz-adv-x="345" 
d="M212 488q-10 0 -10 10v172q0 10 10 10h62q10 0 10 -10v-172q0 -10 -10 -10h-62zM71 488q-10 0 -10 10v172q0 10 10 10h61q10 0 10 -10v-172q0 -10 -10 -10h-61z" />
    <glyph glyph-name="numbersign" unicode="#" horiz-adv-x="514" 
d="M69 10l27 200h-66q-10 0 -10 10v58q0 10 10 10h77l16 116h-67q-10 0 -10 10v58q0 10 10 10h77l26 188q2 10 11 10h63q11 0 9 -10l-26 -188h116l26 188q2 10 11 10h63q11 0 9 -10l-26 -188h69q10 0 10 -10v-58q0 -10 -10 -10h-79l-16 -116h69q10 0 10 -10v-58
q0 -10 -10 -10h-80l-27 -200q-2 -10 -11 -10h-63q-11 0 -9 10l27 200h-116l-27 -200q-2 -10 -11 -10h-63q-11 0 -9 10zM190 288h116l16 116h-116z" />
    <glyph glyph-name="dollar" unicode="$" 
d="M60 61q-9 7 -2 15l53 67q7 8 14 1q57 -47 128 -54v205q-86 14 -134.5 65t-48.5 127q0 83 51 138.5t132 63.5v52q0 10 10 10h39q10 0 10 -10v-52q84 -7 153 -53q7 -6 2 -14l-46 -68q-6 -7 -14 -2q-47 29 -95 36v-195q90 -15 137 -65t47 -128q0 -85 -49 -140.5t-135 -67.5
v-53q0 -10 -10 -10h-39q-10 0 -10 10v51q-108 4 -193 71zM253 405v183q-34 -7 -54 -32t-20 -61q0 -69 74 -90zM312 93q75 18 75 103q0 66 -75 88v-191z" />
    <glyph glyph-name="percent" unicode="%" horiz-adv-x="782" 
d="M151 -1l395 682q6 10 16 10h65q11 0 5 -10l-395 -682q-6 -10 -15 -10h-66q-11 0 -5 10zM192 330q-44 0 -77 22t-45 58q-8 24 -8 99t8 99q12 36 45 58t77 22t77 -22t45 -58q8 -24 8 -99t-8 -99q-12 -36 -45 -58t-77 -22zM192 402q34 0 43 29q4 11 4 78t-4 79q-9 28 -43 28
q-33 0 -44 -28q-4 -12 -4 -79t4 -78q11 -29 44 -29zM467 71q-8 28 -8 99t8 99q12 36 45 58t78 22q44 0 77 -22t45 -58q8 -24 8 -99t-8 -99q-12 -36 -45 -58t-77 -22q-45 0 -78 22t-45 58zM546 92q11 -29 44 -29q34 0 43 29q4 11 4 78t-4 79q-9 28 -43 28q-33 0 -44 -28
q-4 -12 -4 -79t4 -78z" />
    <glyph glyph-name="ampersand" unicode="&#x26;" horiz-adv-x="646" 
d="M63 171q0 56 29.5 104.5t99.5 103.5q-44 56 -60 88t-16 68q0 68 49 112t120 44q73 0 119.5 -45t46.5 -108q0 -46 -26 -84.5t-92 -89.5l106 -136l68 81q6 7 14 1l55 -47q8 -6 2 -14l-80 -97l24 -30q16 -22 41 -22h15q10 0 10 -10v-80q0 -10 -10 -10h-33q-34 0 -54 11
t-45 42l-17 21q-82 -85 -177 -85q-91 0 -140 50t-49 132zM274 440q45 35 60 55.5t15 43.5q0 25 -18 42.5t-45 17.5q-28 0 -46.5 -17.5t-18.5 -43.5q0 -18 9.5 -36t43.5 -62zM167 177q0 -41 25 -66t68 -25q28 0 53 14t58 49l-120 154q-84 -65 -84 -126z" />
    <glyph glyph-name="quotesingle" unicode="'" horiz-adv-x="203" 
d="M71 488q-10 0 -10 10v172q0 10 10 10h61q10 0 10 -10v-172q0 -10 -10 -10h-61z" />
    <glyph glyph-name="parenleft" unicode="(" horiz-adv-x="293" 
d="M179 -74q-128 179 -128 402t128 402q7 10 17 10h49q11 0 6 -10q-93 -186 -93 -402q0 -218 93 -402q5 -10 -6 -10h-49q-10 0 -17 10z" />
    <glyph glyph-name="parenright" unicode=")" horiz-adv-x="293" 
d="M42 -74q93 184 93 402q0 216 -93 402q-5 10 6 10h49q10 0 17 -10q128 -179 128 -402t-128 -402q-7 -10 -17 -10h-49q-11 0 -6 10z" />
    <glyph glyph-name="asterisk" unicode="*" horiz-adv-x="335" 
d="M146 392q-10 0 -10 10l1 81l-70 -42q-9 -5 -14 4l-21 38q-5 9 4 14l70 39l-70 39q-9 5 -4 14l21 38q5 9 14 4l70 -42l-1 81q0 10 10 10h43q10 0 10 -10l-1 -81l70 42q9 5 14 -4l21 -38q5 -9 -4 -14l-70 -39l70 -39q9 -5 4 -14l-21 -38q-5 -9 -14 -4l-70 42l1 -81
q0 -10 -10 -10h-43z" />
    <glyph glyph-name="plus" unicode="+" 
d="M224 67v154q0 6 -6 6h-153q-10 0 -10 10v78q0 10 10 10h153q6 0 6 6v154q0 10 10 10h81q10 0 10 -10v-154q0 -6 6 -6h153q10 0 10 -10v-78q0 -10 -10 -10h-153q-6 0 -6 -6v-154q0 -10 -10 -10h-81q-10 0 -10 10z" />
    <glyph glyph-name="comma" unicode="," horiz-adv-x="246" 
d="M66 -101v213q0 10 10 10h94q10 0 10 -10v-109q0 -14 -7 -21l-83 -86q-7 -7 -14 -7q-10 0 -10 10z" />
    <glyph glyph-name="hyphen" unicode="-" horiz-adv-x="385" 
d="M55 216q-10 0 -10 10v79q0 10 10 10h275q10 0 10 -10v-79q0 -10 -10 -10h-275z" />
    <glyph glyph-name="period" unicode="." horiz-adv-x="252" 
d="M66 10v102q0 10 10 10h100q10 0 10 -10v-102q0 -10 -10 -10h-100q-10 0 -10 10z" />
    <glyph glyph-name="slash" unicode="/" horiz-adv-x="425" 
d="M54 -1l222 682q3 10 13 10h75q10 0 7 -10l-222 -682q-3 -10 -13 -10h-75q-10 0 -7 10z" />
    <glyph glyph-name="zero" unicode="0" 
d="M81 122q-14 44 -14 218t14 218q42 133 193 133q150 0 194 -133q14 -44 14 -218t-14 -218q-44 -133 -194 -133q-151 0 -193 133zM191 143q19 -54 83 -54t84 54q9 27 9 197t-9 197q-20 54 -84 54t-83 -54q-9 -27 -9 -197t9 -197z" />
    <glyph glyph-name="one" unicode="1" 
d="M247 10v536h-2l-104 -73q-11 -7 -11 6v102q0 8 7 14l109 79q7 6 18 6h85q10 0 10 -10v-660q0 -10 -10 -10h-92q-10 0 -10 10z" />
    <glyph glyph-name="two" unicode="2" 
d="M72 10v75q0 8 5 13l240 299q44 54 44 104q0 39 -24 64.5t-66 25.5q-40 0 -63.5 -22.5t-28.5 -62.5q-2 -10 -11 -8l-88 18q-10 2 -8 12q7 67 59.5 115t142.5 48q93 0 146.5 -54t53.5 -136t-64 -159l-198 -240v-2h252q10 0 10 -10v-80q0 -10 -10 -10h-382q-10 0 -10 10z
" />
    <glyph glyph-name="three" unicode="3" 
d="M61 135q-2 10 8 13l87 20q9 2 12 -7q25 -72 103 -72q46 0 73 28t27 73q0 51 -30 81t-81 30h-29q-10 0 -10 10v79q0 10 10 10h27q45 0 72 27t27 72q0 41 -24.5 66.5t-66.5 25.5q-71 0 -91 -70q-3 -9 -12 -7l-85 20q-10 2 -8 12q12 63 66 104t134 41q93 0 146.5 -52
t53.5 -136q0 -91 -76 -141v-2q34 -15 62 -59.5t28 -105.5q0 -92 -60 -149t-153 -57q-81 0 -137.5 38.5t-72.5 107.5z" />
    <glyph glyph-name="four" unicode="4" 
d="M56 104q-10 0 -10 10v77q0 7 3 12l220 469q4 8 14 8h95q11 0 7 -9l-216 -465v-2h154q6 0 6 6v170q0 10 10 10h92q10 0 10 -10v-170q0 -6 6 -6h50q10 0 10 -10v-80q0 -10 -10 -10h-50q-6 0 -6 -6v-88q0 -10 -10 -10h-92q-10 0 -10 10v88q0 6 -6 6h-267z" />
    <glyph glyph-name="five" unicode="5" 
d="M81 129q-2 9 8 12l85 21q9 1 12 -8q22 -65 94 -65q65 0 84 56q9 23 9 75q0 50 -9 75q-18 56 -85 56q-61 0 -83 -47q-4 -10 -12 -10h-84q-10 0 -10 10v366q0 10 10 10h362q10 0 10 -10v-80q0 -10 -10 -10h-263q-6 0 -6 -6v-153h3q37 30 100 30q66 0 111.5 -30t63.5 -85
q15 -48 15 -116q0 -65 -14 -107q-19 -58 -71 -91t-121 -33q-79 0 -133.5 38.5t-65.5 101.5z" />
    <glyph glyph-name="six" unicode="6" 
d="M58 199q0 73 45 156l178 319q4 6 12 6h96q11 0 6 -10l-150 -272l2 -2q18 9 51 9q82 0 138 -55t56 -146q0 -101 -61.5 -158t-155.5 -57t-155.5 56t-61.5 154zM172 197q0 -48 28 -78t75 -30q48 0 76 30t28 78t-28 78t-76 30q-47 0 -75 -30t-28 -78z" />
    <glyph glyph-name="seven" unicode="7" 
d="M139 11l222 566v3h-169q-6 0 -6 -6v-78q0 -10 -10 -10h-86q-10 0 -10 10v174q0 10 10 10h381q10 0 10 -10v-78q0 -10 -3 -18l-225 -565q-4 -9 -13 -9h-95q-11 0 -6 11z" />
    <glyph glyph-name="eight" unicode="8" 
d="M55 193q0 55 24 97.5t61 65.5v2q-29 19 -49.5 56t-20.5 83q0 81 55 137.5t149 56.5q95 0 150 -56.5t55 -137.5q0 -46 -20.5 -83t-49.5 -56v-2q37 -23 61 -65.5t24 -97.5q0 -91 -61.5 -147.5t-158.5 -56.5q-96 0 -157.5 57t-61.5 147zM274 407q41 0 66.5 27t25.5 65
q0 39 -25.5 65.5t-66.5 26.5q-40 0 -65.5 -26.5t-25.5 -65.5q0 -38 25.5 -65t65.5 -27zM168 198q0 -48 29 -78.5t77 -30.5t77.5 30.5t29.5 78.5t-29.5 78.5t-77.5 30.5t-77 -30.5t-29 -78.5z" />
    <glyph glyph-name="nine" unicode="9" 
d="M154 10l150 272l-2 2q-16 -9 -51 -9q-81 0 -137.5 55t-56.5 146q0 101 61.5 158t155.5 57q95 0 156 -56t61 -154q0 -76 -45 -156l-177 -319q-4 -6 -12 -6h-97q-11 0 -6 10zM274 375q48 0 76 30t28 78t-28 78t-76 30q-47 0 -75 -30t-28 -78t28 -78t75 -30z" />
    <glyph glyph-name="colon" unicode=":" horiz-adv-x="260" 
d="M80 360q-10 0 -10 10v102q0 10 10 10h100q10 0 10 -10v-102q0 -10 -10 -10h-100zM70 10v102q0 10 10 10h100q10 0 10 -10v-102q0 -10 -10 -10h-100q-10 0 -10 10z" />
    <glyph glyph-name="semicolon" unicode=";" horiz-adv-x="260" 
d="M80 360q-10 0 -10 10v102q0 10 10 10h100q10 0 10 -10v-102q0 -10 -10 -10h-100zM73 -101v213q0 10 10 10h94q10 0 10 -10v-109q0 -13 -6 -20l-84 -87q-7 -7 -14 -7q-10 0 -10 10z" />
    <glyph glyph-name="less" unicode="&#x3c;" 
d="M65 229q-10 3 -10 14v66q0 11 10 14l419 172q10 3 10 -6v-89q0 -9 -10 -13l-286 -110v-2l286 -110q10 -4 10 -13v-89q0 -9 -10 -6z" />
    <glyph glyph-name="equal" unicode="=" 
d="M65 327q-10 0 -10 10v78q0 10 10 10h419q10 0 10 -10v-78q0 -10 -10 -10h-419zM65 127q-10 0 -10 10v78q0 10 10 10h419q10 0 10 -10v-78q0 -10 -10 -10h-419z" />
    <glyph glyph-name="greater" unicode="&#x3e;" 
d="M55 63v89q0 9 10 13l286 110v2l-286 110q-10 4 -10 13v89q0 9 10 6l419 -172q10 -3 10 -14v-66q0 -11 -10 -14l-419 -172q-10 -3 -10 6z" />
    <glyph glyph-name="question" unicode="?" horiz-adv-x="464" 
d="M177 190q-10 0 -10 10v41q0 49 26 85l79 108q34 45 34 82q0 33 -21.5 54t-56.5 21q-71 0 -85 -80q-2 -10 -11 -8l-90 14q-10 1 -8 12q12 76 64 119t134 43q83 0 135.5 -49t52.5 -125q0 -63 -41 -117l-79 -108q-20 -25 -20 -63v-29q0 -10 -10 -10h-93zM163 10v102
q0 10 10 10h100q10 0 10 -10v-102q0 -10 -10 -10h-100q-10 0 -10 10z" />
    <glyph glyph-name="at" unicode="@" horiz-adv-x="900" 
d="M54 268q0 173 110.5 282.5t285.5 109.5t285.5 -110t110.5 -282q0 -105 -47 -159.5t-118 -54.5q-85 0 -121 64h-1q-32 -63 -132 -63q-112 0 -144 98q-13 39 -13 111t13 111q32 98 140 98q38 0 66.5 -14.5t41.5 -36.5h2v31q0 9 8 9h74q8 0 8 -9v-247q0 -35 16.5 -52.5
t41.5 -17.5q73 0 73 132q0 139 -82.5 224.5t-221.5 85.5q-140 0 -222 -85t-82 -225t82 -225t222 -85q118 0 214 45q10 5 14 -5l23 -54q5 -8 -4 -13q-104 -55 -247 -55q-175 0 -285.5 109.5t-110.5 282.5zM369 193q19 -55 79 -55t78 55q7 22 7 71t-7 70q-18 56 -78 56
t-79 -56q-7 -21 -7 -70t7 -71z" />
    <glyph glyph-name="A" unicode="A" horiz-adv-x="617" 
d="M18 10l233 660q3 10 13 10h92q10 0 13 -10l230 -660q3 -10 -7 -10h-98q-10 0 -13 10l-45 132h-256l-45 -132q-3 -10 -13 -10h-97q-10 0 -7 10zM216 247h184l-90 264h-3z" />
    <glyph glyph-name="B" unicode="B" horiz-adv-x="607" 
d="M75 10v660q0 10 10 10h253q105 0 158.5 -48.5t53.5 -132.5q0 -102 -79 -144v-2q36 -14 63.5 -54.5t27.5 -98.5q0 -100 -60.5 -150t-173.5 -50h-243q-10 0 -10 10zM199 397h136q45 0 71 24.5t26 64.5q0 41 -26 65.5t-71 24.5h-136q-6 0 -6 -6v-167q0 -6 6 -6zM193 110
q0 -6 6 -6h142q49 0 76 26t27 69t-27 68.5t-76 25.5h-142q-6 0 -6 -6v-177z" />
    <glyph glyph-name="C" unicode="C" horiz-adv-x="575" 
d="M73 156q-18 54 -18 184t18 184q26 82 87 124.5t149 42.5q81 0 140.5 -38.5t89.5 -107.5q3 -9 -5 -12l-85 -41q-9 -5 -13 5q-40 88 -127 88q-91 0 -122 -90q-12 -37 -12 -155t12 -155q31 -90 122 -90q87 0 127 88q4 10 13 5l85 -41q8 -3 5 -12q-30 -69 -89.5 -107.5
t-140.5 -38.5q-88 0 -149 42.5t-87 124.5z" />
    <glyph glyph-name="D" unicode="D" horiz-adv-x="625" 
d="M75 10v660q0 10 10 10h243q178 0 227 -151q17 -53 17 -189t-17 -189q-49 -151 -227 -151h-243q-10 0 -10 10zM193 112q0 -6 6 -6h101q113 0 141 86q12 33 12 148t-12 148q-28 86 -141 86h-101q-6 0 -6 -6v-456z" />
    <glyph glyph-name="E" unicode="E" horiz-adv-x="570" 
d="M75 10v660q0 10 10 10h426q10 0 10 -10v-86q0 -10 -10 -10h-312q-6 0 -6 -6v-166q0 -6 6 -6h263q10 0 10 -10v-86q0 -10 -10 -10h-263q-6 0 -6 -6v-172q0 -6 6 -6h312q10 0 10 -10v-86q0 -10 -10 -10h-426q-10 0 -10 10z" />
    <glyph glyph-name="F" unicode="F" horiz-adv-x="561" 
d="M75 10v660q0 10 10 10h426q10 0 10 -10v-86q0 -10 -10 -10h-312q-6 0 -6 -6v-173q0 -6 6 -6h263q10 0 10 -10v-86q0 -10 -10 -10h-263q-6 0 -6 -6v-267q0 -10 -10 -10h-98q-10 0 -10 10z" />
    <glyph glyph-name="G" unicode="G" horiz-adv-x="627" 
d="M73 153q-18 54 -18 187t18 187q26 80 89 122t154 42q90 0 152 -41.5t85 -102.5q4 -9 -4 -14l-84 -37q-9 -3 -13 5q-47 84 -137 84q-97 0 -128 -89q-12 -38 -12 -156t12 -156q31 -89 128 -89q46 0 81 22.5t48 62.5q11 33 11 88q0 6 -6 6h-112q-10 0 -10 10v80q0 10 10 10
h225q10 0 10 -10v-59q0 -100 -16 -149q-25 -79 -88.5 -123t-151.5 -44q-91 0 -154 42t-89 122z" />
    <glyph glyph-name="H" unicode="H" horiz-adv-x="657" 
d="M75 10v660q0 10 10 10h98q10 0 10 -10v-268q0 -6 6 -6h259q6 0 6 6v268q0 10 10 10h98q10 0 10 -10v-660q0 -10 -10 -10h-98q-10 0 -10 10v274q0 6 -6 6h-259q-6 0 -6 -6v-274q0 -10 -10 -10h-98q-10 0 -10 10z" />
    <glyph glyph-name="I" unicode="I" horiz-adv-x="268" 
d="M75 10v660q0 10 10 10h98q10 0 10 -10v-660q0 -10 -10 -10h-98q-10 0 -10 10z" />
    <glyph glyph-name="J" unicode="J" horiz-adv-x="507" 
d="M24 71q-5 8 2 14l73 55q8 5 15 -3q36 -42 91 -42t84 34t29 100v441q0 10 10 10h98q10 0 10 -10v-441q0 -114 -63 -177t-172 -63q-56 0 -105 23.5t-72 58.5z" />
    <glyph glyph-name="K" unicode="K" horiz-adv-x="633" 
d="M75 10v660q0 10 10 10h98q10 0 10 -10v-320l257 322q7 8 16 8h114q5 0 6.5 -4t-2.5 -9l-211 -254l235 -401q7 -12 -7 -12h-111q-10 0 -15 8l-178 314l-104 -126v-186q0 -10 -10 -10h-98q-10 0 -10 10z" />
    <glyph glyph-name="L" unicode="L" horiz-adv-x="545" 
d="M75 10v660q0 10 10 10h98q10 0 10 -10v-558q0 -6 6 -6h312q10 0 10 -10v-86q0 -10 -10 -10h-426q-10 0 -10 10z" />
    <glyph glyph-name="M" unicode="M" horiz-adv-x="756" 
d="M75 10v660q0 10 10 10h89q13 0 17 -10l187 -419h4l184 419q4 10 17 10h88q10 0 10 -10v-660q0 -10 -10 -10h-87q-10 0 -10 10v416h-4l-144 -320q-6 -13 -19 -13h-58q-13 0 -19 13l-144 320h-4v-416q0 -10 -10 -10h-87q-10 0 -10 10z" />
    <glyph glyph-name="N" unicode="N" horiz-adv-x="657" 
d="M75 10v660q0 10 10 10h92q11 0 17 -10l277 -469h4v469q0 10 10 10h87q10 0 10 -10v-660q0 -10 -10 -10h-91q-11 0 -17 10l-278 468h-4v-468q0 -10 -10 -10h-87q-10 0 -10 10z" />
    <glyph glyph-name="O" unicode="O" horiz-adv-x="627" 
d="M313 -11q-89 0 -151.5 42t-88.5 122q-18 54 -18 187t18 187q26 80 88.5 122t151.5 42q90 0 152.5 -42t88.5 -122q18 -54 18 -187t-18 -187q-26 -80 -88.5 -122t-152.5 -42zM313 95q96 0 127 89q12 38 12 156t-12 156q-31 89 -127 89q-95 0 -126 -89q-12 -38 -12 -156
t12 -156q31 -89 126 -89z" />
    <glyph glyph-name="P" unicode="P" horiz-adv-x="598" 
d="M183 0h-98q-10 0 -10 10v660q0 10 10 10h255q99 0 161.5 -58.5t62.5 -152.5q0 -95 -62.5 -153.5t-161.5 -58.5h-141q-6 0 -6 -6v-241q0 -10 -10 -10zM333 364q52 0 82.5 28.5t30.5 76.5q0 47 -30.5 76t-82.5 29h-134q-6 0 -6 -6v-198q0 -6 6 -6h134z" />
    <glyph glyph-name="Q" unicode="Q" horiz-adv-x="627" 
d="M608 22l-62 -66q-8 -8 -15 0l-74 70q-59 -37 -144 -37q-89 0 -151.5 42t-88.5 122q-18 54 -18 187t18 187q26 80 88.5 122t151.5 42q90 0 152.5 -42t88.5 -122q18 -54 18 -187t-18 -187q-10 -29 -20 -46l74 -71q6 -6 0 -14zM313 94q38 0 61 11l-68 66q-7 5 0 14l63 66
q7 7 14 1l61 -59q10 36 10 147q0 118 -12 156q-31 90 -129 90q-97 0 -128 -90q-12 -38 -12 -156t12 -156q31 -90 128 -90z" />
    <glyph glyph-name="R" unicode="R" horiz-adv-x="619" 
d="M572 0h-111q-11 0 -15 10l-130 265h-117q-6 0 -6 -6v-259q0 -10 -10 -10h-98q-10 0 -10 10v660q0 10 10 10h263q94 0 155.5 -57t61.5 -146q0 -66 -35 -115.5t-94 -71.5l143 -277q3 -5 0.5 -9t-7.5 -4zM344 381q47 0 75.5 26.5t28.5 69.5q0 44 -28.5 70.5t-75.5 26.5h-145
q-6 0 -6 -6v-181q0 -6 6 -6h145z" />
    <glyph glyph-name="S" unicode="S" horiz-adv-x="587" 
d="M289 -11q-73 0 -141 25.5t-109 64.5q-8 8 -2 15l62 72q7 8 14 1q91 -72 185 -72q60 0 94 27t34 71q0 39 -28 62t-96 32l-36 5q-205 28 -205 194q0 93 62.5 149t167.5 56q130 0 220 -68q7 -6 2 -14l-48 -74q-6 -8 -14 -3q-81 53 -163 53q-51 0 -79 -25t-28 -66
q0 -74 125 -92l36 -5q203 -28 203 -197q0 -94 -66.5 -152.5t-189.5 -58.5z" />
    <glyph glyph-name="T" unicode="T" horiz-adv-x="550" 
d="M324 0h-98q-10 0 -10 10v558q0 6 -6 6h-178q-10 0 -10 10v86q0 10 10 10h486q10 0 10 -10v-86q0 -10 -10 -10h-178q-6 0 -6 -6v-558q0 -10 -10 -10z" />
    <glyph glyph-name="U" unicode="U" horiz-adv-x="643" 
d="M321 95q60 0 96.5 38.5t36.5 107.5v429q0 10 10 10h98q10 0 10 -10v-431q0 -116 -70 -183t-181 -67q-110 0 -180 67t-70 183v431q0 10 10 10h98q10 0 10 -10v-429q0 -69 36.5 -107.5t95.5 -38.5z" />
    <glyph glyph-name="V" unicode="V" horiz-adv-x="565" 
d="M323 0h-82q-9 0 -12 10l-215 660q-3 10 8 10h97q10 0 13 -10l152 -482h3l146 482q3 10 13 10h97q11 0 8 -10l-216 -660q-3 -10 -12 -10z" />
    <glyph glyph-name="W" unicode="W" horiz-adv-x="827" 
d="M633 0h-76q-9 0 -12 10l-130 465h-2l-131 -465q-3 -10 -12 -10h-75q-9 0 -12 10l-167 660q-2 10 8 10h94q10 0 12 -10l108 -458h2l127 458q3 10 12 10h70q9 0 12 -10l130 -458h2l105 458q1 10 12 10h93q10 0 8 -10l-166 -660q-2 -10 -12 -10z" />
    <glyph glyph-name="X" unicode="X" horiz-adv-x="572" 
d="M549 0h-109q-10 0 -16 10l-137 231h-2l-138 -231q-6 -10 -16 -10h-108q-13 0 -6 13l203 339l-188 315q-7 13 6 13h108q10 0 16 -10l123 -206h2l123 206q6 10 16 10h108q13 0 6 -13l-188 -315l203 -339q7 -13 -6 -13z" />
    <glyph glyph-name="Y" unicode="Y" horiz-adv-x="536" 
d="M317 0h-98q-10 0 -10 10v268l-197 392q-4 10 8 10h101q10 0 14 -10l133 -264h3l134 264q4 10 14 10h97q12 0 8 -10l-197 -392v-268q0 -10 -10 -10z" />
    <glyph glyph-name="Z" unicode="Z" horiz-adv-x="532" 
d="M478 0h-423q-10 0 -10 10v86q0 5 3 11l307 465v2h-289q-10 0 -10 10v86q0 10 10 10h412q10 0 10 -10v-86q0 -6 -3 -10l-307 -466v-2h300q10 0 10 -10v-86q0 -10 -10 -10z" />
    <glyph glyph-name="bracketleft" unicode="[" horiz-adv-x="280" 
d="M239 -84h-167q-10 0 -10 10v804q0 10 10 10h167q10 0 10 -10v-66q0 -10 -10 -10h-68q-6 0 -6 -6v-640q0 -6 6 -6h68q10 0 10 -10v-66q0 -10 -10 -10z" />
    <glyph glyph-name="backslash" unicode="\" horiz-adv-x="425" 
d="M364 -11h-75q-10 0 -13 10l-222 682q-3 10 7 10h75q10 0 13 -10l222 -682q3 -10 -7 -10z" />
    <glyph glyph-name="bracketright" unicode="]" horiz-adv-x="280" 
d="M208 -84h-167q-10 0 -10 10v66q0 10 10 10h68q6 0 6 6v640q0 6 -6 6h-68q-10 0 -10 10v66q0 10 10 10h167q10 0 10 -10v-804q0 -10 -10 -10z" />
    <glyph glyph-name="asciicircum" unicode="^" 
d="M487 263h-83q-10 0 -14 10l-115 270h-2l-115 -270q-4 -10 -13 -10h-83q-11 0 -6 10l173 397q5 10 14 10h62q9 0 14 -10l174 -397q5 -10 -6 -10z" />
    <glyph glyph-name="underscore" unicode="_" horiz-adv-x="492" 
d="M492 -136h-492v66h492v-66z" />
    <glyph glyph-name="grave" unicode="`" horiz-adv-x="422" 
d="M298 555h-67q-11 0 -20 10l-95 125q-3 4 -1.5 7t6.5 3h91q12 0 18 -10l74 -125q5 -10 -6 -10z" />
    <glyph glyph-name="a" unicode="a" horiz-adv-x="523" 
d="M444 0h-84q-10 0 -10 10v35h-1q-39 -56 -136 -56q-70 0 -116 37.5t-46 109.5q0 77 50.5 115t142.5 38h98q6 0 6 6v23q0 42 -24 61t-83 19q-68 0 -110 -33q-9 -7 -14 2l-37 66q-5 8 2 13q65 47 171 47q109 0 155 -39.5t46 -128.5v-315q0 -10 -10 -10zM241 80q107 0 107 82
v37q0 6 -6 6h-80q-104 0 -104 -65q0 -60 83 -60z" />
    <glyph glyph-name="b" unicode="b" horiz-adv-x="545" 
d="M314 -11q-88 0 -128 57h-1v-36q0 -10 -10 -10h-92q-10 0 -10 10v660q0 10 10 10h92q10 0 10 -10v-234h1q40 57 128 57q129 0 167 -116q17 -52 17 -136t-17 -136q-38 -116 -167 -116zM285 89q69 0 89 62q10 31 10 90t-10 90q-20 62 -89 62q-70 0 -90 -62q-10 -31 -10 -90
t10 -90q20 -62 90 -62z" />
    <glyph glyph-name="c" unicode="c" horiz-adv-x="475" 
d="M261 -11q-73 0 -125.5 34.5t-73.5 98.5q-15 45 -15 119t15 119q21 64 73.5 98.5t125.5 34.5q105 0 167 -75q6 -8 -1 -14l-63 -55q-8 -6 -14 2q-37 42 -89 42q-69 0 -90 -63q-10 -30 -10 -89q0 -60 10 -90q21 -62 90 -62q52 0 89 42q6 7 14 1l63 -55q6 -5 1 -14
q-62 -74 -167 -74z" />
    <glyph glyph-name="d" unicode="d" horiz-adv-x="545" 
d="M462 0h-92q-10 0 -10 10v36h-1q-40 -57 -128 -57q-129 0 -167 116q-17 52 -17 136t17 136q38 116 167 116q88 0 128 -57h1v234q0 10 10 10h92q10 0 10 -10v-660q0 -10 -10 -10zM260 89q70 0 90 62q10 31 10 90t-10 90q-20 62 -90 62q-69 0 -89 -62q-10 -31 -10 -90
t10 -90q20 -62 89 -62z" />
    <glyph glyph-name="e" unicode="e" horiz-adv-x="521" 
d="M265 -11q-76 0 -128.5 35.5t-72.5 98.5q-17 53 -17 118q0 69 16 119q20 63 72.5 98t124.5 35q74 0 126 -35.5t72 -97.5q16 -49 16 -145q0 -10 -11 -10h-297q-6 0 -6 -6q0 -18 7 -37q25 -73 108 -73q71 0 113 46q8 8 15 2l59 -52q7 -6 1 -14q-70 -82 -198 -82zM361 295
q0 23 -6 41q-10 29 -35 45.5t-59 16.5q-74 0 -95 -62q-6 -18 -6 -41q0 -6 6 -6h189q6 0 6 6z" />
    <glyph glyph-name="f" unicode="f" horiz-adv-x="328" 
d="M190 0h-92q-10 0 -10 10v379q0 6 -6 6h-32q-10 0 -10 10v67q0 10 10 10h32q6 0 6 6v31q0 161 160 161h44q10 0 10 -10v-80q0 -10 -10 -10h-31q-37 0 -49 -11.5t-12 -47.5v-33q0 -6 6 -6h86q10 0 10 -10v-67q0 -10 -10 -10h-86q-6 0 -6 -6v-379q0 -10 -10 -10z" />
    <glyph glyph-name="g" unicode="g" horiz-adv-x="536" 
d="M238 -191q-51 0 -99.5 19.5t-75.5 52.5q-6 7 1 14l59 59q7 8 15 0q47 -45 105 -45q108 0 108 115v45h-1q-36 -56 -125 -56q-61 0 -103 30t-61 87q-16 49 -16 123q0 73 16 122q38 118 164 118q89 0 125 -57h1v36q0 10 10 10h92q10 0 10 -10v-442q0 -105 -57.5 -163
t-167.5 -58zM254 112q66 0 86 62q11 30 11 79q0 47 -11 79q-20 61 -86 61q-65 0 -85 -61q-11 -32 -11 -79q0 -49 11 -79q20 -62 85 -62z" />
    <glyph glyph-name="h" unicode="h" horiz-adv-x="548" 
d="M470 0h-92q-10 0 -10 10v278q0 48 -23.5 76.5t-67.5 28.5q-43 0 -67.5 -29t-24.5 -76v-278q0 -10 -10 -10h-92q-10 0 -10 10v660q0 10 10 10h92q10 0 10 -10v-233h1q39 56 127 56q76 0 121.5 -50t45.5 -129v-304q0 -10 -10 -10z" />
    <glyph glyph-name="i" unicode="i" horiz-adv-x="258" 
d="M175 573h-92q-10 0 -10 10v87q0 10 10 10h92q10 0 10 -10v-87q0 -10 -10 -10zM175 0h-92q-10 0 -10 10v462q0 10 10 10h92q10 0 10 -10v-462q0 -10 -10 -10z" />
    <glyph glyph-name="j" unicode="j" horiz-adv-x="258" 
d="M175 573h-92q-10 0 -10 10v87q0 10 10 10h92q10 0 10 -10v-87q0 -10 -10 -10zM23 -180h-28q-10 0 -10 10v80q0 10 10 10h22q31 0 43.5 12.5t12.5 44.5v495q0 10 10 10h92q10 0 10 -10v-493q0 -159 -162 -159z" />
    <glyph glyph-name="k" unicode="k" horiz-adv-x="522" 
d="M493 0h-105q-10 0 -16 10l-122 202l-65 -75v-127q0 -10 -10 -10h-92q-10 0 -10 10v660q0 10 10 10h92q10 0 10 -10v-392l165 194q9 10 19 10h102q4 0 5.5 -3.5t-1.5 -6.5l-153 -176l176 -286q1 -2 1 -4.5t-1.5 -4t-4.5 -1.5z" />
    <glyph glyph-name="l" unicode="l" horiz-adv-x="291" 
d="M247 -6h-44q-70 0 -101 33.5t-31 104.5v538q0 10 10 10h92q10 0 10 -10v-532q0 -24 10 -34t32 -10h22q10 0 10 -10v-80q0 -10 -10 -10z" />
    <glyph glyph-name="m" unicode="m" horiz-adv-x="843" 
d="M765 0h-92q-10 0 -10 10v278q0 48 -23.5 76.5t-67.5 28.5q-43 0 -67.5 -29t-24.5 -76v-278q0 -10 -10 -10h-92q-10 0 -10 10v278q0 48 -23.5 76.5t-67.5 28.5q-43 0 -67.5 -29t-24.5 -76v-278q0 -10 -10 -10h-92q-10 0 -10 10v462q0 10 10 10h92q10 0 10 -10v-35h1
q39 56 127 56q87 0 132 -64h1q59 64 154 64q82 0 128.5 -50t46.5 -129v-304q0 -10 -10 -10z" />
    <glyph glyph-name="n" unicode="n" horiz-adv-x="548" 
d="M470 0h-92q-10 0 -10 10v278q0 48 -23.5 76.5t-67.5 28.5q-43 0 -67.5 -29t-24.5 -76v-278q0 -10 -10 -10h-92q-10 0 -10 10v462q0 10 10 10h92q10 0 10 -10v-35h1q39 56 127 56q76 0 121.5 -50t45.5 -129v-304q0 -10 -10 -10z" />
    <glyph glyph-name="o" unicode="o" horiz-adv-x="523" 
d="M262 -11q-74 0 -126.5 35t-72.5 98q-16 49 -16 119t16 119q20 63 72.5 98t126.5 35q73 0 125.5 -35t72.5 -98q16 -49 16 -119t-16 -119q-20 -63 -72.5 -98t-125.5 -35zM262 89q68 0 90 63q10 31 10 89q0 57 -10 89q-22 63 -90 63q-69 0 -91 -63q-10 -32 -10 -89
q0 -58 10 -89q22 -63 91 -63z" />
    <glyph glyph-name="p" unicode="p" horiz-adv-x="545" 
d="M175 -180h-92q-10 0 -10 10v642q0 10 10 10h92q10 0 10 -10v-36h1q40 57 128 57q129 0 167 -116q17 -52 17 -136t-17 -136q-38 -116 -167 -116q-88 0 -128 57h-1v-216q0 -10 -10 -10zM285 89q69 0 89 62q10 31 10 90t-10 90q-20 62 -89 62q-70 0 -90 -62q-10 -31 -10 -90
t10 -90q20 -62 90 -62z" />
    <glyph glyph-name="q" unicode="q" horiz-adv-x="545" 
d="M462 -180h-92q-10 0 -10 10v216h-1q-40 -57 -128 -57q-129 0 -167 116q-17 52 -17 136t17 136q38 116 167 116q88 0 128 -57h1v36q0 10 10 10h92q10 0 10 -10v-642q0 -10 -10 -10zM260 89q70 0 90 62q10 31 10 90t-10 90q-20 62 -90 62q-69 0 -89 -62q-10 -31 -10 -90
t10 -90q20 -62 89 -62z" />
    <glyph glyph-name="r" unicode="r" horiz-adv-x="423" 
d="M175 0h-92q-10 0 -10 10v462q0 10 10 10h92q10 0 10 -10v-41h1q39 62 125 62q61 0 101 -40q7 -7 2 -14l-53 -67q-6 -8 -14 -2q-36 23 -71 23q-91 0 -91 -122v-261q0 -10 -10 -10z" />
    <glyph glyph-name="s" unicode="s" horiz-adv-x="498" 
d="M251 -11q-125 0 -207 76q-7 7 0 14l57 60q7 7 14 0q27 -24 65.5 -39.5t75.5 -15.5q43 0 66 15.5t23 41.5q0 23 -17.5 36t-62.5 17l-52 5q-148 15 -148 142q0 71 49 111.5t138 40.5q106 0 181 -59q8 -6 2 -14l-49 -59q-6 -7 -14 -2q-57 40 -126 40q-35 0 -54 -14t-19 -36
t17.5 -34.5t61.5 -16.5l52 -5q74 -7 111.5 -44t37.5 -97q0 -74 -52.5 -118.5t-149.5 -44.5z" />
    <glyph glyph-name="t" unicode="t" horiz-adv-x="321" 
d="M262 -6h-48q-71 0 -102.5 34.5t-31.5 106.5v254q0 6 -6 6h-32q-10 0 -10 10v67q0 10 10 10h32q6 0 6 6v132q0 10 10 10h92q10 0 10 -10v-132q0 -6 6 -6h64q10 0 10 -10v-67q0 -10 -10 -10h-64q-6 0 -6 -6v-250q0 -25 10.5 -35t34.5 -10h25q10 0 10 -10v-80q0 -10 -10 -10
z" />
    <glyph glyph-name="u" unicode="u" horiz-adv-x="544" 
d="M461 0h-92q-10 0 -10 10v35h-1q-44 -56 -125 -56q-76 0 -121 50t-45 129v304q0 10 10 10h92q10 0 10 -10v-278q0 -48 23 -76.5t67 -28.5q42 0 66 28.5t24 75.5v279q0 10 10 10h92q10 0 10 -10v-462q0 -10 -10 -10z" />
    <glyph glyph-name="v" unicode="v" horiz-adv-x="486" 
d="M283 0h-80q-10 0 -13 10l-170 462q-3 10 8 10h98q9 0 12 -10l106 -313h2l104 313q3 10 12 10h96q11 0 8 -10l-170 -462q-3 -10 -13 -10z" />
    <glyph glyph-name="w" unicode="w" horiz-adv-x="753" 
d="M565 0h-82q-9 0 -12 10l-93 308h-2l-94 -308q-3 -10 -12 -10h-82q-9 0 -12 10l-152 462q-3 10 7 10h96q10 0 13 -10l93 -318h2l92 318q3 10 13 10h72q10 0 13 -10l98 -318h2l88 318q3 10 13 10h96q10 0 7 -10l-152 -462q-3 -10 -12 -10z" />
    <glyph glyph-name="x" unicode="x" horiz-adv-x="495" 
d="M464 0h-100q-9 0 -16 10l-100 147h-1l-100 -147q-7 -10 -17 -10h-99q-14 0 -8 10l163 240l-151 222q-6 10 8 10h100q11 0 17 -10l87 -130h1l88 130q7 10 16 10h100q14 0 8 -10l-151 -222l163 -240q6 -10 -8 -10z" />
    <glyph glyph-name="y" unicode="y" horiz-adv-x="485" 
d="M121 -180h-31q-10 0 -10 10v80q0 10 10 10h18q28 0 44.5 13t27.5 44l14 41l-176 454q-3 10 8 10h99q9 0 12 -10l109 -315h2l104 315q3 10 12 10h95q11 0 8 -10l-184 -502q-31 -85 -66.5 -117.5t-95.5 -32.5z" />
    <glyph glyph-name="z" unicode="z" horiz-adv-x="485" 
d="M423 0h-361q-10 0 -10 10v73q0 5 3 10l246 289v2h-226q-10 0 -10 10v78q0 10 10 10h348q10 0 10 -10v-78q0 -6 -3 -10l-243 -284v-2h236q10 0 10 -10v-78q0 -10 -10 -10z" />
    <glyph glyph-name="braceleft" unicode="{" horiz-adv-x="346" 
d="M306 -84h-58q-57 0 -88 31t-31 89v168q0 77 -68 77q-10 0 -10 10v79q0 10 10 10q68 0 68 77v163q0 58 31 89t88 31h58q10 0 10 -10v-66q0 -10 -10 -10h-31q-43 0 -43 -42v-158q0 -56 -15.5 -83t-54.5 -40v-1q39 -13 54.5 -40t15.5 -83v-163q0 -42 43 -42h31q10 0 10 -10
v-66q0 -10 -10 -10z" />
    <glyph glyph-name="bar" unicode="|" horiz-adv-x="330" 
d="M201 -84h-72q-10 0 -10 10v804q0 10 10 10h72q10 0 10 -10v-804q0 -10 -10 -10z" />
    <glyph glyph-name="braceright" unicode="}" horiz-adv-x="346" 
d="M98 -84h-57q-10 0 -10 10v66q0 10 10 10h31q42 0 42 42v163q0 56 16 83t55 40v1q-39 13 -55 40t-16 83v158q0 42 -42 42h-31q-10 0 -10 10v66q0 10 10 10h57q57 0 88 -31t31 -89v-163q0 -77 68 -77q10 0 10 -10v-79q0 -10 -10 -10q-68 0 -68 -77v-168q0 -58 -31 -89
t-88 -31z" />
    <glyph glyph-name="asciitilde" unicode="~" 
d="M359 200q-45 0 -104 36q-41 25 -67 25q-41 0 -69 -50q-5 -9 -15 -2l-52 31q-7 5 -3 14q20 45 57.5 71t82.5 26q47 0 105 -35q41 -25 66 -25q42 0 70 50q5 9 15 2l52 -31q7 -5 3 -14q-20 -45 -58 -71.5t-83 -26.5z" />
    <glyph glyph-name="uni00A0" unicode="&#xa0;" horiz-adv-x="236" 
 />
    <glyph glyph-name="exclamdown" unicode="&#xa1;" horiz-adv-x="307" 
d="M183 292q10 0 10 -10l23 -470q0 -10 -10 -10h-105q-10 0 -10 10l23 470q0 10 10 10h59zM214 472v-102q0 -10 -10 -10h-100q-10 0 -10 10v102q0 10 10 10h100q10 0 10 -10z" />
    <glyph glyph-name="cent" unicode="&#xa2;" 
d="M324 571v-79q94 -9 147 -74q6 -8 -1 -14l-62 -55q-8 -6 -14 2q-32 35 -70 40v-301q38 6 70 41q6 7 14 1l62 -55q6 -5 1 -14q-53 -64 -147 -73v-79q0 -10 -10 -10h-34q-10 0 -10 10v80q-137 12 -175 131q-15 45 -15 119t15 119q39 119 175 131v80q0 10 10 10h34
q10 0 10 -10zM194 241q0 -60 10 -90q15 -49 66 -60v299q-51 -10 -66 -60q-10 -30 -10 -89z" />
    <glyph glyph-name="sterling" unicode="&#xa3;" 
d="M466 0h-361q-10 0 -10 10v78q0 7 5 12q12 12 18 20.5t10.5 26t4.5 44.5v78q0 6 -6 6h-47q-10 0 -10 10v64q0 10 10 10h47q6 0 6 6v138q0 89 47 138.5t129 49.5q66 0 110 -35t56 -91q2 -9 -9 -11l-88 -21q-9 -2 -11 8q-10 50 -59 50q-29 0 -45 -19t-16 -51v-156q0 -6 6 -6
h119q10 0 10 -10v-64q0 -10 -10 -10h-119q-6 0 -6 -6v-59q0 -73 -23 -108v-2h242q10 0 10 -10v-80q0 -10 -10 -10z" />
    <glyph glyph-name="currency" unicode="&#xa4;" 
d="M508 145l-53 -54q-7 -7 -14 0l-59 59q-49 -30 -108 -30t-108 30l-58 -58q-6 -6 -14 0l-53 54q-7 7 0 14l58 59q-27 48 -27 104q0 58 28 105l-59 60q-6 6 0 14l53 54q8 6 14 0l59 -59q50 29 107 29t107 -29l59 59q7 7 14 0l53 -54q6 -8 0 -14l-59 -59q29 -50 29 -106
q0 -57 -28 -105l59 -59q6 -6 0 -14zM274 208q48 0 80 33t32 82t-32 82t-80 33t-79.5 -33t-31.5 -82t31.5 -82t79.5 -33z" />
    <glyph glyph-name="yen" unicode="&#xa5;" 
d="M320 0h-92q-10 0 -10 10v121q0 6 -6 6h-122q-10 0 -10 10v58q0 10 10 10h122q6 0 6 6v41q0 6 -6 6h-122q-10 0 -10 10v58q0 10 10 10h99v2l-151 322q-4 10 7 10h98q10 0 13 -10l118 -278h3l116 278q3 10 13 10h97q11 0 7 -10l-151 -322v-2h98q10 0 10 -10v-58
q0 -10 -10 -10h-121q-6 0 -6 -6v-41q0 -6 6 -6h121q10 0 10 -10v-58q0 -10 -10 -10h-121q-6 0 -6 -6v-121q0 -10 -10 -10z" />
    <glyph glyph-name="brokenbar" unicode="&#xa6;" horiz-adv-x="330" 
d="M201 388h-72q-10 0 -10 10v332q0 10 10 10h72q10 0 10 -10v-332q0 -10 -10 -10zM201 -84h-72q-10 0 -10 10v336q0 10 10 10h72q10 0 10 -10v-336q0 -10 -10 -10z" />
    <glyph glyph-name="section" unicode="&#xa7;" horiz-adv-x="579" 
d="M287 -191q-82 0 -127 38t-51 98q-2 9 6 11l82 17q8 2 10 -7q9 -67 78 -67q37 0 56.5 18.5t19.5 49.5q0 38 -26.5 61t-92.5 38q-149 36 -149 186q0 53 25 95t68 62v1q-68 39 -68 124q0 65 49 111t125 46q81 0 126.5 -40.5t48.5 -96.5q0 -9 -7 -10l-81 -17q-10 -2 -10 7
q-4 30 -23 48.5t-52 18.5t-52.5 -18t-19.5 -49q0 -38 26 -59t90 -37q148 -38 148 -186q0 -53 -26.5 -96t-66.5 -61v-1q40 -21 56 -51.5t16 -80.5q0 -64 -49.5 -108.5t-128.5 -44.5zM290 156q42 0 67 25t25 71t-25 71t-67 25q-43 0 -68 -25t-25 -71t25 -71t68 -25z" />
    <glyph glyph-name="dieresis" unicode="&#xa8;" horiz-adv-x="422" 
d="M348 573h-77q-10 0 -10 10v87q0 10 10 10h77q10 0 10 -10v-87q0 -10 -10 -10zM152 573h-77q-10 0 -10 10v87q0 10 10 10h77q10 0 10 -10v-87q0 -10 -10 -10z" />
    <glyph glyph-name="copyright" unicode="&#xa9;" horiz-adv-x="826" 
d="M413 -11q-149 0 -250 101.5t-101 249.5t101 249.5t250 101.5t250 -101.5t101 -249.5t-101 -249.5t-250 -101.5zM413 65q116 0 193.5 78.5t77.5 196.5t-77.5 196.5t-193.5 78.5t-193.5 -78.5t-77.5 -196.5t77.5 -196.5t193.5 -78.5zM424 143q-126 0 -161 108
q-11 35 -11 89t11 89q35 108 161 108q82 0 130 -56q7 -7 -1 -14l-46 -41q-7 -6 -14 1q-30 33 -68 33q-60 0 -79 -54q-6 -18 -6 -66t6 -66q19 -54 79 -54q38 0 68 33q7 7 14 1l46 -41q8 -7 1 -14q-48 -56 -130 -56z" />
    <glyph glyph-name="ordfeminine" unicode="&#xaa;" horiz-adv-x="347" 
d="M295 392h-64q-10 0 -10 10v13h-2q-26 -28 -83 -28q-44 0 -73 22t-29 64q0 97 126 97h53q6 0 6 6v7q0 31 -61 31q-37 0 -65 -15q-9 -5 -14 3l-27 47q-5 9 3 14q42 25 114 25q75 0 105.5 -24.5t30.5 -78.5v-183q0 -10 -10 -10zM160 455q59 0 59 41v7q0 6 -6 6h-46
q-48 0 -48 -28q0 -26 41 -26z" />
    <glyph glyph-name="guillemotleft" unicode="&#xab;" horiz-adv-x="542" 
d="M466 52l-204 205q-7 7 0 14l204 205q3 3 6.5 1.5t3.5 -5.5v-96q0 -11 -10 -21l-87 -87q-4 -4 0 -8l87 -87q10 -10 10 -21v-96q0 -4 -3.5 -5.5t-6.5 1.5zM239 52l-204 205q-7 7 0 14l204 205q3 3 6.5 1.5t3.5 -5.5v-96q0 -11 -10 -21l-87 -87q-4 -4 0 -8l87 -87
q10 -10 10 -21v-96q0 -4 -3.5 -5.5t-6.5 1.5z" />
    <glyph glyph-name="logicalnot" unicode="&#xac;" 
d="M484 92h-81q-10 0 -10 10v119q0 6 -6 6h-322q-10 0 -10 10v78q0 10 10 10h419q10 0 10 -10v-213q0 -10 -10 -10z" />
    <glyph glyph-name="uni00AD" unicode="&#xad;" horiz-adv-x="385" 
d="M330 216h-275q-10 0 -10 10v79q0 10 10 10h275q10 0 10 -10v-79q0 -10 -10 -10z" />
    <glyph glyph-name="registered" unicode="&#xae;" horiz-adv-x="447" 
d="M223 301q-81 0 -136 55.5t-55 136.5q0 80 55 135.5t136 55.5t136 -55.5t55 -135.5q0 -81 -55 -136.5t-136 -55.5zM223 340q64 0 107 43.5t43 109.5q0 65 -43 108.5t-107 43.5t-107 -43.5t-43 -108.5q0 -66 43 -109.5t107 -43.5zM185 388h-34q-7 0 -7 7v198q0 7 7 7h83
q37 0 57.5 -17t20.5 -48q0 -44 -40 -60l42 -80q4 -7 -5 -7h-36q-6 0 -9 7l-39 74h-29q-4 0 -4 -4v-70q0 -7 -7 -7zM234 511q32 0 32 24t-32 24h-38q-4 0 -4 -4v-40q0 -4 4 -4h38z" />
    <glyph glyph-name="macron" unicode="&#xaf;" horiz-adv-x="422" 
d="M342 587h-263q-10 0 -10 10v61q0 10 10 10h263q10 0 10 -10v-61q0 -10 -10 -10z" />
    <glyph glyph-name="degree" unicode="&#xb0;" horiz-adv-x="465" 
d="M233 395q-64 0 -106 42.5t-42 105.5t42 105.5t106 42.5q62 0 104.5 -42.5t42.5 -105.5t-42.5 -105.5t-104.5 -42.5zM233 460q34 0 56.5 24t22.5 59q0 36 -22.5 59.5t-56.5 23.5q-35 0 -57.5 -23.5t-22.5 -59.5t22.5 -59.5t57.5 -23.5z" />
    <glyph glyph-name="plusminus" unicode="&#xb1;" 
d="M315 157h-81q-10 0 -10 10v154q0 6 -6 6h-153q-10 0 -10 10v78q0 10 10 10h153q6 0 6 6v154q0 10 10 10h81q10 0 10 -10v-154q0 -6 6 -6h153q10 0 10 -10v-78q0 -10 -10 -10h-153q-6 0 -6 -6v-154q0 -10 -10 -10zM484 0h-419q-10 0 -10 10v79q0 10 10 10h419q10 0 10 -10
v-79q0 -10 -10 -10z" />
    <glyph glyph-name="twosuperior" unicode="&#xb2;" horiz-adv-x="349" 
d="M297 430h-245q-10 0 -10 10v57q0 8 6 14l144 158q27 29 27 55q0 20 -11.5 31.5t-31.5 11.5q-42 0 -49 -42q-2 -10 -11 -8l-65 14q-10 2 -8 11q5 37 40 69.5t94 32.5q58 0 94 -34t36 -86q0 -51 -44 -100l-109 -116v-1h143q10 0 10 -10v-57q0 -10 -10 -10z" />
    <glyph glyph-name="threesuperior" unicode="&#xb3;" horiz-adv-x="349" 
d="M176 422q-54 0 -91.5 22.5t-48.5 68.5q-2 12 7 13l64 16q7 1 12 -8q17 -35 55 -35q23 0 37.5 14t14.5 36q0 23 -15 36.5t-42 13.5h-20q-10 0 -10 10v57q0 10 10 10h15q52 0 52 45q0 46 -46 46q-34 0 -48 -29q-4 -8 -13 -6l-60 14q-9 1 -7 12q9 38 43.5 62t86.5 24
q62 0 97 -31.5t35 -84.5q0 -50 -41 -83v-1q19 -8 35 -33.5t16 -59.5q0 -59 -37.5 -94t-100.5 -35z" />
    <glyph glyph-name="acute" unicode="&#xb4;" horiz-adv-x="422" 
d="M191 555h-68q-11 0 -6 10l75 125q6 10 18 10h91q5 0 6.5 -3t-1.5 -7l-95 -125q-9 -10 -20 -10z" />
    <glyph glyph-name="mu" unicode="&#xb5;" horiz-adv-x="550" 
d="M467 0h-92q-10 0 -10 10v39h-1q-14 -26 -42 -43t-66 -17q-47 0 -69 24h-2v-183q0 -10 -10 -10h-92q-10 0 -10 10v642q0 10 10 10h92q10 0 10 -10v-279q0 -49 22.5 -76.5t67.5 -27.5q43 0 66.5 28t23.5 76v279q0 10 10 10h92q10 0 10 -10v-462q0 -10 -10 -10z" />
    <glyph glyph-name="mu" unicode="&#x3bc;" horiz-adv-x="550" 
d="M467 0h-92q-10 0 -10 10v39h-1q-14 -26 -42 -43t-66 -17q-47 0 -69 24h-2v-183q0 -10 -10 -10h-92q-10 0 -10 10v642q0 10 10 10h92q10 0 10 -10v-279q0 -49 22.5 -76.5t67.5 -27.5q43 0 66.5 28t23.5 76v279q0 10 10 10h92q10 0 10 -10v-462q0 -10 -10 -10z" />
    <glyph glyph-name="paragraph" unicode="&#xb6;" horiz-adv-x="634" 
d="M537 -180h-77q-10 0 -10 10v750q0 6 -6 6h-71q-6 0 -6 -6v-750q0 -10 -10 -10h-77q-10 0 -10 10v428q-89 5 -143.5 64.5t-54.5 146.5q0 91 60 151t165 60h240q10 0 10 -10v-840q0 -10 -10 -10z" />
    <glyph glyph-name="periodcentered" unicode="&#xb7;" horiz-adv-x="252" 
d="M176 204h-100q-10 0 -10 10v102q0 10 10 10h100q10 0 10 -10v-102q0 -10 -10 -10z" />
    <glyph glyph-name="cedilla" unicode="&#xb8;" horiz-adv-x="422" 
d="M224 -155h-78q-10 0 -7 10l59 145q4 10 13 10h68q10 0 7 -10l-46 -145q-3 -10 -16 -10z" />
    <glyph glyph-name="onesuperior" unicode="&#xb9;" horiz-adv-x="349" 
d="M233 430h-67q-10 0 -10 10v294h-2l-63 -41q-4 -2 -7 0t-3 7v72q0 10 8 15l62 42q10 7 17 7h65q10 0 10 -10v-386q0 -10 -10 -10z" />
    <glyph glyph-name="ordmasculine" unicode="&#xba;" horiz-adv-x="356" 
d="M178 384q-109 0 -137 87q-9 26 -9 65q0 40 9 65q28 87 137 87t137 -87q9 -25 9 -65q0 -39 -9 -65q-28 -87 -137 -87zM178 463q36 0 48 33q5 18 5 40t-5 40q-12 33 -48 33q-37 0 -49 -33q-5 -18 -5 -40t5 -40q12 -33 49 -33z" />
    <glyph glyph-name="guillemotright" unicode="&#xbb;" horiz-adv-x="542" 
d="M303 52q-3 -3 -6.5 -1.5t-3.5 5.5v96q0 11 10 21l87 87q4 4 0 8l-87 87q-10 10 -10 21v96q0 4 3.5 5.5t6.5 -1.5l204 -205q7 -7 0 -14zM76 52q-3 -3 -6.5 -1.5t-3.5 5.5v96q0 11 10 21l87 87q4 4 0 8l-87 87q-10 10 -10 21v96q0 4 3.5 5.5t6.5 -1.5l204 -205q7 -7 0 -14z
" />
    <glyph glyph-name="onequarter" unicode="&#xbc;" horiz-adv-x="841" 
d="M243 274h-67q-10 0 -10 10v294h-2l-63 -41q-4 -2 -7 0t-3 7v72q0 10 8 15l62 42q10 7 17 7h65q10 0 10 -10v-386q0 -10 -10 -10zM707 0h-64q-10 0 -10 10v44q0 6 -6 6h-162q-10 0 -10 10v55q0 8 4 15l124 256q5 10 14 10h72q11 0 6 -10l-122 -260v-1h74q6 0 6 6v82
q0 10 10 10h64q10 0 10 -10v-82q0 -6 6 -6h17q10 0 10 -10v-55q0 -10 -10 -10h-17q-6 0 -6 -6v-44q0 -10 -10 -10zM239 -11h-66q-11 0 -5 10l395 682q6 10 16 10h65q4 0 6 -3t0 -7l-395 -682q-6 -10 -16 -10z" />
    <glyph glyph-name="onehalf" unicode="&#xbd;" horiz-adv-x="881" 
d="M243 274h-67q-10 0 -10 10v294h-2l-63 -41q-4 -2 -7 0t-3 7v72q0 10 8 15l62 42q10 7 17 7h65q10 0 10 -10v-386q0 -10 -10 -10zM780 0h-245q-10 0 -10 10v57q0 8 6 14l144 158q27 29 27 55q0 20 -11.5 31.5t-31.5 11.5q-42 0 -49 -42q-2 -10 -11 -8l-65 14q-10 2 -8 11
q5 37 40 69.5t94 32.5q58 0 94 -34t36 -86q0 -51 -44 -100l-109 -116v-1h143q10 0 10 -10v-57q0 -10 -10 -10zM239 -11h-66q-11 0 -5 10l395 682q6 10 16 10h65q4 0 6 -3t0 -7l-395 -682q-6 -10 -16 -10z" />
    <glyph glyph-name="threequarters" unicode="&#xbe;" horiz-adv-x="914" 
d="M780 0h-64q-10 0 -10 10v44q0 6 -6 6h-162q-10 0 -10 10v55q0 8 4 15l124 256q5 10 14 10h72q11 0 6 -10l-122 -260v-1h74q6 0 6 6v82q0 10 10 10h64q10 0 10 -10v-82q0 -6 6 -6h17q10 0 10 -10v-55q0 -10 -10 -10h-17q-6 0 -6 -6v-44q0 -10 -10 -10zM314 -11h-66
q-11 0 -5 10l395 682q6 10 16 10h65q4 0 6 -3t0 -7l-395 -682q-6 -10 -16 -10zM231 266q-54 0 -91.5 22.5t-48.5 68.5q-2 12 7 13l64 16q7 1 12 -8q17 -35 55 -35q23 0 37.5 14t14.5 36q0 23 -15 36.5t-42 13.5h-20q-10 0 -10 10v57q0 10 10 10h15q52 0 52 45q0 46 -46 46
q-33 0 -48 -29q-4 -8 -13 -6l-60 14q-9 1 -7 12q9 38 43.5 62t86.5 24q62 0 97 -31.5t35 -84.5q0 -50 -41 -83v-1q19 -8 35 -33.5t16 -59.5q0 -59 -37.5 -94t-100.5 -35z" />
    <glyph glyph-name="questiondown" unicode="&#xbf;" horiz-adv-x="464" 
d="M287 292q10 0 10 -10v-41q0 -49 -26 -85l-79 -108q-34 -45 -34 -82q0 -33 21.5 -54t56.5 -21q71 0 85 80q2 10 11 8l90 -14q10 -1 8 -12q-12 -76 -64 -119t-134 -43q-83 0 -135.5 49t-52.5 125q0 63 41 117l79 108q20 25 20 63v29q0 10 10 10h93zM301 472v-102
q0 -10 -10 -10h-100q-10 0 -10 10v102q0 10 10 10h100q10 0 10 -10z" />
    <glyph glyph-name="Agrave" unicode="&#xc0;" horiz-adv-x="617" 
d="M18 10l233 660q3 10 13 10h92q10 0 13 -10l230 -660q3 -10 -7 -10h-98q-10 0 -13 10l-45 132h-256l-45 -132q-3 -10 -13 -10h-97q-10 0 -7 10zM216 247h184l-90 264h-3zM342 761h-72q-10 0 -18 8l-116 109q-4 4 -2.5 7t6.5 3h98q11 0 19 -10l89 -107q3 -4 1.5 -7t-5.5 -3
z" />
    <glyph glyph-name="Aacute" unicode="&#xc1;" horiz-adv-x="617" 
d="M18 10l233 660q3 10 13 10h92q10 0 13 -10l230 -660q3 -10 -7 -10h-98q-10 0 -13 10l-45 132h-256l-45 -132q-3 -10 -13 -10h-97q-10 0 -7 10zM216 247h184l-90 264h-3zM347 761h-71q-4 0 -5.5 3t1.5 7l88 107q8 10 19 10h98q5 0 7 -3t-2 -7l-117 -109q-8 -8 -18 -8z" />
    <glyph glyph-name="Acircumflex" unicode="&#xc2;" horiz-adv-x="617" 
d="M18 10l233 660q3 10 13 10h92q10 0 13 -10l230 -660q3 -10 -7 -10h-98q-10 0 -13 10l-45 132h-256l-45 -132q-3 -10 -13 -10h-97q-10 0 -7 10zM216 247h184l-90 264h-3zM450 753h-63q-11 0 -21 10l-57 59h-2l-57 -59q-10 -10 -21 -10h-63q-4 0 -5.5 3t1.5 7l98 125
q7 10 18 10h60q11 0 18 -10l98 -125q3 -4 1.5 -7t-5.5 -3z" />
    <glyph glyph-name="Atilde" unicode="&#xc3;" horiz-adv-x="617" 
d="M18 10l233 660q3 10 13 10h92q10 0 13 -10l230 -660q3 -10 -7 -10h-98q-10 0 -13 10l-45 132h-256l-45 -132q-3 -10 -13 -10h-97q-10 0 -7 10zM216 247h184l-90 264h-3zM367 757q-29 0 -67 20q-33 18 -56 18q-30 0 -67 -31q-9 -7 -9 2v61q0 10 8 19q32 34 72 34
q29 0 67 -20q33 -18 57 -18q29 0 66 31q9 7 9 -2v-61q0 -10 -8 -19q-32 -34 -72 -34z" />
    <glyph glyph-name="Adieresis" unicode="&#xc4;" horiz-adv-x="617" 
d="M18 10l233 660q3 10 13 10h92q10 0 13 -10l230 -660q3 -10 -7 -10h-98q-10 0 -13 10l-45 132h-256l-45 -132q-3 -10 -13 -10h-97q-10 0 -7 10zM216 247h184l-90 264h-3zM444 769h-73q-10 0 -10 10v87q0 10 10 10h73q10 0 10 -10v-87q0 -10 -10 -10zM244 769h-73
q-10 0 -10 10v87q0 10 10 10h73q10 0 10 -10v-87q0 -10 -10 -10z" />
    <glyph glyph-name="Aring" unicode="&#xc5;" horiz-adv-x="617" 
d="M18 10l233 660q3 10 13 10h92q10 0 13 -10l230 -660q3 -10 -7 -10h-98q-10 0 -13 10l-45 132h-256l-45 -132q-3 -10 -13 -10h-97q-10 0 -7 10zM216 247h184l-90 264h-3zM308 721q-43 0 -71 28t-28 71t28 71.5t71 28.5t71 -28.5t28 -71.5t-28 -71t-71 -28zM308 769
q21 0 35 14.5t14 36.5t-14 36.5t-35 14.5t-35 -14.5t-14 -36.5t14 -36.5t35 -14.5z" />
    <glyph glyph-name="AE" unicode="&#xc6;" horiz-adv-x="926" 
d="M867 0h-426q-10 0 -10 10v126q0 6 -6 6h-209l-65 -132q-4 -10 -13 -10h-112q-12 0 -7 10l334 660q5 10 14 10h500q10 0 10 -10v-86q0 -10 -10 -10h-312q-6 0 -6 -6v-166q0 -6 6 -6h263q10 0 10 -10v-86q0 -10 -10 -10h-263q-6 0 -6 -6v-172q0 -6 6 -6h312q10 0 10 -10
v-86q0 -10 -10 -10zM429 574l-161 -327h157q6 0 6 6v321h-2z" />
    <glyph glyph-name="Ccedilla" unicode="&#xc7;" horiz-adv-x="575" 
d="M288 -155h-78q-10 0 -7 10l55 137q-142 27 -185 164q-18 54 -18 184t18 184q26 82 87 124.5t149 42.5q81 0 140.5 -38.5t89.5 -107.5q3 -9 -5 -12l-85 -41q-9 -5 -13 5q-40 88 -127 88q-91 0 -122 -90q-12 -37 -12 -155t12 -155q31 -90 122 -90q87 0 127 88q4 10 13 5
l85 -41q8 -3 5 -12q-26 -59 -75 -96.5t-117 -47.5l-43 -136q-3 -10 -16 -10z" />
    <glyph glyph-name="Egrave" unicode="&#xc8;" horiz-adv-x="570" 
d="M354 761h-72q-10 0 -18 8l-116 109q-4 4 -2.5 7t6.5 3h98q11 0 19 -10l89 -107q3 -4 1.5 -7t-5.5 -3zM75 10v660q0 10 10 10h426q10 0 10 -10v-86q0 -10 -10 -10h-312q-6 0 -6 -6v-166q0 -6 6 -6h263q10 0 10 -10v-86q0 -10 -10 -10h-263q-6 0 -6 -6v-172q0 -6 6 -6h312
q10 0 10 -10v-86q0 -10 -10 -10h-426q-10 0 -10 10z" />
    <glyph glyph-name="Eacute" unicode="&#xc9;" horiz-adv-x="570" 
d="M304 761h-71q-5 0 -6 3t2 7l88 107q8 10 19 10h98q5 0 6.5 -3t-1.5 -7l-117 -109q-8 -8 -18 -8zM75 10v660q0 10 10 10h426q10 0 10 -10v-86q0 -10 -10 -10h-312q-6 0 -6 -6v-166q0 -6 6 -6h263q10 0 10 -10v-86q0 -10 -10 -10h-263q-6 0 -6 -6v-172q0 -6 6 -6h312
q10 0 10 -10v-86q0 -10 -10 -10h-426q-10 0 -10 10z" />
    <glyph glyph-name="Ecircumflex" unicode="&#xca;" horiz-adv-x="570" 
d="M75 10v660q0 10 10 10h426q10 0 10 -10v-86q0 -10 -10 -10h-312q-6 0 -6 -6v-166q0 -6 6 -6h263q10 0 10 -10v-86q0 -10 -10 -10h-263q-6 0 -6 -6v-172q0 -6 6 -6h312q10 0 10 -10v-86q0 -10 -10 -10h-426q-10 0 -10 10zM441 753h-63q-11 0 -21 10l-57 59h-2l-57 -59
q-10 -10 -21 -10h-63q-5 0 -6 3t2 7l98 125q7 10 18 10h60q11 0 18 -10l98 -125q3 -4 2 -7t-6 -3z" />
    <glyph glyph-name="Edieresis" unicode="&#xcb;" horiz-adv-x="570" 
d="M433 769h-73q-10 0 -10 10v87q0 10 10 10h73q10 0 10 -10v-87q0 -10 -10 -10zM233 769h-73q-10 0 -10 10v87q0 10 10 10h73q10 0 10 -10v-87q0 -10 -10 -10zM75 10v660q0 10 10 10h426q10 0 10 -10v-86q0 -10 -10 -10h-312q-6 0 -6 -6v-166q0 -6 6 -6h263q10 0 10 -10
v-86q0 -10 -10 -10h-263q-6 0 -6 -6v-172q0 -6 6 -6h312q10 0 10 -10v-86q0 -10 -10 -10h-426q-10 0 -10 10z" />
    <glyph glyph-name="Igrave" unicode="&#xcc;" horiz-adv-x="268" 
d="M75 10v660q0 10 10 10h98q10 0 10 -10v-660q0 -10 -10 -10h-98q-10 0 -10 10zM169 761h-72q-10 0 -18 8l-116 109q-4 4 -2.5 7t6.5 3h98q11 0 19 -10l89 -107q3 -4 2 -7t-6 -3z" />
    <glyph glyph-name="Iacute" unicode="&#xcd;" horiz-adv-x="268" 
d="M75 10v660q0 10 10 10h98q10 0 10 -10v-660q0 -10 -10 -10h-98q-10 0 -10 10zM173 761h-71q-4 0 -5.5 3t1.5 7l88 107q8 10 19 10h98q5 0 7 -3t-2 -7l-117 -109q-8 -8 -18 -8z" />
    <glyph glyph-name="Icircumflex" unicode="&#xce;" horiz-adv-x="268" 
d="M75 10v660q0 10 10 10h98q10 0 10 -10v-660q0 -10 -10 -10h-98q-10 0 -10 10zM277 753h-63q-11 0 -21 10l-57 59h-2l-57 -59q-10 -10 -21 -10h-63q-5 0 -6 3t2 7l98 125q7 10 18 10h60q11 0 18 -10l98 -125q3 -4 2 -7t-6 -3z" />
    <glyph glyph-name="Idieresis" unicode="&#xcf;" horiz-adv-x="268" 
d="M75 10v660q0 10 10 10h98q10 0 10 -10v-660q0 -10 -10 -10h-98q-10 0 -10 10zM271 769h-73q-10 0 -10 10v87q0 10 10 10h73q10 0 10 -10v-87q0 -10 -10 -10zM71 769h-73q-10 0 -10 10v87q0 10 10 10h73q10 0 10 -10v-87q0 -10 -10 -10z" />
    <glyph glyph-name="Eth" unicode="&#xd0;" horiz-adv-x="625" 
d="M328 0h-243q-10 0 -10 10v282q0 6 -6 6h-26q-10 0 -10 10v70q0 10 10 10h26q6 0 6 6v276q0 10 10 10h243q178 0 227 -151q17 -53 17 -189t-17 -189q-49 -151 -227 -151zM300 106q113 0 141 86q12 33 12 148t-12 148q-28 86 -141 86h-101q-6 0 -6 -6v-174q0 -6 6 -6h97
q10 0 10 -10v-70q0 -10 -10 -10h-97q-6 0 -6 -6v-180q0 -6 6 -6h101z" />
    <glyph glyph-name="Ntilde" unicode="&#xd1;" horiz-adv-x="657" 
d="M387 757q-29 0 -67 20q-33 18 -56 18q-30 0 -67 -31q-9 -7 -9 2v61q0 10 8 19q32 34 72 34q29 0 67 -20q33 -18 57 -18q29 0 66 31q9 7 9 -2v-61q0 -10 -8 -19q-32 -34 -72 -34zM75 10v660q0 10 10 10h92q11 0 17 -10l277 -469h4v469q0 10 10 10h87q10 0 10 -10v-660
q0 -10 -10 -10h-91q-11 0 -17 10l-278 468h-4v-468q0 -10 -10 -10h-87q-10 0 -10 10z" />
    <glyph glyph-name="Ograve" unicode="&#xd2;" horiz-adv-x="627" 
d="M366 761h-72q-10 0 -18 8l-116 109q-4 4 -2.5 7t6.5 3h98q11 0 19 -10l89 -107q3 -4 1.5 -7t-5.5 -3zM313 -11q-89 0 -151.5 42t-88.5 122q-18 54 -18 187t18 187q26 80 88.5 122t151.5 42q90 0 152.5 -42t88.5 -122q18 -54 18 -187t-18 -187q-26 -80 -88.5 -122
t-152.5 -42zM313 95q96 0 127 89q12 38 12 156t-12 156q-31 89 -127 89q-95 0 -126 -89q-12 -38 -12 -156t12 -156q31 -89 126 -89z" />
    <glyph glyph-name="Oacute" unicode="&#xd3;" horiz-adv-x="627" 
d="M332 761h-71q-5 0 -6 3t2 7l88 107q8 10 19 10h98q5 0 6.5 -3t-1.5 -7l-117 -109q-8 -8 -18 -8zM313 -11q-89 0 -151.5 42t-88.5 122q-18 54 -18 187t18 187q26 80 88.5 122t151.5 42q90 0 152.5 -42t88.5 -122q18 -54 18 -187t-18 -187q-26 -80 -88.5 -122t-152.5 -42z
M313 95q96 0 127 89q12 38 12 156t-12 156q-31 89 -127 89q-95 0 -126 -89q-12 -38 -12 -156t12 -156q31 -89 126 -89z" />
    <glyph glyph-name="Ocircumflex" unicode="&#xd4;" horiz-adv-x="627" 
d="M313 -11q-89 0 -151.5 42t-88.5 122q-18 54 -18 187t18 187q26 80 88.5 122t151.5 42q90 0 152.5 -42t88.5 -122q18 -54 18 -187t-18 -187q-26 -80 -88.5 -122t-152.5 -42zM313 95q96 0 127 89q12 38 12 156t-12 156q-31 89 -127 89q-95 0 -126 -89q-12 -38 -12 -156
t12 -156q31 -89 126 -89zM455 753h-63q-11 0 -21 10l-57 59h-2l-57 -59q-10 -10 -21 -10h-63q-5 0 -6 3t2 7l98 125q7 10 18 10h60q11 0 18 -10l98 -125q3 -4 2 -7t-6 -3z" />
    <glyph glyph-name="Otilde" unicode="&#xd5;" horiz-adv-x="627" 
d="M372 757q-29 0 -67 20q-33 18 -56 18q-30 0 -67 -31q-9 -7 -9 2v61q0 10 8 19q32 34 72 34q29 0 67 -20q33 -18 57 -18q29 0 66 31q9 7 9 -2v-61q0 -10 -8 -19q-32 -34 -72 -34zM313 -11q-89 0 -151.5 42t-88.5 122q-18 54 -18 187t18 187q26 80 88.5 122t151.5 42
q90 0 152.5 -42t88.5 -122q18 -54 18 -187t-18 -187q-26 -80 -88.5 -122t-152.5 -42zM313 95q96 0 127 89q12 38 12 156t-12 156q-31 89 -127 89q-95 0 -126 -89q-12 -38 -12 -156t12 -156q31 -89 126 -89z" />
    <glyph glyph-name="Odieresis" unicode="&#xd6;" horiz-adv-x="627" 
d="M449 769h-73q-10 0 -10 10v87q0 10 10 10h73q10 0 10 -10v-87q0 -10 -10 -10zM249 769h-73q-10 0 -10 10v87q0 10 10 10h73q10 0 10 -10v-87q0 -10 -10 -10zM313 -11q-89 0 -151.5 42t-88.5 122q-18 54 -18 187t18 187q26 80 88.5 122t151.5 42q90 0 152.5 -42t88.5 -122
q18 -54 18 -187t-18 -187q-26 -80 -88.5 -122t-152.5 -42zM313 95q96 0 127 89q12 38 12 156t-12 156q-31 89 -127 89q-95 0 -126 -89q-12 -38 -12 -156t12 -156q31 -89 126 -89z" />
    <glyph glyph-name="multiply" unicode="&#xd7;" 
d="M463 141l-53 -54q-7 -7 -14 0l-118 116q-4 4 -8 0l-117 -116q-7 -7 -14 0l-53 54q-7 7 0 14l116 117q4 4 0 8l-116 117q-7 7 0 14l53 54q7 7 14 0l117 -116q4 -5 9 0l117 116q7 7 14 0l53 -54q7 -7 0 -14l-117 -116q-4 -5 0 -9l117 -117q7 -7 0 -14z" />
    <glyph glyph-name="Oslash" unicode="&#xd8;" horiz-adv-x="627" 
d="M124 -30h-63q-11 0 -5 10l57 96q-28 36 -40 77q-18 54 -18 187t18 187q26 80 88.5 122t151.5 42q85 0 146 -38l29 48q5 9 15 9h63q11 0 5 -10l-58 -96q26 -34 41 -77q18 -54 18 -187t-18 -187q-26 -80 -88.5 -122t-152.5 -42q-85 0 -146 38l-28 -48q-5 -9 -15 -9z
M174 340q0 -115 10 -151l216 368q-34 28 -87 28q-96 0 -127 -89q-12 -38 -12 -156zM313 95q97 0 128 89q12 38 12 156q0 107 -10 149l-216 -367q33 -27 86 -27z" />
    <glyph glyph-name="Ugrave" unicode="&#xd9;" horiz-adv-x="643" 
d="M372 761h-72q-10 0 -18 8l-116 109q-4 4 -2.5 7t6.5 3h98q11 0 19 -10l89 -107q3 -4 1.5 -7t-5.5 -3zM321 95q60 0 96.5 38.5t36.5 107.5v429q0 10 10 10h98q10 0 10 -10v-431q0 -116 -70 -183t-181 -67q-110 0 -180 67t-70 183v431q0 10 10 10h98q10 0 10 -10v-429
q0 -69 36.5 -107.5t95.5 -38.5z" />
    <glyph glyph-name="Uacute" unicode="&#xda;" horiz-adv-x="643" 
d="M342 761h-71q-5 0 -6 3t2 7l88 107q8 10 19 10h98q5 0 6.5 -3t-1.5 -7l-117 -109q-8 -8 -18 -8zM321 95q60 0 96.5 38.5t36.5 107.5v429q0 10 10 10h98q10 0 10 -10v-431q0 -116 -70 -183t-181 -67q-110 0 -180 67t-70 183v431q0 10 10 10h98q10 0 10 -10v-429
q0 -69 36.5 -107.5t95.5 -38.5z" />
    <glyph glyph-name="Ucircumflex" unicode="&#xdb;" horiz-adv-x="643" 
d="M321 95q60 0 96.5 38.5t36.5 107.5v429q0 10 10 10h98q10 0 10 -10v-431q0 -116 -70 -183t-181 -67q-110 0 -180 67t-70 183v431q0 10 10 10h98q10 0 10 -10v-429q0 -69 36.5 -107.5t95.5 -38.5zM463 753h-63q-11 0 -21 10l-57 59h-2l-57 -59q-10 -10 -21 -10h-63
q-5 0 -6 3t2 7l98 125q7 10 18 10h60q11 0 18 -10l98 -125q3 -4 2 -7t-6 -3z" />
    <glyph glyph-name="Udieresis" unicode="&#xdc;" horiz-adv-x="643" 
d="M458 769h-73q-10 0 -10 10v87q0 10 10 10h73q10 0 10 -10v-87q0 -10 -10 -10zM258 769h-73q-10 0 -10 10v87q0 10 10 10h73q10 0 10 -10v-87q0 -10 -10 -10zM321 95q60 0 96.5 38.5t36.5 107.5v429q0 10 10 10h98q10 0 10 -10v-431q0 -116 -70 -183t-181 -67
q-110 0 -180 67t-70 183v431q0 10 10 10h98q10 0 10 -10v-429q0 -69 36.5 -107.5t95.5 -38.5z" />
    <glyph glyph-name="Yacute" unicode="&#xdd;" horiz-adv-x="536" 
d="M317 0h-98q-10 0 -10 10v268l-197 392q-4 10 8 10h101q10 0 14 -10l133 -264h3l134 264q4 10 14 10h97q12 0 8 -10l-197 -392v-268q0 -10 -10 -10zM297 761h-71q-4 0 -5.5 3t1.5 7l88 107q8 10 19 10h98q5 0 7 -3t-2 -7l-117 -109q-8 -8 -18 -8z" />
    <glyph glyph-name="Thorn" unicode="&#xde;" horiz-adv-x="598" 
d="M183 0h-98q-10 0 -10 10v660q0 10 10 10h98q10 0 10 -10v-98q0 -6 6 -6h141q100 0 162 -58t62 -153t-62.5 -153.5t-161.5 -58.5h-141q-6 0 -6 -6v-127q0 -10 -10 -10zM333 250q52 0 82.5 28.5t30.5 76.5t-30.5 76.5t-82.5 28.5h-134q-6 0 -6 -6v-198q0 -6 6 -6h134z" />
    <glyph glyph-name="germandbls" unicode="&#xdf;" horiz-adv-x="546" 
d="M313 -3h-29q-10 0 -10 10v79q0 10 10 10h25q55 0 68 40q5 17 5 89t-6 93q-15 46 -81 46h-11q-10 0 -10 10v80q0 10 10 10h23q67 0 67 63q0 65 -90 65q-52 0 -75.5 -23t-23.5 -75v-484q0 -10 -10 -10h-92q-10 0 -10 10v479q0 202 208 202q99 0 152 -41.5t53 -121.5
q0 -69 -55 -109v-2q37 -20 52 -63q11 -34 11 -129q0 -97 -12 -134q-16 -50 -57 -72t-112 -22z" />
    <glyph glyph-name="agrave" unicode="&#xe0;" horiz-adv-x="523" 
d="M444 0h-84q-10 0 -10 10v35h-1q-39 -56 -136 -56q-70 0 -116 37.5t-46 109.5q0 77 50.5 115t142.5 38h98q6 0 6 6v23q0 42 -24 61t-83 19q-68 0 -110 -33q-9 -7 -14 2l-37 66q-5 8 2 13q65 47 171 47q109 0 155 -39.5t46 -128.5v-315q0 -10 -10 -10zM241 80q107 0 107 82
v37q0 6 -6 6h-80q-104 0 -104 -65q0 -60 83 -60zM326 555h-67q-11 0 -20 10l-95 125q-3 4 -1.5 7t6.5 3h91q12 0 18 -10l74 -125q5 -10 -6 -10z" />
    <glyph glyph-name="aacute" unicode="&#xe1;" horiz-adv-x="523" 
d="M444 0h-84q-10 0 -10 10v35h-1q-39 -56 -136 -56q-70 0 -116 37.5t-46 109.5q0 77 50.5 115t142.5 38h98q6 0 6 6v23q0 42 -24 61t-83 19q-68 0 -110 -33q-9 -7 -14 2l-37 66q-5 8 2 13q65 47 171 47q109 0 155 -39.5t46 -128.5v-315q0 -10 -10 -10zM241 80q107 0 107 82
v37q0 6 -6 6h-80q-104 0 -104 -65q0 -60 83 -60zM281 555h-68q-11 0 -6 10l75 125q6 10 18 10h91q5 0 6.5 -3t-1.5 -7l-95 -125q-9 -10 -20 -10z" />
    <glyph glyph-name="acircumflex" unicode="&#xe2;" horiz-adv-x="523" 
d="M444 0h-84q-10 0 -10 10v35h-1q-39 -56 -136 -56q-70 0 -116 37.5t-46 109.5q0 77 50.5 115t142.5 38h98q6 0 6 6v23q0 42 -24 61t-83 19q-68 0 -110 -33q-9 -7 -14 2l-37 66q-5 8 2 13q65 47 171 47q109 0 155 -39.5t46 -128.5v-315q0 -10 -10 -10zM241 80q107 0 107 82
v37q0 6 -6 6h-80q-104 0 -104 -65q0 -60 83 -60zM403 555h-63q-11 0 -21 10l-57 59h-2l-57 -59q-10 -10 -21 -10h-63q-5 0 -6 3t2 7l98 125q7 10 18 10h60q11 0 18 -10l98 -125q3 -4 2 -7t-6 -3z" />
    <glyph glyph-name="atilde" unicode="&#xe3;" horiz-adv-x="523" 
d="M444 0h-84q-10 0 -10 10v35h-1q-39 -56 -136 -56q-70 0 -116 37.5t-46 109.5q0 77 50.5 115t142.5 38h98q6 0 6 6v23q0 42 -24 61t-83 19q-68 0 -110 -33q-9 -7 -14 2l-37 66q-5 8 2 13q65 47 171 47q109 0 155 -39.5t46 -128.5v-315q0 -10 -10 -10zM241 80q107 0 107 82
v37q0 6 -6 6h-80q-104 0 -104 -65q0 -60 83 -60zM320 561q-29 0 -67 20q-33 18 -56 18q-30 0 -67 -31q-9 -7 -9 2v61q0 10 8 19q32 34 72 34q29 0 67 -20q33 -18 57 -18q29 0 66 31q9 7 9 -2v-61q0 -10 -8 -19q-32 -34 -72 -34z" />
    <glyph glyph-name="adieresis" unicode="&#xe4;" horiz-adv-x="523" 
d="M444 0h-84q-10 0 -10 10v35h-1q-39 -56 -136 -56q-70 0 -116 37.5t-46 109.5q0 77 50.5 115t142.5 38h98q6 0 6 6v23q0 42 -24 61t-83 19q-68 0 -110 -33q-9 -7 -14 2l-37 66q-5 8 2 13q65 47 171 47q109 0 155 -39.5t46 -128.5v-315q0 -10 -10 -10zM241 80q107 0 107 82
v37q0 6 -6 6h-80q-104 0 -104 -65q0 -60 83 -60zM397 573h-77q-10 0 -10 10v87q0 10 10 10h77q10 0 10 -10v-87q0 -10 -10 -10zM201 573h-77q-10 0 -10 10v87q0 10 10 10h77q10 0 10 -10v-87q0 -10 -10 -10z" />
    <glyph glyph-name="aring" unicode="&#xe5;" horiz-adv-x="523" 
d="M444 0h-84q-10 0 -10 10v35h-1q-39 -56 -136 -56q-70 0 -116 37.5t-46 109.5q0 77 50.5 115t142.5 38h98q6 0 6 6v23q0 42 -24 61t-83 19q-68 0 -110 -33q-9 -7 -14 2l-37 66q-5 8 2 13q65 47 171 47q109 0 155 -39.5t46 -128.5v-315q0 -10 -10 -10zM241 80q107 0 107 82
v37q0 6 -6 6h-80q-104 0 -104 -65q0 -60 83 -60zM266 529q-43 0 -71 28.5t-28 71.5t28 71.5t71 28.5t71 -28.5t28 -71.5t-28 -71.5t-71 -28.5zM266 578q21 0 35 14.5t14 36.5t-14 36.5t-35 14.5t-35 -14.5t-14 -36.5t14 -36.5t35 -14.5z" />
    <glyph glyph-name="ae" unicode="&#xe6;" horiz-adv-x="815" 
d="M560 -11q-114 0 -167 76h-1q-43 -76 -179 -76q-70 0 -116 37.5t-46 109.5q0 77 50.5 115t142.5 38h98q6 0 6 6v23q0 42 -24 61t-83 19q-68 0 -110 -33q-9 -7 -14 2l-37 66q-5 8 2 13q65 47 171 47q119 0 161 -50h2q50 50 139 50q73 0 125 -35.5t72 -97.5q16 -49 16 -145
q0 -10 -11 -10h-297q-6 0 -6 -6q0 -18 7 -37q25 -73 108 -73q71 0 113 46q8 8 15 2l59 -52q7 -6 1 -14q-70 -82 -197 -82zM655 295q0 23 -6 41q-10 29 -35 45.5t-59 16.5q-74 0 -95 -62q-6 -18 -6 -41q0 -6 6 -6h189q6 0 6 6zM241 80q107 0 107 82v37q0 6 -6 6h-80
q-104 0 -104 -65q0 -60 83 -60z" />
    <glyph glyph-name="ccedilla" unicode="&#xe7;" horiz-adv-x="475" 
d="M237 -155h-78q-10 0 -7 10l57 139q-113 23 -147 128q-15 45 -15 119t15 119q21 64 73.5 98.5t125.5 34.5q105 0 167 -75q6 -8 -1 -14l-63 -55q-8 -6 -14 2q-37 42 -89 42q-69 0 -90 -63q-10 -30 -10 -89q0 -60 10 -90q21 -62 90 -62q52 0 89 42q6 7 14 1l63 -55
q6 -5 1 -14q-50 -59 -132 -71l-43 -137q-3 -10 -16 -10z" />
    <glyph glyph-name="egrave" unicode="&#xe8;" horiz-adv-x="521" 
d="M265 -11q-76 0 -128.5 35.5t-72.5 98.5q-17 53 -17 118q0 69 16 119q20 63 72.5 98t124.5 35q74 0 126 -35.5t72 -97.5q16 -49 16 -145q0 -10 -11 -10h-297q-6 0 -6 -6q0 -18 7 -37q25 -73 108 -73q71 0 113 46q8 8 15 2l59 -52q7 -6 1 -14q-70 -82 -198 -82zM361 295
q0 23 -6 41q-10 29 -35 45.5t-59 16.5q-74 0 -95 -62q-6 -18 -6 -41q0 -6 6 -6h189q6 0 6 6zM312 555h-67q-11 0 -20 10l-95 125q-3 4 -1.5 7t6.5 3h91q12 0 18 -10l74 -125q5 -10 -6 -10z" />
    <glyph glyph-name="eacute" unicode="&#xe9;" horiz-adv-x="521" 
d="M278 555h-68q-11 0 -6 10l75 125q6 10 18 10h91q5 0 6.5 -3t-1.5 -7l-95 -125q-9 -10 -20 -10zM265 -11q-76 0 -128.5 35.5t-72.5 98.5q-17 53 -17 118q0 69 16 119q20 63 72.5 98t124.5 35q74 0 126 -35.5t72 -97.5q16 -49 16 -145q0 -10 -11 -10h-297q-6 0 -6 -6
q0 -18 7 -37q25 -73 108 -73q71 0 113 46q8 8 15 2l59 -52q7 -6 1 -14q-70 -82 -198 -82zM361 295q0 23 -6 41q-10 29 -35 45.5t-59 16.5q-74 0 -95 -62q-6 -18 -6 -41q0 -6 6 -6h189q6 0 6 6z" />
    <glyph glyph-name="ecircumflex" unicode="&#xea;" horiz-adv-x="521" 
d="M402 555h-63q-11 0 -21 10l-57 59h-2l-57 -59q-10 -10 -21 -10h-63q-4 0 -5.5 3t1.5 7l98 125q7 10 18 10h60q11 0 18 -10l98 -125q3 -4 1.5 -7t-5.5 -3zM265 -11q-76 0 -128.5 35.5t-72.5 98.5q-17 53 -17 118q0 69 16 119q20 63 72.5 98t124.5 35q74 0 126 -35.5
t72 -97.5q16 -49 16 -145q0 -10 -11 -10h-297q-6 0 -6 -6q0 -18 7 -37q25 -73 108 -73q71 0 113 46q8 8 15 2l59 -52q7 -6 1 -14q-70 -82 -198 -82zM361 295q0 23 -6 41q-10 29 -35 45.5t-59 16.5q-74 0 -95 -62q-6 -18 -6 -41q0 -6 6 -6h189q6 0 6 6z" />
    <glyph glyph-name="edieresis" unicode="&#xeb;" horiz-adv-x="521" 
d="M396 573h-77q-10 0 -10 10v87q0 10 10 10h77q10 0 10 -10v-87q0 -10 -10 -10zM200 573h-77q-10 0 -10 10v87q0 10 10 10h77q10 0 10 -10v-87q0 -10 -10 -10zM265 -11q-76 0 -128.5 35.5t-72.5 98.5q-17 53 -17 118q0 69 16 119q20 63 72.5 98t124.5 35q74 0 126 -35.5
t72 -97.5q16 -49 16 -145q0 -10 -11 -10h-297q-6 0 -6 -6q0 -18 7 -37q25 -73 108 -73q71 0 113 46q8 8 15 2l59 -52q7 -6 1 -14q-70 -82 -198 -82zM361 295q0 23 -6 41q-10 29 -35 45.5t-59 16.5q-74 0 -95 -62q-6 -18 -6 -41q0 -6 6 -6h189q6 0 6 6z" />
    <glyph glyph-name="igrave" unicode="&#xec;" horiz-adv-x="258" 
d="M175 0h-92q-10 0 -10 10v462q0 10 10 10h92q10 0 10 -10v-462q0 -10 -10 -10zM167 555h-67q-11 0 -20 10l-95 125q-3 4 -1.5 7t6.5 3h91q12 0 18 -10l74 -125q5 -10 -6 -10z" />
    <glyph glyph-name="iacute" unicode="&#xed;" horiz-adv-x="258" 
d="M161 555h-68q-11 0 -6 10l75 125q6 10 18 10h91q5 0 6.5 -3t-1.5 -7l-95 -125q-9 -10 -20 -10zM175 0h-92q-10 0 -10 10v462q0 10 10 10h92q10 0 10 -10v-462q0 -10 -10 -10z" />
    <glyph glyph-name="icircumflex" unicode="&#xee;" horiz-adv-x="258" 
d="M271 555h-63q-11 0 -21 10l-57 59h-2l-57 -59q-10 -10 -21 -10h-63q-5 0 -6 3t2 7l98 125q7 10 18 10h60q11 0 18 -10l98 -125q3 -4 2 -7t-6 -3zM175 0h-92q-10 0 -10 10v462q0 10 10 10h92q10 0 10 -10v-462q0 -10 -10 -10z" />
    <glyph glyph-name="idieresis" unicode="&#xef;" horiz-adv-x="258" 
d="M266 573h-77q-10 0 -10 10v87q0 10 10 10h77q10 0 10 -10v-87q0 -10 -10 -10zM70 573h-77q-10 0 -10 10v87q0 10 10 10h77q10 0 10 -10v-87q0 -10 -10 -10zM175 0h-92q-10 0 -10 10v462q0 10 10 10h92q10 0 10 -10v-462q0 -10 -10 -10z" />
    <glyph glyph-name="eth" unicode="&#xf0;" horiz-adv-x="523" 
d="M401 579l-63 -19l24 -32q115 -154 115 -289q0 -69 -15 -116q-21 -63 -74 -98.5t-126 -35.5q-74 0 -126 34.5t-73 98.5q-16 50 -16 103q0 60 15 107q19 60 64 93.5t104 33.5q40 0 65 -17h2l-63 87l-91 -28q-10 -3 -13 6l-17 58q-3 10 7 13l65 19l-53 73q-2 4 0 7t6 3h99
q11 0 18 -10l31 -42l92 28q10 3 13 -6l17 -58q3 -10 -7 -13zM365 226q0 48 -10 79q-21 62 -93 62t-93 -62q-10 -31 -10 -79q0 -47 10 -78q21 -62 93 -62t93 62q10 31 10 78z" />
    <glyph glyph-name="ntilde" unicode="&#xf1;" horiz-adv-x="548" 
d="M470 0h-92q-10 0 -10 10v278q0 48 -23.5 76.5t-67.5 28.5q-43 0 -67.5 -29t-24.5 -76v-278q0 -10 -10 -10h-92q-10 0 -10 10v462q0 10 10 10h92q10 0 10 -10v-35h1q39 56 127 56q76 0 121.5 -50t45.5 -129v-304q0 -10 -10 -10zM332 561q-29 0 -67 20q-33 18 -56 18
q-30 0 -67 -31q-9 -7 -9 2v61q0 10 8 19q32 34 72 34q29 0 67 -20q33 -18 57 -18q29 0 66 31q9 7 9 -2v-61q0 -10 -8 -19q-32 -34 -72 -34z" />
    <glyph glyph-name="ograve" unicode="&#xf2;" horiz-adv-x="523" 
d="M307 555h-67q-11 0 -20 10l-95 125q-3 4 -1.5 7t6.5 3h91q12 0 18 -10l74 -125q5 -10 -6 -10zM262 -11q-74 0 -126.5 35t-72.5 98q-16 49 -16 119t16 119q20 63 72.5 98t126.5 35q73 0 125.5 -35t72.5 -98q16 -49 16 -119t-16 -119q-20 -63 -72.5 -98t-125.5 -35zM262 89
q68 0 90 63q10 31 10 89q0 57 -10 89q-22 63 -90 63q-69 0 -91 -63q-10 -32 -10 -89q0 -58 10 -89q22 -63 91 -63z" />
    <glyph glyph-name="oacute" unicode="&#xf3;" horiz-adv-x="523" 
d="M284 555h-68q-11 0 -6 10l75 125q6 10 18 10h91q5 0 6.5 -3t-1.5 -7l-95 -125q-9 -10 -20 -10zM262 -11q-74 0 -126.5 35t-72.5 98q-16 49 -16 119t16 119q20 63 72.5 98t126.5 35q73 0 125.5 -35t72.5 -98q16 -49 16 -119t-16 -119q-20 -63 -72.5 -98t-125.5 -35z
M262 89q68 0 90 63q10 31 10 89q0 57 -10 89q-22 63 -90 63q-69 0 -91 -63q-10 -32 -10 -89q0 -58 10 -89q22 -63 91 -63z" />
    <glyph glyph-name="ocircumflex" unicode="&#xf4;" horiz-adv-x="523" 
d="M403 555h-63q-11 0 -21 10l-57 59h-2l-57 -59q-10 -10 -21 -10h-63q-5 0 -6 3t2 7l98 125q7 10 18 10h60q11 0 18 -10l98 -125q3 -4 2 -7t-6 -3zM262 -11q-74 0 -126.5 35t-72.5 98q-16 49 -16 119t16 119q20 63 72.5 98t126.5 35q73 0 125.5 -35t72.5 -98
q16 -49 16 -119t-16 -119q-20 -63 -72.5 -98t-125.5 -35zM262 89q68 0 90 63q10 31 10 89q0 57 -10 89q-22 63 -90 63q-69 0 -91 -63q-10 -32 -10 -89q0 -58 10 -89q22 -63 91 -63z" />
    <glyph glyph-name="otilde" unicode="&#xf5;" horiz-adv-x="523" 
d="M320 561q-29 0 -67 20q-33 18 -56 18q-30 0 -67 -31q-9 -7 -9 2v61q0 10 8 19q32 34 72 34q29 0 67 -20q33 -18 57 -18q29 0 66 31q9 7 9 -2v-61q0 -10 -8 -19q-32 -34 -72 -34zM262 -11q-74 0 -126.5 35t-72.5 98q-16 49 -16 119t16 119q20 63 72.5 98t126.5 35
q73 0 125.5 -35t72.5 -98q16 -49 16 -119t-16 -119q-20 -63 -72.5 -98t-125.5 -35zM262 89q68 0 90 63q10 31 10 89q0 57 -10 89q-22 63 -90 63q-69 0 -91 -63q-10 -32 -10 -89q0 -58 10 -89q22 -63 91 -63z" />
    <glyph glyph-name="odieresis" unicode="&#xf6;" horiz-adv-x="523" 
d="M397 573h-77q-10 0 -10 10v87q0 10 10 10h77q10 0 10 -10v-87q0 -10 -10 -10zM201 573h-77q-10 0 -10 10v87q0 10 10 10h77q10 0 10 -10v-87q0 -10 -10 -10zM262 -11q-74 0 -126.5 35t-72.5 98q-16 49 -16 119t16 119q20 63 72.5 98t126.5 35q73 0 125.5 -35t72.5 -98
q16 -49 16 -119t-16 -119q-20 -63 -72.5 -98t-125.5 -35zM262 89q68 0 90 63q10 31 10 89q0 57 -10 89q-22 63 -90 63q-69 0 -91 -63q-10 -32 -10 -89q0 -58 10 -89q22 -63 91 -63z" />
    <glyph glyph-name="divide" unicode="&#xf7;" 
d="M274 385q-28 0 -47 19.5t-19 47.5t19 47.5t47 19.5t47.5 -19.5t19.5 -47.5t-19.5 -47.5t-47.5 -19.5zM484 227h-419q-10 0 -10 10v78q0 10 10 10h419q10 0 10 -10v-78q0 -10 -10 -10zM274 33q-28 0 -47 19.5t-19 47.5t19 47.5t47 19.5t47.5 -19.5t19.5 -47.5t-19.5 -47.5
t-47.5 -19.5z" />
    <glyph glyph-name="oslash" unicode="&#xf8;" horiz-adv-x="523" 
d="M262 -11q-72 0 -122 32l-29 -41q-7 -10 -18 -10h-39q-11 0 -5 10l52 74q-26 29 -38 68q-16 49 -16 119t16 119q20 63 72.5 98t126.5 35q69 0 121 -32l29 41q7 10 19 10h38q11 0 5 -10l-52 -75q23 -26 38 -67q16 -49 16 -119t-16 -119q-20 -63 -72.5 -98t-125.5 -35z
M159 241q0 -59 10 -90l153 225q-24 18 -60 18q-71 0 -93 -63q-10 -33 -10 -90zM262 88q70 0 92 63q10 31 10 90q0 57 -10 90l-153 -225q24 -18 61 -18z" />
    <glyph glyph-name="ugrave" unicode="&#xf9;" horiz-adv-x="544" 
d="M461 0h-92q-10 0 -10 10v35h-1q-44 -56 -125 -56q-76 0 -121 50t-45 129v304q0 10 10 10h92q10 0 10 -10v-278q0 -48 23 -76.5t67 -28.5q42 0 66 28.5t24 75.5v279q0 10 10 10h92q10 0 10 -10v-462q0 -10 -10 -10zM318 555h-67q-11 0 -20 10l-95 125q-3 4 -1.5 7t6.5 3
h91q12 0 18 -10l74 -125q5 -10 -6 -10z" />
    <glyph glyph-name="uacute" unicode="&#xfa;" horiz-adv-x="544" 
d="M296 555h-68q-11 0 -6 10l75 125q6 10 18 10h91q5 0 6.5 -3t-1.5 -7l-95 -125q-9 -10 -20 -10zM461 0h-92q-10 0 -10 10v35h-1q-44 -56 -125 -56q-76 0 -121 50t-45 129v304q0 10 10 10h92q10 0 10 -10v-278q0 -48 23 -76.5t67 -28.5q42 0 66 28.5t24 75.5v279
q0 10 10 10h92q10 0 10 -10v-462q0 -10 -10 -10z" />
    <glyph glyph-name="ucircumflex" unicode="&#xfb;" horiz-adv-x="544" 
d="M413 555h-63q-11 0 -21 10l-57 59h-2l-57 -59q-10 -10 -21 -10h-63q-5 0 -6 3t2 7l98 125q7 10 18 10h60q11 0 18 -10l98 -125q3 -4 2 -7t-6 -3zM461 0h-92q-10 0 -10 10v35h-1q-44 -56 -125 -56q-76 0 -121 50t-45 129v304q0 10 10 10h92q10 0 10 -10v-278
q0 -48 23 -76.5t67 -28.5q42 0 66 28.5t24 75.5v279q0 10 10 10h92q10 0 10 -10v-462q0 -10 -10 -10z" />
    <glyph glyph-name="udieresis" unicode="&#xfc;" horiz-adv-x="544" 
d="M407 573h-77q-10 0 -10 10v87q0 10 10 10h77q10 0 10 -10v-87q0 -10 -10 -10zM211 573h-77q-10 0 -10 10v87q0 10 10 10h77q10 0 10 -10v-87q0 -10 -10 -10zM461 0h-92q-10 0 -10 10v35h-1q-44 -56 -125 -56q-76 0 -121 50t-45 129v304q0 10 10 10h92q10 0 10 -10v-278
q0 -48 23 -76.5t67 -28.5q42 0 66 28.5t24 75.5v279q0 10 10 10h92q10 0 10 -10v-462q0 -10 -10 -10z" />
    <glyph glyph-name="yacute" unicode="&#xfd;" horiz-adv-x="485" 
d="M121 -180h-31q-10 0 -10 10v80q0 10 10 10h18q28 0 44.5 13t27.5 44l14 41l-176 454q-3 10 8 10h99q9 0 12 -10l109 -315h2l104 315q3 10 12 10h95q11 0 8 -10l-184 -502q-31 -85 -66.5 -117.5t-95.5 -32.5zM271 555h-68q-11 0 -6 10l75 125q6 10 18 10h91q5 0 6.5 -3
t-1.5 -7l-95 -125q-9 -10 -20 -10z" />
    <glyph glyph-name="thorn" unicode="&#xfe;" horiz-adv-x="545" 
d="M175 -180h-92q-10 0 -10 10v840q0 10 10 10h92q10 0 10 -10v-234h1q40 57 128 57q129 0 167 -116q17 -52 17 -136t-17 -136q-38 -116 -167 -116q-88 0 -128 57h-1v-216q0 -10 -10 -10zM285 89q69 0 89 62q10 31 10 90t-10 90q-20 62 -89 62q-70 0 -90 -62
q-10 -31 -10 -90t10 -90q20 -62 90 -62z" />
    <glyph glyph-name="ydieresis" unicode="&#xff;" horiz-adv-x="485" 
d="M121 -180h-31q-10 0 -10 10v80q0 10 10 10h18q28 0 44.5 13t27.5 44l14 41l-176 454q-3 10 8 10h99q9 0 12 -10l109 -315h2l104 315q3 10 12 10h95q11 0 8 -10l-184 -502q-31 -85 -66.5 -117.5t-95.5 -32.5zM382 573h-77q-10 0 -10 10v87q0 10 10 10h77q10 0 10 -10v-87
q0 -10 -10 -10zM186 573h-77q-10 0 -10 10v87q0 10 10 10h77q10 0 10 -10v-87q0 -10 -10 -10z" />
    <glyph glyph-name="Amacron" unicode="&#x100;" horiz-adv-x="617" 
d="M18 10l233 660q3 10 13 10h92q10 0 13 -10l230 -660q3 -10 -7 -10h-98q-10 0 -13 10l-45 132h-256l-45 -132q-3 -10 -13 -10h-97q-10 0 -7 10zM216 247h184l-90 264h-3zM439 782h-263q-10 0 -10 10v61q0 10 10 10h263q10 0 10 -10v-61q0 -10 -10 -10z" />
    <glyph glyph-name="amacron" unicode="&#x101;" horiz-adv-x="523" 
d="M444 0h-84q-10 0 -10 10v35h-1q-39 -56 -136 -56q-70 0 -116 37.5t-46 109.5q0 77 50.5 115t142.5 38h98q6 0 6 6v23q0 42 -24 61t-83 19q-68 0 -110 -33q-9 -7 -14 2l-37 66q-5 8 2 13q65 47 171 47q109 0 155 -39.5t46 -128.5v-315q0 -10 -10 -10zM241 80q107 0 107 82
v37q0 6 -6 6h-80q-104 0 -104 -65q0 -60 83 -60zM392 587h-263q-10 0 -10 10v61q0 10 10 10h263q10 0 10 -10v-61q0 -10 -10 -10z" />
    <glyph glyph-name="Abreve" unicode="&#x102;" horiz-adv-x="617" 
d="M18 10l233 660q3 10 13 10h92q10 0 13 -10l230 -660q3 -10 -7 -10h-98q-10 0 -13 10l-45 132h-256l-45 -132q-3 -10 -13 -10h-97q-10 0 -7 10zM216 247h184l-90 264h-3zM308 754q-63 0 -102 34t-43 88q0 10 9 10h49q9 0 12 -10q15 -46 75 -46t75 46q3 10 12 10h49
q9 0 9 -10q-4 -54 -43 -88t-102 -34z" />
    <glyph glyph-name="abreve" unicode="&#x103;" horiz-adv-x="523" 
d="M444 0h-84q-10 0 -10 10v35h-1q-39 -56 -136 -56q-70 0 -116 37.5t-46 109.5q0 77 50.5 115t142.5 38h98q6 0 6 6v23q0 42 -24 61t-83 19q-68 0 -110 -33q-9 -7 -14 2l-37 66q-5 8 2 13q65 47 171 47q109 0 155 -39.5t46 -128.5v-315q0 -10 -10 -10zM241 80q107 0 107 82
v37q0 6 -6 6h-80q-104 0 -104 -65q0 -60 83 -60zM261 554q-63 0 -102 33.5t-43 87.5q0 10 9 10h49q9 0 12 -10q15 -45 75 -45t75 45q3 10 12 10h49q9 0 9 -10q-4 -54 -43 -87.5t-102 -33.5z" />
    <glyph glyph-name="Aogonek" unicode="&#x104;" horiz-adv-x="617" 
d="M515 -190q-43 0 -69 23t-26 65q0 55 69 102q-5 2 -8 10l-45 132h-256l-45 -132q-3 -10 -12 -10h-97q-11 0 -8 10l233 660q3 10 13 10h92q10 0 13 -10l230 -660q2 -7 -4 -10q-45 -26 -65 -45.5t-20 -37.5q0 -26 24 -26q10 0 26 8q9 4 13 -4l24 -50q5 -8 -4 -13
q-33 -22 -78 -22zM307 511l-91 -264h184l-90 264h-3z" />
    <glyph glyph-name="aogonek" unicode="&#x105;" horiz-adv-x="523" 
d="M350 45h-1q-39 -56 -136 -56q-70 0 -116 37.5t-46 109.5q0 77 50.5 115t142.5 38h98q6 0 6 6v23q0 42 -24 61t-83 19q-68 0 -110 -33q-9 -7 -14 2l-37 66q-5 8 2 13q65 47 171 47q109 0 155 -39.5t46 -128.5v-315q0 -7 -6 -10q-47 -26 -66 -45t-19 -38q0 -26 25 -26
q9 0 25 8q9 4 13 -4l24 -50q5 -8 -4 -13q-31 -22 -78 -22q-43 0 -69 23t-26 65q0 64 77 109v38zM241 80q107 0 107 82v37q0 6 -6 6h-80q-104 0 -104 -65q0 -60 83 -60z" />
    <glyph glyph-name="Cacute" unicode="&#x106;" horiz-adv-x="575" 
d="M73 156q-18 54 -18 184t18 184q26 82 87 124.5t149 42.5q81 0 140.5 -38.5t89.5 -107.5q3 -9 -5 -12l-85 -41q-9 -5 -13 5q-40 88 -127 88q-91 0 -122 -90q-12 -37 -12 -155t12 -155q31 -90 122 -90q87 0 127 88q4 10 13 5l85 -41q8 -3 5 -12q-30 -69 -89.5 -107.5
t-140.5 -38.5q-88 0 -149 42.5t-87 124.5zM321 761h-71q-4 0 -5.5 3t1.5 7l88 107q8 10 19 10h98q5 0 7 -3t-2 -7l-117 -109q-8 -8 -18 -8z" />
    <glyph glyph-name="cacute" unicode="&#x107;" horiz-adv-x="475" 
d="M270 555h-68q-11 0 -6 10l75 125q6 10 18 10h91q5 0 6.5 -3t-1.5 -7l-95 -125q-9 -10 -20 -10zM261 -11q-73 0 -125.5 34.5t-73.5 98.5q-15 45 -15 119t15 119q21 64 73.5 98.5t125.5 34.5q105 0 167 -75q6 -8 -1 -14l-63 -55q-8 -6 -14 2q-37 42 -89 42q-69 0 -90 -63
q-10 -30 -10 -89q0 -60 10 -90q21 -62 90 -62q52 0 89 42q6 7 14 1l63 -55q6 -5 1 -14q-62 -74 -167 -74z" />
    <glyph glyph-name="Ccircumflex" unicode="&#x108;" horiz-adv-x="575" 
d="M73 156q-18 54 -18 184t18 184q26 82 87 124.5t149 42.5q81 0 140.5 -38.5t89.5 -107.5q3 -9 -5 -12l-85 -41q-9 -5 -13 5q-40 88 -127 88q-91 0 -122 -90q-12 -37 -12 -155t12 -155q31 -90 122 -90q87 0 127 88q4 10 13 5l85 -41q8 -3 5 -12q-30 -69 -89.5 -107.5
t-140.5 -38.5q-88 0 -149 42.5t-87 124.5zM450 753h-63q-11 0 -21 10l-57 59h-2l-57 -59q-10 -10 -21 -10h-63q-4 0 -5.5 3t1.5 7l98 125q7 10 18 10h60q11 0 18 -10l98 -125q3 -4 1.5 -7t-5.5 -3z" />
    <glyph glyph-name="ccircumflex" unicode="&#x109;" horiz-adv-x="475" 
d="M400 555h-63q-11 0 -21 10l-57 59h-2l-57 -59q-10 -10 -21 -10h-63q-4 0 -5.5 3t1.5 7l98 125q7 10 18 10h60q11 0 18 -10l98 -125q3 -4 1.5 -7t-5.5 -3zM261 -11q-73 0 -125.5 34.5t-73.5 98.5q-15 45 -15 119t15 119q21 64 73.5 98.5t125.5 34.5q105 0 167 -75
q6 -8 -1 -14l-63 -55q-8 -6 -14 2q-37 42 -89 42q-69 0 -90 -63q-10 -30 -10 -89q0 -60 10 -90q21 -62 90 -62q52 0 89 42q6 7 14 1l63 -55q6 -5 1 -14q-62 -74 -167 -74z" />
    <glyph glyph-name="Cdotaccent" unicode="&#x10a;" horiz-adv-x="575" 
d="M354 769h-93q-10 0 -10 10v87q0 10 10 10h93q10 0 10 -10v-87q0 -10 -10 -10zM73 156q-18 54 -18 184t18 184q26 82 87 124.5t149 42.5q81 0 140.5 -38.5t89.5 -107.5q3 -9 -5 -12l-85 -41q-9 -5 -13 5q-40 88 -127 88q-91 0 -122 -90q-12 -37 -12 -155t12 -155
q31 -90 122 -90q87 0 127 88q4 10 13 5l85 -41q8 -3 5 -12q-30 -69 -89.5 -107.5t-140.5 -38.5q-88 0 -149 42.5t-87 124.5z" />
    <glyph glyph-name="cdotaccent" unicode="&#x10b;" horiz-adv-x="475" 
d="M261 -11q-73 0 -125.5 34.5t-73.5 98.5q-15 45 -15 119t15 119q21 64 73.5 98.5t125.5 34.5q105 0 167 -75q6 -8 -1 -14l-63 -55q-8 -6 -14 2q-37 42 -89 42q-69 0 -90 -63q-10 -30 -10 -89q0 -60 10 -90q21 -62 90 -62q52 0 89 42q6 7 14 1l63 -55q6 -5 1 -14
q-62 -74 -167 -74zM304 573h-93q-10 0 -10 10v87q0 10 10 10h93q10 0 10 -10v-87q0 -10 -10 -10z" />
    <glyph glyph-name="Ccaron" unicode="&#x10c;" horiz-adv-x="575" 
d="M73 156q-18 54 -18 184t18 184q26 82 87 124.5t149 42.5q81 0 140.5 -38.5t89.5 -107.5q3 -9 -5 -12l-85 -41q-9 -5 -13 5q-40 88 -127 88q-91 0 -122 -90q-12 -37 -12 -155t12 -155q31 -90 122 -90q87 0 127 88q4 10 13 5l85 -41q8 -3 5 -12q-30 -69 -89.5 -107.5
t-140.5 -38.5q-88 0 -149 42.5t-87 124.5zM338 751h-60q-11 0 -18 10l-98 125q-3 4 -1.5 7t5.5 3h63q11 0 21 -10l57 -59h2l57 59q10 10 21 10h63q4 0 5.5 -3t-1.5 -7l-98 -125q-7 -10 -18 -10z" />
    <glyph glyph-name="ccaron" unicode="&#x10d;" horiz-adv-x="475" 
d="M288 553h-60q-11 0 -18 10l-98 125q-3 4 -1.5 7t5.5 3h63q11 0 21 -10l57 -59h2l57 59q10 10 21 10h63q4 0 5.5 -3t-1.5 -7l-98 -125q-7 -10 -18 -10zM261 -11q-73 0 -125.5 34.5t-73.5 98.5q-15 45 -15 119t15 119q21 64 73.5 98.5t125.5 34.5q105 0 167 -75
q6 -8 -1 -14l-63 -55q-8 -6 -14 2q-37 42 -89 42q-69 0 -90 -63q-10 -30 -10 -89q0 -60 10 -90q21 -62 90 -62q52 0 89 42q6 7 14 1l63 -55q6 -5 1 -14q-62 -74 -167 -74z" />
    <glyph glyph-name="Dcaron" unicode="&#x10e;" horiz-adv-x="625" 
d="M326 751h-60q-11 0 -18 10l-98 125q-3 4 -1.5 7t5.5 3h63q11 0 21 -10l57 -59h2l57 59q10 10 21 10h63q4 0 5.5 -3t-1.5 -7l-98 -125q-7 -10 -18 -10zM75 10v660q0 10 10 10h243q178 0 227 -151q17 -53 17 -189t-17 -189q-49 -151 -227 -151h-243q-10 0 -10 10zM193 112
q0 -6 6 -6h101q113 0 141 86q12 33 12 148t-12 148q-28 86 -141 86h-101q-6 0 -6 -6v-456z" />
    <glyph glyph-name="dcaron" unicode="&#x10f;" horiz-adv-x="545" 
d="M520 502q-10 0 -10 11v157q0 10 10 10h83q10 0 10 -10v-73q0 -12 -7 -19l-71 -69q-7 -7 -15 -7zM462 0h-92q-10 0 -10 10v36h-1q-40 -57 -128 -57q-129 0 -167 116q-17 52 -17 136t17 136q38 116 167 116q88 0 128 -57h1v234q0 10 10 10h92q10 0 10 -10v-660
q0 -10 -10 -10zM260 89q70 0 90 62q10 31 10 90t-10 90q-20 62 -90 62q-69 0 -89 -62q-10 -31 -10 -90t10 -90q20 -62 89 -62z" />
    <glyph glyph-name="Dcroat" unicode="&#x110;" horiz-adv-x="625" 
d="M328 0h-243q-10 0 -10 10v282q0 6 -6 6h-26q-10 0 -10 10v70q0 10 10 10h26q6 0 6 6v276q0 10 10 10h243q178 0 227 -151q17 -53 17 -189t-17 -189q-49 -151 -227 -151zM300 106q113 0 141 86q12 33 12 148t-12 148q-28 86 -141 86h-101q-6 0 -6 -6v-174q0 -6 6 -6h97
q10 0 10 -10v-70q0 -10 -10 -10h-97q-6 0 -6 -6v-180q0 -6 6 -6h101z" />
    <glyph glyph-name="dcroat" unicode="&#x111;" horiz-adv-x="545" 
d="M462 0h-92q-10 0 -10 10v36h-1q-40 -57 -128 -57q-129 0 -167 116q-17 52 -17 136t17 136q38 116 167 116q88 0 128 -57h1v105q0 6 -6 6h-110q-10 0 -10 10v66q0 10 10 10h110q6 0 6 6v31q0 10 10 10h92q10 0 10 -10v-31q0 -6 6 -6h25q10 0 10 -10v-66q0 -10 -10 -10h-25
q-6 0 -6 -6v-531q0 -10 -10 -10zM260 89q70 0 90 62q10 31 10 90t-10 90q-20 62 -90 62q-69 0 -89 -62q-10 -31 -10 -90t10 -90q20 -62 89 -62z" />
    <glyph glyph-name="Emacron" unicode="&#x112;" horiz-adv-x="570" 
d="M427 782h-263q-10 0 -10 10v61q0 10 10 10h263q10 0 10 -10v-61q0 -10 -10 -10zM75 10v660q0 10 10 10h426q10 0 10 -10v-86q0 -10 -10 -10h-312q-6 0 -6 -6v-166q0 -6 6 -6h263q10 0 10 -10v-86q0 -10 -10 -10h-263q-6 0 -6 -6v-172q0 -6 6 -6h312q10 0 10 -10v-86
q0 -10 -10 -10h-426q-10 0 -10 10z" />
    <glyph glyph-name="emacron" unicode="&#x113;" horiz-adv-x="521" 
d="M265 -11q-76 0 -128.5 35.5t-72.5 98.5q-17 53 -17 118q0 69 16 119q20 63 72.5 98t124.5 35q74 0 126 -35.5t72 -97.5q16 -49 16 -145q0 -10 -11 -10h-297q-6 0 -6 -6q0 -18 7 -37q25 -73 108 -73q71 0 113 46q8 8 15 2l59 -52q7 -6 1 -14q-70 -82 -198 -82zM361 295
q0 23 -6 41q-10 29 -35 45.5t-59 16.5q-74 0 -95 -62q-6 -18 -6 -41q0 -6 6 -6h189q6 0 6 6zM391 587h-263q-10 0 -10 10v61q0 10 10 10h263q10 0 10 -10v-61q0 -10 -10 -10z" />
    <glyph glyph-name="Ebreve" unicode="&#x114;" horiz-adv-x="570" 
d="M296 754q-63 0 -102 34t-43 88q0 10 9 10h49q9 0 12 -10q15 -46 75 -46t75 46q3 10 12 10h49q9 0 9 -10q-4 -54 -43 -88t-102 -34zM75 10v660q0 10 10 10h426q10 0 10 -10v-86q0 -10 -10 -10h-312q-6 0 -6 -6v-166q0 -6 6 -6h263q10 0 10 -10v-86q0 -10 -10 -10h-263
q-6 0 -6 -6v-172q0 -6 6 -6h312q10 0 10 -10v-86q0 -10 -10 -10h-426q-10 0 -10 10z" />
    <glyph glyph-name="ebreve" unicode="&#x115;" horiz-adv-x="521" 
d="M265 -11q-76 0 -128.5 35.5t-72.5 98.5q-17 53 -17 118q0 69 16 119q20 63 72.5 98t124.5 35q74 0 126 -35.5t72 -97.5q16 -49 16 -145q0 -10 -11 -10h-297q-6 0 -6 -6q0 -18 7 -37q25 -73 108 -73q71 0 113 46q8 8 15 2l59 -52q7 -6 1 -14q-70 -82 -198 -82zM361 295
q0 23 -6 41q-10 29 -35 45.5t-59 16.5q-74 0 -95 -62q-6 -18 -6 -41q0 -6 6 -6h189q6 0 6 6zM260 554q-63 0 -102 33.5t-43 87.5q0 10 9 10h49q9 0 12 -10q15 -45 75 -45t75 45q3 10 12 10h49q9 0 9 -10q-4 -54 -43 -87.5t-102 -33.5z" />
    <glyph glyph-name="Edotaccent" unicode="&#x116;" horiz-adv-x="570" 
d="M343 769h-93q-10 0 -10 10v87q0 10 10 10h93q10 0 10 -10v-87q0 -10 -10 -10zM75 10v660q0 10 10 10h426q10 0 10 -10v-86q0 -10 -10 -10h-312q-6 0 -6 -6v-166q0 -6 6 -6h263q10 0 10 -10v-86q0 -10 -10 -10h-263q-6 0 -6 -6v-172q0 -6 6 -6h312q10 0 10 -10v-86
q0 -10 -10 -10h-426q-10 0 -10 10z" />
    <glyph glyph-name="edotaccent" unicode="&#x117;" horiz-adv-x="521" 
d="M265 -11q-76 0 -128.5 35.5t-72.5 98.5q-17 53 -17 118q0 69 16 119q20 63 72.5 98t124.5 35q74 0 126 -35.5t72 -97.5q16 -49 16 -145q0 -10 -11 -10h-297q-6 0 -6 -6q0 -18 7 -37q25 -73 108 -73q71 0 113 46q8 8 15 2l59 -52q7 -6 1 -14q-70 -82 -198 -82zM361 295
q0 23 -6 41q-10 29 -35 45.5t-59 16.5q-74 0 -95 -62q-6 -18 -6 -41q0 -6 6 -6h189q6 0 6 6zM306 573h-93q-10 0 -10 10v87q0 10 10 10h93q10 0 10 -10v-87q0 -10 -10 -10z" />
    <glyph glyph-name="Eogonek" unicode="&#x118;" horiz-adv-x="570" 
d="M424 -190q-43 0 -69 23t-26 65q0 58 65 102h-309q-10 0 -10 10v660q0 10 10 10h426q10 0 10 -10v-86q0 -10 -10 -10h-312q-6 0 -6 -6v-166q0 -6 6 -6h263q10 0 10 -10v-86q0 -10 -10 -10h-263q-6 0 -6 -6v-172q0 -6 6 -6h312q10 0 10 -10v-86q0 -10 -10 -10h-9
q-83 -48 -83 -83q0 -26 24 -26q9 0 25 8q10 5 14 -4l24 -50q5 -8 -4 -13q-33 -22 -78 -22z" />
    <glyph glyph-name="eogonek" unicode="&#x119;" horiz-adv-x="521" 
d="M265 -11q-76 0 -128.5 35.5t-72.5 98.5q-17 53 -17 118q0 69 16 119q20 63 72.5 98t124.5 35q74 0 126 -35.5t72 -97.5q16 -49 16 -145q0 -10 -11 -10h-297q-6 0 -6 -6q0 -18 7 -37q25 -73 108 -73q71 0 113 46q8 8 15 2l59 -52q7 -6 1 -14q-21 -24 -46 -41
q-81 -74 -81 -113q0 -26 24 -26q9 0 25 8q9 4 13 -4l24 -50q5 -8 -4 -13q-31 -22 -77 -22q-44 0 -70 23t-26 65q0 44 40 91h-20zM361 295q0 23 -6 41q-10 29 -35 45.5t-59 16.5q-74 0 -95 -62q-6 -18 -6 -41q0 -6 6 -6h189q6 0 6 6z" />
    <glyph glyph-name="Ecaron" unicode="&#x11a;" horiz-adv-x="570" 
d="M327 751h-60q-11 0 -18 10l-98 125q-3 4 -2 7t6 3h63q11 0 21 -10l57 -59h2l57 59q10 10 21 10h63q5 0 6 -3t-2 -7l-98 -125q-7 -10 -18 -10zM75 10v660q0 10 10 10h426q10 0 10 -10v-86q0 -10 -10 -10h-312q-6 0 -6 -6v-166q0 -6 6 -6h263q10 0 10 -10v-86
q0 -10 -10 -10h-263q-6 0 -6 -6v-172q0 -6 6 -6h312q10 0 10 -10v-86q0 -10 -10 -10h-426q-10 0 -10 10z" />
    <glyph glyph-name="ecaron" unicode="&#x11b;" horiz-adv-x="521" 
d="M290 553h-60q-11 0 -18 10l-98 125q-3 4 -1.5 7t5.5 3h63q11 0 21 -10l57 -59h2l57 59q10 10 21 10h63q4 0 5.5 -3t-1.5 -7l-98 -125q-7 -10 -18 -10zM265 -11q-76 0 -128.5 35.5t-72.5 98.5q-17 53 -17 118q0 69 16 119q20 63 72.5 98t124.5 35q74 0 126 -35.5t72 -97.5
q16 -49 16 -145q0 -10 -11 -10h-297q-6 0 -6 -6q0 -18 7 -37q25 -73 108 -73q71 0 113 46q8 8 15 2l59 -52q7 -6 1 -14q-70 -82 -198 -82zM361 295q0 23 -6 41q-10 29 -35 45.5t-59 16.5q-74 0 -95 -62q-6 -18 -6 -41q0 -6 6 -6h189q6 0 6 6z" />
    <glyph glyph-name="Gcircumflex" unicode="&#x11c;" horiz-adv-x="627" 
d="M73 153q-18 54 -18 187t18 187q26 80 89 122t154 42q90 0 152 -41.5t85 -102.5q4 -9 -4 -14l-84 -37q-9 -3 -13 5q-47 84 -137 84q-97 0 -128 -89q-12 -38 -12 -156t12 -156q31 -89 128 -89q46 0 81 22.5t48 62.5q11 33 11 88q0 6 -6 6h-112q-10 0 -10 10v80q0 10 10 10
h225q10 0 10 -10v-59q0 -100 -16 -149q-25 -79 -88.5 -123t-151.5 -44q-91 0 -154 42t-89 122zM455 753h-63q-11 0 -21 10l-57 59h-2l-57 -59q-10 -10 -21 -10h-63q-5 0 -6 3t2 7l98 125q7 10 18 10h60q11 0 18 -10l98 -125q3 -4 2 -7t-6 -3z" />
    <glyph glyph-name="gcircumflex" unicode="&#x11d;" horiz-adv-x="536" 
d="M398 555h-63q-11 0 -21 10l-57 59h-2l-57 -59q-10 -10 -21 -10h-63q-4 0 -5.5 3t1.5 7l98 125q7 10 18 10h60q11 0 18 -10l98 -125q3 -4 1.5 -7t-5.5 -3zM238 -191q-51 0 -99.5 19.5t-75.5 52.5q-6 7 1 14l59 59q7 8 15 0q47 -45 105 -45q108 0 108 115v45h-1
q-36 -56 -125 -56q-61 0 -103 30t-61 87q-16 49 -16 123q0 73 16 122q38 118 164 118q89 0 125 -57h1v36q0 10 10 10h92q10 0 10 -10v-442q0 -105 -57.5 -163t-167.5 -58zM254 112q66 0 86 62q11 30 11 79q0 47 -11 79q-20 61 -86 61q-65 0 -85 -61q-11 -32 -11 -79
q0 -49 11 -79q20 -62 85 -62z" />
    <glyph glyph-name="Gbreve" unicode="&#x11e;" horiz-adv-x="627" 
d="M313 754q-63 0 -102 34t-43 88q0 10 9 10h49q9 0 12 -10q15 -46 75 -46t75 46q3 10 12 10h49q9 0 9 -10q-4 -54 -43 -88t-102 -34zM73 153q-18 54 -18 187t18 187q26 80 89 122t154 42q90 0 152 -41.5t85 -102.5q4 -9 -4 -14l-84 -37q-9 -3 -13 5q-47 84 -137 84
q-97 0 -128 -89q-12 -38 -12 -156t12 -156q31 -89 128 -89q46 0 81 22.5t48 62.5q11 33 11 88q0 6 -6 6h-112q-10 0 -10 10v80q0 10 10 10h225q10 0 10 -10v-59q0 -100 -16 -149q-25 -79 -88.5 -123t-151.5 -44q-91 0 -154 42t-89 122z" />
    <glyph glyph-name="gbreve" unicode="&#x11f;" horiz-adv-x="536" 
d="M238 -191q-51 0 -99.5 19.5t-75.5 52.5q-6 7 1 14l59 59q7 8 15 0q47 -45 105 -45q108 0 108 115v45h-1q-36 -56 -125 -56q-61 0 -103 30t-61 87q-16 49 -16 123q0 73 16 122q38 118 164 118q89 0 125 -57h1v36q0 10 10 10h92q10 0 10 -10v-442q0 -105 -57.5 -163
t-167.5 -58zM254 112q66 0 86 62q11 30 11 79q0 47 -11 79q-20 61 -86 61q-65 0 -85 -61q-11 -32 -11 -79q0 -49 11 -79q20 -62 85 -62zM256 554q-63 0 -102 33.5t-43 87.5q0 10 9 10h49q9 0 12 -10q15 -45 75 -45t75 45q3 10 12 10h49q9 0 9 -10q-4 -54 -43 -87.5
t-102 -33.5z" />
    <glyph glyph-name="Gdotaccent" unicode="&#x120;" horiz-adv-x="627" 
d="M359 769h-93q-10 0 -10 10v87q0 10 10 10h93q10 0 10 -10v-87q0 -10 -10 -10zM73 153q-18 54 -18 187t18 187q26 80 89 122t154 42q90 0 152 -41.5t85 -102.5q4 -9 -4 -14l-84 -37q-9 -3 -13 5q-47 84 -137 84q-97 0 -128 -89q-12 -38 -12 -156t12 -156q31 -89 128 -89
q46 0 81 22.5t48 62.5q11 33 11 88q0 6 -6 6h-112q-10 0 -10 10v80q0 10 10 10h225q10 0 10 -10v-59q0 -100 -16 -149q-25 -79 -88.5 -123t-151.5 -44q-91 0 -154 42t-89 122z" />
    <glyph glyph-name="gdotaccent" unicode="&#x121;" horiz-adv-x="536" 
d="M238 -191q-51 0 -99.5 19.5t-75.5 52.5q-6 7 1 14l59 59q7 8 15 0q47 -45 105 -45q108 0 108 115v45h-1q-36 -56 -125 -56q-61 0 -103 30t-61 87q-16 49 -16 123q0 73 16 122q38 118 164 118q89 0 125 -57h1v36q0 10 10 10h92q10 0 10 -10v-442q0 -105 -57.5 -163
t-167.5 -58zM254 112q66 0 86 62q11 30 11 79q0 47 -11 79q-20 61 -86 61q-65 0 -85 -61q-11 -32 -11 -79q0 -49 11 -79q20 -62 85 -62zM302 573h-93q-10 0 -10 10v87q0 10 10 10h93q10 0 10 -10v-87q0 -10 -10 -10z" />
    <glyph glyph-name="Gcommaaccent" unicode="&#x122;" horiz-adv-x="627" 
d="M271 -228q-10 0 -10 11v153q0 10 10 10h83q10 0 10 -10v-69q0 -12 -7 -19l-71 -69q-7 -7 -15 -7zM73 153q-18 54 -18 187t18 187q26 80 89 122t154 42q90 0 152 -41.5t85 -102.5q4 -9 -4 -14l-84 -37q-9 -3 -13 5q-47 84 -137 84q-97 0 -128 -89q-12 -38 -12 -156
t12 -156q31 -89 128 -89q46 0 81 22.5t48 62.5q11 33 11 88q0 6 -6 6h-112q-10 0 -10 10v80q0 10 10 10h225q10 0 10 -10v-59q0 -100 -16 -149q-25 -79 -88.5 -123t-151.5 -44q-91 0 -154 42t-89 122z" />
    <glyph glyph-name="gcommaaccent" unicode="&#x123;" horiz-adv-x="536" 
d="M298 572h-83q-10 0 -10 10v69q0 12 7 19l71 69q7 7 15 7q10 0 10 -11v-153q0 -10 -10 -10zM238 -191q-51 0 -99.5 19.5t-75.5 52.5q-6 7 1 14l59 59q7 8 15 0q47 -45 105 -45q108 0 108 115v45h-1q-36 -56 -125 -56q-61 0 -103 30t-61 87q-16 49 -16 123q0 73 16 122
q38 118 164 118q89 0 125 -57h1v36q0 10 10 10h92q10 0 10 -10v-442q0 -105 -57.5 -163t-167.5 -58zM254 112q66 0 86 62q11 30 11 79q0 47 -11 79q-20 61 -86 61q-65 0 -85 -61q-11 -32 -11 -79q0 -49 11 -79q20 -62 85 -62z" />
    <glyph glyph-name="Hcircumflex" unicode="&#x124;" horiz-adv-x="657" 
d="M75 10v660q0 10 10 10h98q10 0 10 -10v-268q0 -6 6 -6h259q6 0 6 6v268q0 10 10 10h98q10 0 10 -10v-660q0 -10 -10 -10h-98q-10 0 -10 10v274q0 6 -6 6h-259q-6 0 -6 -6v-274q0 -10 -10 -10h-98q-10 0 -10 10zM469 753h-63q-11 0 -21 10l-57 59h-2l-57 -59
q-10 -10 -21 -10h-63q-5 0 -6 3t2 7l98 125q7 10 18 10h60q11 0 18 -10l98 -125q3 -4 2 -7t-6 -3z" />
    <glyph glyph-name="hcircumflex" unicode="&#x125;" horiz-adv-x="548" 
d="M470 0h-92q-10 0 -10 10v278q0 48 -23.5 76.5t-67.5 28.5q-43 0 -67.5 -29t-24.5 -76v-278q0 -10 -10 -10h-92q-10 0 -10 10v660q0 10 10 10h92q10 0 10 -10v-233h1q39 56 127 56q76 0 121.5 -50t45.5 -129v-304q0 -10 -10 -10zM420 753h-63q-11 0 -21 10l-57 59h-2
l-57 -59q-10 -10 -21 -10h-63q-4 0 -5.5 3t1.5 7l98 125q7 10 18 10h60q11 0 18 -10l98 -125q3 -4 1.5 -7t-5.5 -3z" />
    <glyph glyph-name="Hbar" unicode="&#x126;" horiz-adv-x="657" 
d="M572 0h-98q-10 0 -10 10v274q0 6 -6 6h-259q-6 0 -6 -6v-274q0 -10 -10 -10h-98q-10 0 -10 10v478q0 6 -6 6h-35q-10 0 -10 10v64q0 10 10 10h35q6 0 6 6v86q0 10 10 10h98q10 0 10 -10v-86q0 -6 6 -6h259q6 0 6 6v86q0 10 10 10h98q10 0 10 -10v-86q0 -6 6 -6h35
q10 0 10 -10v-64q0 -10 -10 -10h-35q-6 0 -6 -6v-478q0 -10 -10 -10zM458 396q6 0 6 6v86q0 6 -6 6h-259q-6 0 -6 -6v-86q0 -6 6 -6h259z" />
    <glyph glyph-name="hbar" unicode="&#x127;" horiz-adv-x="548" 
d="M470 0h-92q-10 0 -10 10v278q0 48 -23.5 76.5t-67.5 28.5q-43 0 -67.5 -29t-24.5 -76v-278q0 -10 -10 -10h-92q-10 0 -10 10v531q0 6 -6 6h-25q-10 0 -10 10v66q0 10 10 10h25q6 0 6 6v31q0 10 10 10h92q10 0 10 -10v-31q0 -6 6 -6h110q10 0 10 -10v-66q0 -10 -10 -10
h-110q-6 0 -6 -6v-104h1q39 56 127 56q76 0 121.5 -50t45.5 -129v-304q0 -10 -10 -10z" />
    <glyph glyph-name="Itilde" unicode="&#x128;" horiz-adv-x="268" 
d="M75 10v660q0 10 10 10h98q10 0 10 -10v-660q0 -10 -10 -10h-98q-10 0 -10 10zM194 757q-29 0 -67 20q-33 18 -56 18q-30 0 -67 -31q-9 -7 -9 2v61q0 10 8 19q32 34 72 34q29 0 67 -20q33 -18 57 -18q29 0 66 31q9 7 9 -2v-61q0 -10 -8 -19q-32 -34 -72 -34z" />
    <glyph glyph-name="itilde" unicode="&#x129;" horiz-adv-x="258" 
d="M175 0h-92q-10 0 -10 10v462q0 10 10 10h92q10 0 10 -10v-462q0 -10 -10 -10zM189 561q-29 0 -67 20q-33 18 -56 18q-30 0 -67 -31q-9 -7 -9 2v61q0 10 8 19q32 34 72 34q29 0 67 -20q33 -18 57 -18q29 0 66 31q9 7 9 -2v-61q0 -10 -8 -19q-32 -34 -72 -34z" />
    <glyph glyph-name="Imacron" unicode="&#x12a;" horiz-adv-x="268" 
d="M75 10v660q0 10 10 10h98q10 0 10 -10v-660q0 -10 -10 -10h-98q-10 0 -10 10zM266 782h-263q-10 0 -10 10v61q0 10 10 10h263q10 0 10 -10v-61q0 -10 -10 -10z" />
    <glyph glyph-name="imacron" unicode="&#x12b;" horiz-adv-x="258" 
d="M175 0h-92q-10 0 -10 10v462q0 10 10 10h92q10 0 10 -10v-462q0 -10 -10 -10zM261 587h-263q-10 0 -10 10v61q0 10 10 10h263q10 0 10 -10v-61q0 -10 -10 -10z" />
    <glyph glyph-name="Ibreve" unicode="&#x12c;" horiz-adv-x="268" 
d="M75 10v660q0 10 10 10h98q10 0 10 -10v-660q0 -10 -10 -10h-98q-10 0 -10 10zM135 754q-63 0 -102 34t-43 88q0 10 9 10h49q9 0 12 -10q15 -46 75 -46t75 46q3 10 12 10h49q9 0 9 -10q-4 -54 -43 -88t-102 -34z" />
    <glyph glyph-name="ibreve" unicode="&#x12d;" horiz-adv-x="258" 
d="M175 0h-92q-10 0 -10 10v462q0 10 10 10h92q10 0 10 -10v-462q0 -10 -10 -10zM129 554q-63 0 -102 33.5t-43 87.5q0 10 9 10h49q9 0 12 -10q15 -45 75 -45t75 45q3 10 12 10h49q9 0 9 -10q-4 -54 -43 -87.5t-102 -33.5z" />
    <glyph glyph-name="Iogonek" unicode="&#x12e;" horiz-adv-x="268" 
d="M124 -190q-43 0 -69.5 23t-26.5 65q0 48 57 102q-10 0 -10 10v660q0 10 10 10h98q10 0 10 -10v-660q0 -6 -5 -10q-40 -31 -54.5 -48.5t-14.5 -34.5q0 -26 24 -26q11 0 25 8q9 4 13 -4l24 -50q5 -8 -3 -13q-33 -22 -78 -22z" />
    <glyph glyph-name="iogonek" unicode="&#x12f;" horiz-adv-x="258" 
d="M175 573h-92q-10 0 -10 10v87q0 10 10 10h92q10 0 10 -10v-87q0 -10 -10 -10zM119 -190q-43 0 -69.5 23t-26.5 65q0 54 55 103q-5 3 -5 9v462q0 10 10 10h92q10 0 10 -10v-462q0 -6 -5 -10q-66 -51 -66 -83q0 -26 24 -26q11 0 25 8q9 4 13 -4l25 -50q5 -8 -4 -13
q-33 -22 -78 -22z" />
    <glyph glyph-name="Idotaccent" unicode="&#x130;" horiz-adv-x="268" 
d="M75 10v660q0 10 10 10h98q10 0 10 -10v-660q0 -10 -10 -10h-98q-10 0 -10 10zM181 769h-93q-10 0 -10 10v87q0 10 10 10h93q10 0 10 -10v-87q0 -10 -10 -10z" />
    <glyph glyph-name="dotlessi" unicode="&#x131;" horiz-adv-x="258" 
d="M175 0h-92q-10 0 -10 10v462q0 10 10 10h92q10 0 10 -10v-462q0 -10 -10 -10z" />
    <glyph glyph-name="Jcircumflex" unicode="&#x134;" horiz-adv-x="507" 
d="M24 71q-5 8 2 14l73 55q8 5 15 -3q36 -42 91 -42t84 34t29 100v441q0 10 10 10h98q10 0 10 -10v-441q0 -114 -63 -177t-172 -63q-56 0 -105 23.5t-72 58.5zM517 753h-63q-11 0 -21 10l-57 59h-2l-57 -59q-10 -10 -21 -10h-63q-5 0 -6 3t2 7l98 125q7 10 18 10h60
q11 0 18 -10l98 -125q3 -4 2 -7t-6 -3z" />
    <glyph glyph-name="jcircumflex" unicode="&#x135;" horiz-adv-x="258" 
d="M23 -180h-28q-10 0 -10 10v80q0 10 10 10h22q31 0 43.5 12.5t12.5 44.5v495q0 10 10 10h92q10 0 10 -10v-493q0 -159 -162 -159zM271 555h-63q-11 0 -21 10l-57 59h-2l-57 -59q-10 -10 -21 -10h-63q-5 0 -6 3t2 7l98 125q7 10 18 10h60q11 0 18 -10l98 -125q3 -4 2 -7
t-6 -3z" />
    <glyph glyph-name="Kcommaaccent" unicode="&#x136;" horiz-adv-x="633" 
d="M277 -228q-10 0 -10 11v153q0 10 10 10h83q10 0 10 -10v-69q0 -12 -7 -19l-71 -69q-7 -7 -15 -7zM75 10v660q0 10 10 10h98q10 0 10 -10v-320l257 322q7 8 16 8h114q5 0 6.5 -4t-2.5 -9l-211 -254l235 -401q7 -12 -7 -12h-111q-10 0 -15 8l-178 314l-104 -126v-186
q0 -10 -10 -10h-98q-10 0 -10 10z" />
    <glyph glyph-name="kcommaaccent" unicode="&#x137;" horiz-adv-x="522" 
d="M226 -228q-10 0 -10 11v153q0 10 10 10h83q10 0 10 -10v-69q0 -12 -7 -19l-71 -69q-7 -7 -15 -7zM493 0h-105q-10 0 -16 10l-122 202l-65 -75v-127q0 -10 -10 -10h-92q-10 0 -10 10v660q0 10 10 10h92q10 0 10 -10v-392l165 194q9 10 19 10h102q4 0 5.5 -3.5t-1.5 -6.5
l-153 -176l176 -286q1 -2 1 -4.5t-1.5 -4t-4.5 -1.5z" />
    <glyph glyph-name="kgreenlandic" unicode="&#x138;" horiz-adv-x="522" 
d="M493 0h-105q-10 0 -16 10l-122 202l-65 -75v-127q0 -10 -10 -10h-92q-10 0 -10 10v462q0 10 10 10h92q10 0 10 -10v-194l165 194q9 10 19 10h102q4 0 5.5 -3.5t-1.5 -6.5l-153 -176l176 -286q1 -2 1 -4.5t-1.5 -4t-4.5 -1.5z" />
    <glyph glyph-name="Lacute" unicode="&#x139;" horiz-adv-x="545" 
d="M178 761h-71q-5 0 -6 3t2 7l88 107q8 10 19 10h98q5 0 6.5 -3t-1.5 -7l-117 -109q-8 -8 -18 -8zM75 10v660q0 10 10 10h98q10 0 10 -10v-558q0 -6 6 -6h312q10 0 10 -10v-86q0 -10 -10 -10h-426q-10 0 -10 10z" />
    <glyph glyph-name="lacute" unicode="&#x13a;" horiz-adv-x="291" 
d="M164 761h-71q-5 0 -6 3t2 7l88 107q8 10 19 10h98q5 0 6.5 -3t-1.5 -7l-117 -109q-8 -8 -18 -8zM247 -6h-44q-70 0 -101 33.5t-31 104.5v538q0 10 10 10h92q10 0 10 -10v-532q0 -24 10 -34t32 -10h22q10 0 10 -10v-80q0 -10 -10 -10z" />
    <glyph glyph-name="Lcommaaccent" unicode="&#x13b;" horiz-adv-x="545" 
d="M251 -228q-10 0 -10 11v153q0 10 10 10h83q10 0 10 -10v-69q0 -12 -7 -19l-71 -69q-7 -7 -15 -7zM75 10v660q0 10 10 10h98q10 0 10 -10v-558q0 -6 6 -6h312q10 0 10 -10v-86q0 -10 -10 -10h-426q-10 0 -10 10z" />
    <glyph glyph-name="lcommaaccent" unicode="&#x13c;" horiz-adv-x="291" 
d="M125 -228q-10 0 -10 11v153q0 10 10 10h83q10 0 10 -10v-69q0 -12 -7 -19l-71 -69q-7 -7 -15 -7zM247 -6h-44q-70 0 -101 33.5t-31 104.5v538q0 10 10 10h92q10 0 10 -10v-532q0 -24 10 -34t32 -10h22q10 0 10 -10v-80q0 -10 -10 -10z" />
    <glyph glyph-name="Lcaron" unicode="&#x13d;" horiz-adv-x="545" 
d="M259 502q-10 0 -10 11v157q0 10 10 10h83q10 0 10 -10v-73q0 -12 -7 -19l-71 -69q-7 -7 -15 -7zM75 10v660q0 10 10 10h98q10 0 10 -10v-558q0 -6 6 -6h312q10 0 10 -10v-86q0 -10 -10 -10h-426q-10 0 -10 10z" />
    <glyph glyph-name="lcaron" unicode="&#x13e;" horiz-adv-x="291" 
d="M231 502q-10 0 -10 11v157q0 10 10 10h83q10 0 10 -10v-73q0 -12 -7 -19l-71 -69q-7 -7 -15 -7zM247 -6h-44q-70 0 -101 33.5t-31 104.5v538q0 10 10 10h92q10 0 10 -10v-532q0 -24 10 -34t32 -10h22q10 0 10 -10v-80q0 -10 -10 -10z" />
    <glyph glyph-name="Ldot" unicode="&#x13f;" horiz-adv-x="545" 
d="M75 10v660q0 10 10 10h98q10 0 10 -10v-558q0 -6 6 -6h312q10 0 10 -10v-86q0 -10 -10 -10h-426q-10 0 -10 10zM456 265h-100q-10 0 -10 10v102q0 10 10 10h100q10 0 10 -10v-102q0 -10 -10 -10z" />
    <glyph glyph-name="ldot" unicode="&#x140;" horiz-adv-x="356" 
d="M247 -6h-44q-70 0 -101 33.5t-31 104.5v538q0 10 10 10h92q10 0 10 -10v-532q0 -24 10 -34t32 -10h22q10 0 10 -10v-80q0 -10 -10 -10zM355 279h-100q-10 0 -10 10v102q0 10 10 10h100q10 0 10 -10v-102q0 -10 -10 -10z" />
    <glyph glyph-name="Lslash" unicode="&#x141;" horiz-adv-x="545" 
d="M511 0h-426q-10 0 -10 10v249l-51 -26q-10 -5 -10 6v81q0 9 10 14l51 26v310q0 10 10 10h98q10 0 10 -10v-252l127 66q10 5 10 -6v-81q0 -9 -10 -14l-127 -66v-205q0 -6 6 -6h312q10 0 10 -10v-86q0 -10 -10 -10z" />
    <glyph glyph-name="lslash" unicode="&#x142;" horiz-adv-x="291" 
d="M247 367l-64 -33v-196q0 -24 10 -34t32 -10h22q10 0 10 -10v-80q0 -10 -10 -10h-44q-70 0 -101 33.5t-31 104.5v151l-33 -17q-10 -5 -10 6v74q0 10 10 15l33 17v292q0 10 10 10h92q10 0 10 -10v-241l64 33q10 5 10 -6v-74q0 -10 -10 -15z" />
    <glyph glyph-name="Nacute" unicode="&#x143;" horiz-adv-x="657" 
d="M338 761h-71q-5 0 -6 3t2 7l88 107q8 10 19 10h98q5 0 6.5 -3t-1.5 -7l-117 -109q-8 -8 -18 -8zM75 10v660q0 10 10 10h92q11 0 17 -10l277 -469h4v469q0 10 10 10h87q10 0 10 -10v-660q0 -10 -10 -10h-91q-11 0 -17 10l-278 468h-4v-468q0 -10 -10 -10h-87q-10 0 -10 10
z" />
    <glyph glyph-name="nacute" unicode="&#x144;" horiz-adv-x="548" 
d="M281 555h-68q-11 0 -6 10l75 125q6 10 18 10h91q5 0 6.5 -3t-1.5 -7l-95 -125q-9 -10 -20 -10zM470 0h-92q-10 0 -10 10v278q0 48 -23.5 76.5t-67.5 28.5q-43 0 -67.5 -29t-24.5 -76v-278q0 -10 -10 -10h-92q-10 0 -10 10v462q0 10 10 10h92q10 0 10 -10v-35h1
q39 56 127 56q76 0 121.5 -50t45.5 -129v-304q0 -10 -10 -10z" />
    <glyph glyph-name="Ncommaaccent" unicode="&#x145;" horiz-adv-x="657" 
d="M287 -228q-10 0 -10 11v153q0 10 10 10h83q10 0 10 -10v-69q0 -12 -7 -19l-71 -69q-7 -7 -15 -7zM75 10v660q0 10 10 10h92q11 0 17 -10l277 -469h4v469q0 10 10 10h87q10 0 10 -10v-660q0 -10 -10 -10h-91q-11 0 -17 10l-278 468h-4v-468q0 -10 -10 -10h-87
q-10 0 -10 10z" />
    <glyph glyph-name="ncommaaccent" unicode="&#x146;" horiz-adv-x="548" 
d="M233 -228q-10 0 -10 11v153q0 10 10 10h83q10 0 10 -10v-69q0 -12 -7 -19l-71 -69q-7 -7 -15 -7zM470 0h-92q-10 0 -10 10v278q0 48 -23.5 76.5t-67.5 28.5q-43 0 -67.5 -29t-24.5 -76v-278q0 -10 -10 -10h-92q-10 0 -10 10v462q0 10 10 10h92q10 0 10 -10v-35h1
q39 56 127 56q76 0 121.5 -50t45.5 -129v-304q0 -10 -10 -10z" />
    <glyph glyph-name="Ncaron" unicode="&#x147;" horiz-adv-x="657" 
d="M355 751h-60q-11 0 -18 10l-98 125q-3 4 -2 7t6 3h63q11 0 21 -10l57 -59h2l57 59q10 10 21 10h63q5 0 6 -3t-2 -7l-98 -125q-7 -10 -18 -10zM75 10v660q0 10 10 10h92q11 0 17 -10l277 -469h4v469q0 10 10 10h87q10 0 10 -10v-660q0 -10 -10 -10h-91q-11 0 -17 10
l-278 468h-4v-468q0 -10 -10 -10h-87q-10 0 -10 10z" />
    <glyph glyph-name="ncaron" unicode="&#x148;" horiz-adv-x="548" 
d="M303 553h-60q-11 0 -18 10l-98 125q-3 4 -2 7t6 3h63q11 0 21 -10l57 -59h2l57 59q10 10 21 10h63q5 0 6 -3t-2 -7l-98 -125q-7 -10 -18 -10zM470 0h-92q-10 0 -10 10v278q0 48 -23.5 76.5t-67.5 28.5q-43 0 -67.5 -29t-24.5 -76v-278q0 -10 -10 -10h-92q-10 0 -10 10
v462q0 10 10 10h92q10 0 10 -10v-35h1q39 56 127 56q76 0 121.5 -50t45.5 -129v-304q0 -10 -10 -10z" />
    <glyph glyph-name="Eng" unicode="&#x14a;" horiz-adv-x="657" 
d="M401 -180h-29q-10 0 -10 10v86q0 10 10 10h23q76 0 76 68v5l-285 479h-4v-468q0 -10 -10 -10h-87q-10 0 -10 10v660q0 10 10 10h92q12 0 17 -10l277 -469h4v469q0 10 10 10h87q10 0 10 -10v-667q0 -183 -181 -183z" />
    <glyph glyph-name="eng" unicode="&#x14b;" horiz-adv-x="548" 
d="M318 -180h-28q-10 0 -10 10v80q0 10 10 10h22q31 0 43.5 12.5t12.5 44.5v311q0 48 -23.5 76.5t-67.5 28.5q-43 0 -67.5 -29t-24.5 -76v-278q0 -10 -10 -10h-92q-10 0 -10 10v462q0 10 10 10h92q10 0 10 -10v-35h1q39 56 127 56q76 0 121.5 -50t45.5 -129v-335
q0 -159 -162 -159z" />
    <glyph glyph-name="Omacron" unicode="&#x14c;" horiz-adv-x="627" 
d="M444 782h-263q-10 0 -10 10v61q0 10 10 10h263q10 0 10 -10v-61q0 -10 -10 -10zM313 -11q-89 0 -151.5 42t-88.5 122q-18 54 -18 187t18 187q26 80 88.5 122t151.5 42q90 0 152.5 -42t88.5 -122q18 -54 18 -187t-18 -187q-26 -80 -88.5 -122t-152.5 -42zM313 95
q96 0 127 89q12 38 12 156t-12 156q-31 89 -127 89q-95 0 -126 -89q-12 -38 -12 -156t12 -156q31 -89 126 -89z" />
    <glyph glyph-name="omacron" unicode="&#x14d;" horiz-adv-x="523" 
d="M392 587h-263q-10 0 -10 10v61q0 10 10 10h263q10 0 10 -10v-61q0 -10 -10 -10zM262 -11q-74 0 -126.5 35t-72.5 98q-16 49 -16 119t16 119q20 63 72.5 98t126.5 35q73 0 125.5 -35t72.5 -98q16 -49 16 -119t-16 -119q-20 -63 -72.5 -98t-125.5 -35zM262 89q68 0 90 63
q10 31 10 89q0 57 -10 89q-22 63 -90 63q-69 0 -91 -63q-10 -32 -10 -89q0 -58 10 -89q22 -63 91 -63z" />
    <glyph glyph-name="Obreve" unicode="&#x14e;" horiz-adv-x="627" 
d="M313 754q-63 0 -102 34t-43 88q0 10 9 10h49q9 0 12 -10q15 -46 75 -46t75 46q3 10 12 10h49q9 0 9 -10q-4 -54 -43 -88t-102 -34zM313 -11q-89 0 -151.5 42t-88.5 122q-18 54 -18 187t18 187q26 80 88.5 122t151.5 42q90 0 152.5 -42t88.5 -122q18 -54 18 -187t-18 -187
q-26 -80 -88.5 -122t-152.5 -42zM313 95q96 0 127 89q12 38 12 156t-12 156q-31 89 -127 89q-95 0 -126 -89q-12 -38 -12 -156t12 -156q31 -89 126 -89z" />
    <glyph glyph-name="obreve" unicode="&#x14f;" horiz-adv-x="523" 
d="M261 554q-63 0 -102 33.5t-43 87.5q0 10 9 10h49q9 0 12 -10q15 -45 75 -45t75 45q3 10 12 10h49q9 0 9 -10q-4 -54 -43 -87.5t-102 -33.5zM262 -11q-74 0 -126.5 35t-72.5 98q-16 49 -16 119t16 119q20 63 72.5 98t126.5 35q73 0 125.5 -35t72.5 -98q16 -49 16 -119
t-16 -119q-20 -63 -72.5 -98t-125.5 -35zM262 89q68 0 90 63q10 31 10 89q0 57 -10 89q-22 63 -90 63q-69 0 -91 -63q-10 -32 -10 -89q0 -58 10 -89q22 -63 91 -63z" />
    <glyph glyph-name="Ohungarumlaut" unicode="&#x150;" horiz-adv-x="627" 
d="M313 -11q-89 0 -151.5 42t-88.5 122q-18 54 -18 187t18 187q26 80 88.5 122t151.5 42q90 0 152.5 -42t88.5 -122q18 -54 18 -187t-18 -187q-26 -80 -88.5 -122t-152.5 -42zM313 95q96 0 127 89q12 38 12 156t-12 156q-31 89 -127 89q-95 0 -126 -89q-12 -38 -12 -156
t12 -156q31 -89 126 -89zM408 763h-63q-11 0 -5 10l65 107q6 10 17 10h78q4 0 5.5 -3t-1.5 -7l-77 -107q-7 -10 -19 -10zM250 763h-63q-11 0 -5 10l65 107q6 10 17 10h78q4 0 5.5 -3t-1.5 -7l-77 -107q-7 -10 -19 -10z" />
    <glyph glyph-name="ohungarumlaut" unicode="&#x151;" horiz-adv-x="523" 
d="M369 555h-65q-11 0 -6 10l65 125q5 10 16 10h78q11 0 5 -10l-77 -125q-6 -10 -16 -10zM211 555h-65q-11 0 -6 10l65 125q5 10 16 10h78q11 0 5 -10l-77 -125q-6 -10 -16 -10zM262 -11q-74 0 -126.5 35t-72.5 98q-16 49 -16 119t16 119q20 63 72.5 98t126.5 35
q73 0 125.5 -35t72.5 -98q16 -49 16 -119t-16 -119q-20 -63 -72.5 -98t-125.5 -35zM262 89q68 0 90 63q10 31 10 89q0 57 -10 89q-22 63 -90 63q-69 0 -91 -63q-10 -32 -10 -89q0 -58 10 -89q22 -63 91 -63z" />
    <glyph glyph-name="OE" unicode="&#x152;" horiz-adv-x="947" 
d="M888 0h-426q-10 0 -10 10v27h-1q-50 -48 -138 -48q-89 0 -151.5 42t-88.5 122q-18 54 -18 187t18 187q26 80 88.5 122t151.5 42q88 0 138 -48h1v27q0 10 10 10h426q10 0 10 -10v-86q0 -10 -10 -10h-312q-6 0 -6 -6v-166q0 -6 6 -6h263q10 0 10 -10v-86q0 -10 -10 -10
h-263q-6 0 -6 -6v-172q0 -6 6 -6h312q10 0 10 -10v-86q0 -10 -10 -10zM313 95q96 0 127 89q12 38 12 156t-12 156q-31 89 -127 89q-95 0 -126 -89q-12 -38 -12 -156t12 -156q31 -89 126 -89z" />
    <glyph glyph-name="oe" unicode="&#x153;" horiz-adv-x="835" 
d="M580 -11q-105 0 -159 66h-2q-56 -66 -157 -66q-74 0 -126.5 35t-72.5 98q-16 49 -16 119t16 119q20 63 72.5 98t126.5 35q100 0 156 -63h2q52 63 155 63q73 0 125 -35.5t72 -97.5q16 -49 16 -145q0 -10 -11 -10h-297q-6 0 -6 -6q0 -18 7 -37q25 -73 108 -73q71 0 113 46
q8 8 15 2l59 -52q7 -6 1 -14q-70 -82 -197 -82zM675 295q0 23 -6 41q-10 29 -35 45.5t-59 16.5q-74 0 -95 -62q-6 -18 -6 -41q0 -6 6 -6h189q6 0 6 6zM262 89q68 0 90 63q10 31 10 89q0 57 -10 89q-22 63 -90 63q-69 0 -91 -63q-10 -32 -10 -89q0 -58 10 -89q22 -63 91 -63z
" />
    <glyph glyph-name="Racute" unicode="&#x154;" horiz-adv-x="619" 
d="M572 0h-111q-11 0 -15 10l-130 265h-117q-6 0 -6 -6v-259q0 -10 -10 -10h-98q-10 0 -10 10v660q0 10 10 10h263q94 0 155.5 -57t61.5 -146q0 -66 -35 -115.5t-94 -71.5l143 -277q3 -5 0.5 -9t-7.5 -4zM344 381q47 0 75.5 26.5t28.5 69.5q0 44 -28.5 70.5t-75.5 26.5h-145
q-6 0 -6 -6v-181q0 -6 6 -6h145zM303 761h-71q-4 0 -5.5 3t1.5 7l88 107q8 10 19 10h98q5 0 7 -3t-2 -7l-117 -109q-8 -8 -18 -8z" />
    <glyph glyph-name="racute" unicode="&#x155;" horiz-adv-x="423" 
d="M234 555h-68q-11 0 -6 10l75 125q6 10 18 10h91q5 0 6.5 -3t-1.5 -7l-95 -125q-9 -10 -20 -10zM175 0h-92q-10 0 -10 10v462q0 10 10 10h92q10 0 10 -10v-41h1q39 62 125 62q61 0 101 -40q7 -7 2 -14l-53 -67q-6 -8 -14 -2q-36 23 -71 23q-91 0 -91 -122v-261
q0 -10 -10 -10z" />
    <glyph glyph-name="Rcommaaccent" unicode="&#x156;" horiz-adv-x="619" 
d="M269 -228q-10 0 -10 11v153q0 10 10 10h83q10 0 10 -10v-69q0 -12 -7 -19l-71 -69q-7 -7 -15 -7zM572 0h-111q-11 0 -15 10l-130 265h-117q-6 0 -6 -6v-259q0 -10 -10 -10h-98q-10 0 -10 10v660q0 10 10 10h263q94 0 155.5 -57t61.5 -146q0 -66 -35 -115.5t-94 -71.5
l143 -277q3 -5 0.5 -9t-7.5 -4zM344 381q47 0 75.5 26.5t28.5 69.5q0 44 -28.5 70.5t-75.5 26.5h-145q-6 0 -6 -6v-181q0 -6 6 -6h145z" />
    <glyph glyph-name="rcommaaccent" unicode="&#x157;" horiz-adv-x="423" 
d="M88 -228q-10 0 -10 11v153q0 10 10 10h83q10 0 10 -10v-69q0 -12 -7 -19l-71 -69q-7 -7 -15 -7zM175 0h-92q-10 0 -10 10v462q0 10 10 10h92q10 0 10 -10v-41h1q39 62 125 62q61 0 101 -40q7 -7 2 -14l-53 -67q-6 -8 -14 -2q-36 23 -71 23q-91 0 -91 -122v-261
q0 -10 -10 -10z" />
    <glyph glyph-name="Rcaron" unicode="&#x158;" horiz-adv-x="619" 
d="M319 751h-60q-11 0 -18 10l-98 125q-3 4 -2 7t6 3h63q11 0 21 -10l57 -59h2l57 59q10 10 21 10h63q5 0 6 -3t-2 -7l-98 -125q-7 -10 -18 -10zM572 0h-111q-11 0 -15 10l-130 265h-117q-6 0 -6 -6v-259q0 -10 -10 -10h-98q-10 0 -10 10v660q0 10 10 10h263q94 0 155.5 -57
t61.5 -146q0 -66 -35 -115.5t-94 -71.5l143 -277q3 -5 0.5 -9t-7.5 -4zM344 381q47 0 75.5 26.5t28.5 69.5q0 44 -28.5 70.5t-75.5 26.5h-145q-6 0 -6 -6v-181q0 -6 6 -6h145z" />
    <glyph glyph-name="rcaron" unicode="&#x159;" horiz-adv-x="423" 
d="M262 553h-60q-11 0 -18 10l-98 125q-3 4 -1.5 7t5.5 3h63q11 0 21 -10l57 -59h2l57 59q10 10 21 10h63q4 0 5.5 -3t-1.5 -7l-98 -125q-7 -10 -18 -10zM175 0h-92q-10 0 -10 10v462q0 10 10 10h92q10 0 10 -10v-41h1q39 62 125 62q61 0 101 -40q7 -7 2 -14l-53 -67
q-6 -8 -14 -2q-36 23 -71 23q-91 0 -91 -122v-261q0 -10 -10 -10z" />
    <glyph glyph-name="Sacute" unicode="&#x15a;" horiz-adv-x="587" 
d="M289 -11q-73 0 -141 25.5t-109 64.5q-8 8 -2 15l62 72q7 8 14 1q91 -72 185 -72q60 0 94 27t34 71q0 39 -28 62t-96 32l-36 5q-205 28 -205 194q0 93 62.5 149t167.5 56q130 0 220 -68q7 -6 2 -14l-48 -74q-6 -8 -14 -3q-81 53 -163 53q-51 0 -79 -25t-28 -66
q0 -74 125 -92l36 -5q203 -28 203 -197q0 -94 -66.5 -152.5t-189.5 -58.5zM316 761h-71q-5 0 -6 3t2 7l88 107q8 10 19 10h98q5 0 6.5 -3t-1.5 -7l-117 -109q-8 -8 -18 -8z" />
    <glyph glyph-name="sacute" unicode="&#x15b;" horiz-adv-x="498" 
d="M266 555h-68q-11 0 -6 10l75 125q6 10 18 10h91q5 0 6.5 -3t-1.5 -7l-95 -125q-9 -10 -20 -10zM251 -11q-125 0 -207 76q-7 7 0 14l57 60q7 7 14 0q27 -24 65.5 -39.5t75.5 -15.5q43 0 66 15.5t23 41.5q0 23 -17.5 36t-62.5 17l-52 5q-148 15 -148 142q0 71 49 111.5
t138 40.5q106 0 181 -59q8 -6 2 -14l-49 -59q-6 -7 -14 -2q-57 40 -126 40q-35 0 -54 -14t-19 -36t17.5 -34.5t61.5 -16.5l52 -5q74 -7 111.5 -44t37.5 -97q0 -74 -52.5 -118.5t-149.5 -44.5z" />
    <glyph glyph-name="Scircumflex" unicode="&#x15c;" horiz-adv-x="587" 
d="M289 -11q-73 0 -141 25.5t-109 64.5q-8 8 -2 15l62 72q7 8 14 1q91 -72 185 -72q60 0 94 27t34 71q0 39 -28 62t-96 32l-36 5q-205 28 -205 194q0 93 62.5 149t167.5 56q130 0 220 -68q7 -6 2 -14l-48 -74q-6 -8 -14 -3q-81 53 -163 53q-51 0 -79 -25t-28 -66
q0 -74 125 -92l36 -5q203 -28 203 -197q0 -94 -66.5 -152.5t-189.5 -58.5zM438 753h-63q-11 0 -21 10l-57 59h-2l-57 -59q-10 -10 -21 -10h-63q-4 0 -5.5 3t1.5 7l98 125q7 10 18 10h60q11 0 18 -10l98 -125q3 -4 1.5 -7t-5.5 -3z" />
    <glyph glyph-name="scircumflex" unicode="&#x15d;" horiz-adv-x="498" 
d="M392 555h-63q-11 0 -21 10l-57 59h-2l-57 -59q-10 -10 -21 -10h-63q-4 0 -5.5 3t1.5 7l98 125q7 10 18 10h60q11 0 18 -10l98 -125q3 -4 1.5 -7t-5.5 -3zM251 -11q-125 0 -207 76q-7 7 0 14l57 60q7 7 14 0q27 -24 65.5 -39.5t75.5 -15.5q43 0 66 15.5t23 41.5
q0 23 -17.5 36t-62.5 17l-52 5q-148 15 -148 142q0 71 49 111.5t138 40.5q106 0 181 -59q8 -6 2 -14l-49 -59q-6 -7 -14 -2q-57 40 -126 40q-35 0 -54 -14t-19 -36t17.5 -34.5t61.5 -16.5l52 -5q74 -7 111.5 -44t37.5 -97q0 -74 -52.5 -118.5t-149.5 -44.5z" />
    <glyph glyph-name="Scedilla" unicode="&#x15e;" horiz-adv-x="587" 
d="M284 -155h-78q-10 0 -7 10l55 135q-63 6 -121 30.5t-94 58.5q-8 8 -2 15l62 72q7 8 14 1q91 -72 185 -72q60 0 94 27t34 71q0 39 -28 62t-96 32l-36 5q-205 28 -205 194q0 93 62.5 149t167.5 56q130 0 220 -68q7 -6 2 -14l-48 -74q-6 -8 -14 -3q-81 53 -163 53
q-51 0 -79 -25t-28 -66q0 -74 125 -92l36 -5q203 -28 203 -197q0 -83 -52 -139t-150 -69l-43 -137q-3 -10 -16 -10z" />
    <glyph glyph-name="scedilla" unicode="&#x15f;" horiz-adv-x="498" 
d="M240 -155h-78q-10 0 -7 10l55 136q-100 12 -166 74q-7 7 0 14l57 60q7 7 14 0q27 -24 65.5 -39.5t75.5 -15.5q43 0 66 15.5t23 41.5q0 23 -17.5 36t-62.5 17l-52 5q-148 15 -148 142q0 71 49 111.5t138 40.5q106 0 181 -59q8 -6 2 -14l-49 -59q-6 -7 -14 -2
q-57 40 -126 40q-35 0 -54 -14t-19 -36t17.5 -34.5t61.5 -16.5l52 -5q74 -7 111.5 -44t37.5 -97q0 -64 -40 -106.5t-114 -52.5l-43 -138q-3 -10 -16 -10z" />
    <glyph glyph-name="Scaron" unicode="&#x160;" horiz-adv-x="587" 
d="M289 -11q-73 0 -141 25.5t-109 64.5q-8 8 -2 15l62 72q7 8 14 1q91 -72 185 -72q60 0 94 27t34 71q0 39 -28 62t-96 32l-36 5q-205 28 -205 194q0 93 62.5 149t167.5 56q130 0 220 -68q7 -6 2 -14l-48 -74q-6 -8 -14 -3q-81 53 -163 53q-51 0 -79 -25t-28 -66
q0 -74 125 -92l36 -5q203 -28 203 -197q0 -94 -66.5 -152.5t-189.5 -58.5zM326 751h-60q-11 0 -18 10l-98 125q-3 4 -1.5 7t5.5 3h63q11 0 21 -10l57 -59h2l57 59q10 10 21 10h63q4 0 5.5 -3t-1.5 -7l-98 -125q-7 -10 -18 -10z" />
    <glyph glyph-name="scaron" unicode="&#x161;" horiz-adv-x="498" 
d="M280 553h-60q-11 0 -18 10l-98 125q-3 4 -1.5 7t5.5 3h63q11 0 21 -10l57 -59h2l57 59q10 10 21 10h63q4 0 5.5 -3t-1.5 -7l-98 -125q-7 -10 -18 -10zM251 -11q-125 0 -207 76q-7 7 0 14l57 60q7 7 14 0q27 -24 65.5 -39.5t75.5 -15.5q43 0 66 15.5t23 41.5
q0 23 -17.5 36t-62.5 17l-52 5q-148 15 -148 142q0 71 49 111.5t138 40.5q106 0 181 -59q8 -6 2 -14l-49 -59q-6 -7 -14 -2q-57 40 -126 40q-35 0 -54 -14t-19 -36t17.5 -34.5t61.5 -16.5l52 -5q74 -7 111.5 -44t37.5 -97q0 -74 -52.5 -118.5t-149.5 -44.5z" />
    <glyph glyph-name="Tcommaaccent" unicode="&#x162;" horiz-adv-x="550" 
d="M233 -228q-10 0 -10 11v153q0 10 10 10h83q10 0 10 -10v-69q0 -12 -7 -19l-71 -69q-7 -7 -15 -7zM324 0h-98q-10 0 -10 10v558q0 6 -6 6h-178q-10 0 -10 10v86q0 10 10 10h486q10 0 10 -10v-86q0 -10 -10 -10h-178q-6 0 -6 -6v-558q0 -10 -10 -10z" />
    <glyph glyph-name="tcommaaccent" unicode="&#x163;" horiz-adv-x="321" 
d="M139 -228q-10 0 -10 11v153q0 10 10 10h83q10 0 10 -10v-69q0 -12 -7 -19l-71 -69q-7 -7 -15 -7zM262 -6h-48q-71 0 -102.5 34.5t-31.5 106.5v254q0 6 -6 6h-32q-10 0 -10 10v67q0 10 10 10h32q6 0 6 6v132q0 10 10 10h92q10 0 10 -10v-132q0 -6 6 -6h64q10 0 10 -10v-67
q0 -10 -10 -10h-64q-6 0 -6 -6v-250q0 -25 10.5 -35t34.5 -10h25q10 0 10 -10v-80q0 -10 -10 -10z" />
    <glyph glyph-name="Tcaron" unicode="&#x164;" horiz-adv-x="550" 
d="M304 751h-60q-11 0 -18 10l-98 125q-3 4 -1.5 7t5.5 3h63q11 0 21 -10l57 -59h2l57 59q10 10 21 10h63q4 0 5.5 -3t-1.5 -7l-98 -125q-7 -10 -18 -10zM324 0h-98q-10 0 -10 10v558q0 6 -6 6h-178q-10 0 -10 10v86q0 10 10 10h486q10 0 10 -10v-86q0 -10 -10 -10h-178
q-6 0 -6 -6v-558q0 -10 -10 -10z" />
    <glyph glyph-name="tcaron" unicode="&#x165;" horiz-adv-x="321" 
d="M258 502q-10 0 -10 11v157q0 10 10 10h83q10 0 10 -10v-73q0 -12 -7 -19l-71 -69q-7 -7 -15 -7zM262 -6h-48q-71 0 -102.5 34.5t-31.5 106.5v254q0 6 -6 6h-32q-10 0 -10 10v67q0 10 10 10h32q6 0 6 6v132q0 10 10 10h92q10 0 10 -10v-132q0 -6 6 -6h64q10 0 10 -10v-67
q0 -10 -10 -10h-64q-6 0 -6 -6v-250q0 -25 10.5 -35t34.5 -10h25q10 0 10 -10v-80q0 -10 -10 -10z" />
    <glyph glyph-name="Tbar" unicode="&#x166;" horiz-adv-x="550" 
d="M324 0h-98q-10 0 -10 10v320q0 6 -6 6h-100q-10 0 -10 10v78q0 10 10 10h100q6 0 6 6v128q0 6 -6 6h-178q-10 0 -10 10v86q0 10 10 10h486q10 0 10 -10v-86q0 -10 -10 -10h-178q-6 0 -6 -6v-128q0 -6 6 -6h100q10 0 10 -10v-78q0 -10 -10 -10h-100q-6 0 -6 -6v-320
q0 -10 -10 -10z" />
    <glyph glyph-name="tbar" unicode="&#x167;" horiz-adv-x="321" 
d="M262 -6h-48q-71 0 -102.5 34.5t-31.5 106.5v108q0 6 -6 6h-22q-10 0 -10 10v61q0 10 10 10h22q6 0 6 6v53q0 6 -6 6h-32q-10 0 -10 10v67q0 10 10 10h32q6 0 6 6v132q0 10 10 10h92q10 0 10 -10v-132q0 -6 6 -6h64q10 0 10 -10v-67q0 -10 -10 -10h-64q-6 0 -6 -6v-53
q0 -6 6 -6h53q10 0 10 -10v-61q0 -10 -10 -10h-53q-6 0 -6 -6v-104q0 -25 10.5 -35t34.5 -10h25q10 0 10 -10v-80q0 -10 -10 -10z" />
    <glyph glyph-name="Utilde" unicode="&#x168;" horiz-adv-x="643" 
d="M381 757q-29 0 -67 20q-33 18 -56 18q-30 0 -67 -31q-9 -7 -9 2v61q0 10 8 19q32 34 72 34q29 0 67 -20q33 -18 57 -18q29 0 66 31q9 7 9 -2v-61q0 -10 -8 -19q-32 -34 -72 -34zM321 95q60 0 96.5 38.5t36.5 107.5v429q0 10 10 10h98q10 0 10 -10v-431q0 -116 -70 -183
t-181 -67q-110 0 -180 67t-70 183v431q0 10 10 10h98q10 0 10 -10v-429q0 -69 36.5 -107.5t95.5 -38.5z" />
    <glyph glyph-name="utilde" unicode="&#x169;" horiz-adv-x="544" 
d="M461 0h-92q-10 0 -10 10v35h-1q-44 -56 -125 -56q-76 0 -121 50t-45 129v304q0 10 10 10h92q10 0 10 -10v-278q0 -48 23 -76.5t67 -28.5q42 0 66 28.5t24 75.5v279q0 10 10 10h92q10 0 10 -10v-462q0 -10 -10 -10zM330 561q-29 0 -67 20q-33 18 -56 18q-30 0 -67 -31
q-9 -7 -9 2v61q0 10 8 19q32 34 72 34q29 0 67 -20q33 -18 57 -18q29 0 66 31q9 7 9 -2v-61q0 -10 -8 -19q-32 -34 -72 -34z" />
    <glyph glyph-name="Umacron" unicode="&#x16a;" horiz-adv-x="643" 
d="M453 782h-263q-10 0 -10 10v61q0 10 10 10h263q10 0 10 -10v-61q0 -10 -10 -10zM321 95q60 0 96.5 38.5t36.5 107.5v429q0 10 10 10h98q10 0 10 -10v-431q0 -116 -70 -183t-181 -67q-110 0 -180 67t-70 183v431q0 10 10 10h98q10 0 10 -10v-429q0 -69 36.5 -107.5
t95.5 -38.5z" />
    <glyph glyph-name="umacron" unicode="&#x16b;" horiz-adv-x="544" 
d="M461 0h-92q-10 0 -10 10v35h-1q-44 -56 -125 -56q-76 0 -121 50t-45 129v304q0 10 10 10h92q10 0 10 -10v-278q0 -48 23 -76.5t67 -28.5q42 0 66 28.5t24 75.5v279q0 10 10 10h92q10 0 10 -10v-462q0 -10 -10 -10zM402 587h-263q-10 0 -10 10v61q0 10 10 10h263
q10 0 10 -10v-61q0 -10 -10 -10z" />
    <glyph glyph-name="Ubreve" unicode="&#x16c;" horiz-adv-x="643" 
d="M321 754q-63 0 -102 34t-43 88q0 10 9 10h49q9 0 12 -10q15 -46 75 -46t75 46q3 10 12 10h49q9 0 9 -10q-4 -54 -43 -88t-102 -34zM321 95q60 0 96.5 38.5t36.5 107.5v429q0 10 10 10h98q10 0 10 -10v-431q0 -116 -70 -183t-181 -67q-110 0 -180 67t-70 183v431
q0 10 10 10h98q10 0 10 -10v-429q0 -69 36.5 -107.5t95.5 -38.5z" />
    <glyph glyph-name="ubreve" unicode="&#x16d;" horiz-adv-x="544" 
d="M461 0h-92q-10 0 -10 10v35h-1q-44 -56 -125 -56q-76 0 -121 50t-45 129v304q0 10 10 10h92q10 0 10 -10v-278q0 -48 23 -76.5t67 -28.5q42 0 66 28.5t24 75.5v279q0 10 10 10h92q10 0 10 -10v-462q0 -10 -10 -10zM271 554q-63 0 -102 33.5t-43 87.5q0 10 9 10h49
q9 0 12 -10q15 -45 75 -45t75 45q3 10 12 10h49q9 0 9 -10q-4 -54 -43 -87.5t-102 -33.5z" />
    <glyph glyph-name="Uring" unicode="&#x16e;" horiz-adv-x="643" 
d="M321 95q60 0 96.5 38.5t36.5 107.5v429q0 10 10 10h98q10 0 10 -10v-431q0 -116 -70 -183t-181 -67q-110 0 -180 67t-70 183v431q0 10 10 10h98q10 0 10 -10v-429q0 -69 36.5 -107.5t95.5 -38.5zM321 721q-43 0 -71 28t-28 71t28 71.5t71 28.5t71 -28.5t28 -71.5t-28 -71
t-71 -28zM321 769q21 0 35 14.5t14 36.5t-14 36.5t-35 14.5t-35 -14.5t-14 -36.5t14 -36.5t35 -14.5z" />
    <glyph glyph-name="uring" unicode="&#x16f;" horiz-adv-x="544" 
d="M271 529q-43 0 -71 28.5t-28 71.5t28 71.5t71 28.5t71 -28.5t28 -71.5t-28 -71.5t-71 -28.5zM271 578q21 0 35 14.5t14 36.5t-14 36.5t-35 14.5t-35 -14.5t-14 -36.5t14 -36.5t35 -14.5zM461 0h-92q-10 0 -10 10v35h-1q-44 -56 -125 -56q-76 0 -121 50t-45 129v304
q0 10 10 10h92q10 0 10 -10v-278q0 -48 23 -76.5t67 -28.5q42 0 66 28.5t24 75.5v279q0 10 10 10h92q10 0 10 -10v-462q0 -10 -10 -10z" />
    <glyph glyph-name="Uhungarumlaut" unicode="&#x170;" horiz-adv-x="643" 
d="M321 95q60 0 96.5 38.5t36.5 107.5v429q0 10 10 10h98q10 0 10 -10v-431q0 -116 -70 -183t-181 -67q-110 0 -180 67t-70 183v431q0 10 10 10h98q10 0 10 -10v-429q0 -69 36.5 -107.5t95.5 -38.5zM424 763h-63q-11 0 -5 10l65 107q6 10 17 10h78q4 0 5.5 -3t-1.5 -7
l-77 -107q-7 -10 -19 -10zM266 763h-63q-11 0 -5 10l65 107q6 10 17 10h78q4 0 5.5 -3t-1.5 -7l-77 -107q-7 -10 -19 -10z" />
    <glyph glyph-name="uhungarumlaut" unicode="&#x171;" horiz-adv-x="544" 
d="M461 0h-92q-10 0 -10 10v35h-1q-44 -56 -125 -56q-76 0 -121 50t-45 129v304q0 10 10 10h92q10 0 10 -10v-278q0 -48 23 -76.5t67 -28.5q42 0 66 28.5t24 75.5v279q0 10 10 10h92q10 0 10 -10v-462q0 -10 -10 -10zM378 555h-65q-11 0 -6 10l65 125q5 10 16 10h78
q11 0 5 -10l-77 -125q-6 -10 -16 -10zM220 555h-65q-11 0 -6 10l65 125q5 10 16 10h78q11 0 5 -10l-77 -125q-6 -10 -16 -10z" />
    <glyph glyph-name="Uogonek" unicode="&#x172;" horiz-adv-x="643" 
d="M333 -190q-44 0 -70 23t-26 65q0 41 44 93q-96 11 -153 77t-57 171v431q0 10 10 10h98q10 0 10 -10v-429q0 -69 36.5 -107.5t95.5 -38.5q60 0 96.5 38.5t36.5 107.5v429q0 10 10 10h98q10 0 10 -10v-431q0 -98 -51.5 -161t-135.5 -83q-57 -47 -57 -78q0 -26 24 -26
q9 0 25 8q9 4 13 -4l24 -50q5 -8 -4 -13q-31 -22 -77 -22z" />
    <glyph glyph-name="uogonek" unicode="&#x173;" horiz-adv-x="544" 
d="M387 -190q-43 0 -69 23t-26 65q0 31 16 54.5t53 50.5q-2 2 -2 7v35h-1q-44 -56 -125 -56q-76 0 -121 50t-45 129v304q0 10 10 10h92q10 0 10 -10v-278q0 -48 23 -76.5t67 -28.5q42 0 66 28.5t24 75.5v279q0 10 10 10h92q10 0 10 -10v-462q0 -7 -5 -10q-84 -50 -84 -83
q0 -26 26 -26q8 0 24 8q9 4 13 -4l24 -50q5 -8 -4 -13q-31 -22 -78 -22z" />
    <glyph glyph-name="Wcircumflex" unicode="&#x174;" horiz-adv-x="827" 
d="M633 0h-76q-9 0 -12 10l-130 465h-2l-131 -465q-3 -10 -12 -10h-75q-9 0 -12 10l-167 660q-2 10 8 10h94q10 0 12 -10l108 -458h2l127 458q3 10 12 10h70q9 0 12 -10l130 -458h2l105 458q1 10 12 10h93q10 0 8 -10l-166 -660q-2 -10 -12 -10zM555 753h-63q-11 0 -21 10
l-57 59h-2l-57 -59q-10 -10 -21 -10h-63q-5 0 -6 3t2 7l98 125q7 10 18 10h60q11 0 18 -10l98 -125q3 -4 2 -7t-6 -3z" />
    <glyph glyph-name="wcircumflex" unicode="&#x175;" horiz-adv-x="753" 
d="M518 555h-63q-11 0 -21 10l-57 59h-2l-57 -59q-10 -10 -21 -10h-63q-4 0 -5.5 3t1.5 7l98 125q7 10 18 10h60q11 0 18 -10l98 -125q3 -4 1.5 -7t-5.5 -3zM565 0h-82q-9 0 -12 10l-93 308h-2l-94 -308q-3 -10 -12 -10h-82q-9 0 -12 10l-152 462q-3 10 7 10h96q10 0 13 -10
l93 -318h2l92 318q3 10 13 10h72q10 0 13 -10l98 -318h2l88 318q3 10 13 10h96q10 0 7 -10l-152 -462q-3 -10 -12 -10z" />
    <glyph glyph-name="Ycircumflex" unicode="&#x176;" horiz-adv-x="536" 
d="M317 0h-98q-10 0 -10 10v268l-197 392q-4 10 8 10h101q10 0 14 -10l133 -264h3l134 264q4 10 14 10h97q12 0 8 -10l-197 -392v-268q0 -10 -10 -10zM409 753h-63q-11 0 -21 10l-57 59h-2l-57 -59q-10 -10 -21 -10h-63q-5 0 -6 3t2 7l98 125q7 10 18 10h60q11 0 18 -10
l98 -125q3 -4 2 -7t-6 -3z" />
    <glyph glyph-name="ycircumflex" unicode="&#x177;" horiz-adv-x="485" 
d="M121 -180h-31q-10 0 -10 10v80q0 10 10 10h18q28 0 44.5 13t27.5 44l14 41l-176 454q-3 10 8 10h99q9 0 12 -10l109 -315h2l104 315q3 10 12 10h95q11 0 8 -10l-184 -502q-31 -85 -66.5 -117.5t-95.5 -32.5zM388 555h-63q-11 0 -21 10l-57 59h-2l-57 -59q-10 -10 -21 -10
h-63q-4 0 -5.5 3t1.5 7l98 125q7 10 18 10h60q11 0 18 -10l98 -125q3 -4 1.5 -7t-5.5 -3z" />
    <glyph glyph-name="Ydieresis" unicode="&#x178;" horiz-adv-x="536" 
d="M317 0h-98q-10 0 -10 10v268l-197 392q-4 10 8 10h101q10 0 14 -10l133 -264h3l134 264q4 10 14 10h97q12 0 8 -10l-197 -392v-268q0 -10 -10 -10zM404 769h-73q-10 0 -10 10v87q0 10 10 10h73q10 0 10 -10v-87q0 -10 -10 -10zM204 769h-73q-10 0 -10 10v87q0 10 10 10
h73q10 0 10 -10v-87q0 -10 -10 -10z" />
    <glyph glyph-name="Zacute" unicode="&#x179;" horiz-adv-x="532" 
d="M478 0h-423q-10 0 -10 10v86q0 5 3 11l307 465v2h-289q-10 0 -10 10v86q0 10 10 10h412q10 0 10 -10v-86q0 -6 -3 -10l-307 -466v-2h300q10 0 10 -10v-86q0 -10 -10 -10zM281 761h-71q-4 0 -5.5 3t1.5 7l88 107q8 10 19 10h98q5 0 7 -3t-2 -7l-117 -109q-8 -8 -18 -8z
" />
    <glyph glyph-name="zacute" unicode="&#x17a;" horiz-adv-x="485" 
d="M265 555h-68q-11 0 -6 10l75 125q6 10 18 10h91q5 0 6.5 -3t-1.5 -7l-95 -125q-9 -10 -20 -10zM423 0h-361q-10 0 -10 10v73q0 5 3 10l246 289v2h-226q-10 0 -10 10v78q0 10 10 10h348q10 0 10 -10v-78q0 -6 -3 -10l-243 -284v-2h236q10 0 10 -10v-78q0 -10 -10 -10z" />
    <glyph glyph-name="Zdotaccent" unicode="&#x17b;" horiz-adv-x="532" 
d="M312 769h-93q-10 0 -10 10v87q0 10 10 10h93q10 0 10 -10v-87q0 -10 -10 -10zM478 0h-423q-10 0 -10 10v86q0 5 3 11l307 465v2h-289q-10 0 -10 10v86q0 10 10 10h412q10 0 10 -10v-86q0 -6 -3 -10l-307 -466v-2h300q10 0 10 -10v-86q0 -10 -10 -10z" />
    <glyph glyph-name="zdotaccent" unicode="&#x17c;" horiz-adv-x="485" 
d="M423 0h-361q-10 0 -10 10v73q0 5 3 10l246 289v2h-226q-10 0 -10 10v78q0 10 10 10h348q10 0 10 -10v-78q0 -6 -3 -10l-243 -284v-2h236q10 0 10 -10v-78q0 -10 -10 -10zM292 573h-93q-10 0 -10 10v87q0 10 10 10h93q10 0 10 -10v-87q0 -10 -10 -10z" />
    <glyph glyph-name="Zcaron" unicode="&#x17d;" horiz-adv-x="532" 
d="M296 751h-60q-11 0 -18 10l-98 125q-3 4 -1.5 7t5.5 3h63q11 0 21 -10l57 -59h2l57 59q10 10 21 10h63q4 0 5.5 -3t-1.5 -7l-98 -125q-7 -10 -18 -10zM478 0h-423q-10 0 -10 10v86q0 5 3 11l307 465v2h-289q-10 0 -10 10v86q0 10 10 10h412q10 0 10 -10v-86q0 -6 -3 -10
l-307 -466v-2h300q10 0 10 -10v-86q0 -10 -10 -10z" />
    <glyph glyph-name="zcaron" unicode="&#x17e;" horiz-adv-x="485" 
d="M275 553h-60q-11 0 -18 10l-98 125q-3 4 -2 7t6 3h63q11 0 21 -10l57 -59h2l57 59q10 10 21 10h63q5 0 6 -3t-2 -7l-98 -125q-7 -10 -18 -10zM423 0h-361q-10 0 -10 10v73q0 5 3 10l246 289v2h-226q-10 0 -10 10v78q0 10 10 10h348q10 0 10 -10v-78q0 -6 -3 -10
l-243 -284v-2h236q10 0 10 -10v-78q0 -10 -10 -10z" />
    <glyph glyph-name="florin" unicode="&#x192;" 
d="M439 324h-100l-52 -342q-14 -88 -53 -125t-118 -37h-28q-10 0 -10 10v77q0 10 10 10h17q36 0 52 12.5t22 50.5l52 344h-65q-10 0 -10 10v65q0 10 10 10h78l18 113q13 82 52 120t117 38h30q10 0 10 -10v-77q0 -10 -10 -10h-20q-32 0 -49 -14t-22 -47l-18 -113h87
q10 0 10 -10v-65q0 -10 -10 -10z" />
    <glyph glyph-name="Aringacute" unicode="&#x1fa;" horiz-adv-x="617" 
d="M334 773h-68q-4 0 -5.5 3t1.5 7l91 95q10 10 23 10h96q5 0 6 -3.5t-3 -6.5l-119 -97q-11 -8 -22 -8zM591 0h-97q-10 0 -13 10l-45 132h-256l-45 -132q-3 -10 -12 -10h-97q-11 0 -8 10l200 565q2 7 9 9q-17 25 -17 59q0 43 28.5 71.5t70.5 28.5q43 0 71.5 -28.5
t28.5 -71.5q0 -32 -18 -58q7 -1 10 -10l198 -565q3 -10 -8 -10zM309 592q22 0 36 14.5t14 36.5t-14 36.5t-36 14.5q-21 0 -35 -14.5t-14 -36.5t14 -36.5t35 -14.5zM307 511l-91 -264h184l-90 264h-3z" />
    <glyph glyph-name="aringacute" unicode="&#x1fb;" horiz-adv-x="523" 
d="M304 766h-72q-4 0 -5.5 3t1.5 7l84 102q8 10 19 10h98q5 0 7 -3t-2 -7l-112 -104q-8 -8 -18 -8zM444 0h-84q-10 0 -10 10v35h-1q-39 -56 -136 -56q-70 0 -116 37.5t-46 109.5q0 77 50.5 115t142.5 38h98q6 0 6 6v23q0 42 -24 61t-83 19q-68 0 -110 -33q-9 -7 -14 2
l-37 66q-5 8 2 13q65 47 171 47q109 0 155 -39.5t46 -128.5v-315q0 -10 -10 -10zM241 80q107 0 107 82v37q0 6 -6 6h-80q-104 0 -104 -65q0 -60 83 -60zM266 529q-43 0 -71 28.5t-28 71.5t28 71.5t71 28.5t71 -28.5t28 -71.5t-28 -71.5t-71 -28.5zM266 578q21 0 35 14.5
t14 36.5t-14 36.5t-35 14.5t-35 -14.5t-14 -36.5t14 -36.5t35 -14.5z" />
    <glyph glyph-name="AEacute" unicode="&#x1fc;" horiz-adv-x="926" 
d="M502 761h-71q-5 0 -6 3t2 7l88 107q8 10 19 10h98q5 0 6.5 -3t-1.5 -7l-117 -109q-8 -8 -18 -8zM867 0h-426q-10 0 -10 10v126q0 6 -6 6h-209l-65 -132q-4 -10 -13 -10h-112q-12 0 -7 10l334 660q5 10 14 10h500q10 0 10 -10v-86q0 -10 -10 -10h-312q-6 0 -6 -6v-166
q0 -6 6 -6h263q10 0 10 -10v-86q0 -10 -10 -10h-263q-6 0 -6 -6v-172q0 -6 6 -6h312q10 0 10 -10v-86q0 -10 -10 -10zM429 574l-161 -327h157q6 0 6 6v321h-2z" />
    <glyph glyph-name="aeacute" unicode="&#x1fd;" horiz-adv-x="814" 
d="M439 555h-68q-11 0 -6 10l75 125q6 10 18 10h91q5 0 6.5 -3t-1.5 -7l-95 -125q-9 -10 -20 -10zM560 -11q-114 0 -167 76h-1q-43 -76 -179 -76q-70 0 -116 37.5t-46 109.5q0 77 50.5 115t142.5 38h98q6 0 6 6v23q0 42 -24 61t-83 19q-68 0 -110 -33q-9 -7 -14 2l-37 66
q-5 8 2 13q65 47 171 47q119 0 161 -50h2q50 50 139 50q73 0 125 -35.5t72 -97.5q16 -49 16 -145q0 -10 -11 -10h-297q-6 0 -6 -6q0 -18 7 -37q25 -73 108 -73q71 0 113 46q8 8 15 2l59 -52q7 -6 1 -14q-70 -82 -197 -82zM655 295q0 23 -6 41q-10 29 -35 45.5t-59 16.5
q-74 0 -95 -62q-6 -18 -6 -41q0 -6 6 -6h189q6 0 6 6zM241 80q107 0 107 82v37q0 6 -6 6h-80q-104 0 -104 -65q0 -60 83 -60z" />
    <glyph glyph-name="Oslashacute" unicode="&#x1fe;" horiz-adv-x="627" 
d="M124 -30h-63q-11 0 -5 10l57 96q-28 36 -40 77q-18 54 -18 187t18 187q26 80 88.5 122t151.5 42q85 0 146 -38l29 48q5 9 15 9h63q11 0 5 -10l-58 -96q26 -34 41 -77q18 -54 18 -187t-18 -187q-26 -80 -88.5 -122t-152.5 -42q-85 0 -146 38l-28 -48q-5 -9 -15 -9z
M174 340q0 -115 10 -151l216 368q-34 28 -87 28q-96 0 -127 -89q-12 -38 -12 -156zM313 95q97 0 128 89q12 38 12 156q0 107 -10 149l-216 -367q33 -27 86 -27zM332 761h-71q-5 0 -6 3t2 7l88 107q8 10 19 10h98q5 0 6.5 -3t-1.5 -7l-117 -109q-8 -8 -18 -8z" />
    <glyph glyph-name="oslashacute" unicode="&#x1ff;" horiz-adv-x="523" 
d="M262 -11q-72 0 -122 32l-29 -41q-7 -10 -18 -10h-39q-11 0 -5 10l52 74q-26 29 -38 68q-16 49 -16 119t16 119q20 63 72.5 98t126.5 35q69 0 121 -32l29 41q7 10 19 10h38q11 0 5 -10l-52 -75q23 -26 38 -67q16 -49 16 -119t-16 -119q-20 -63 -72.5 -98t-125.5 -35z
M159 241q0 -59 10 -90l153 225q-24 18 -60 18q-71 0 -93 -63q-10 -33 -10 -90zM262 88q70 0 92 63q10 31 10 90q0 57 -10 90l-153 -225q24 -18 61 -18zM284 555h-68q-11 0 -6 10l75 125q6 10 18 10h91q5 0 6.5 -3t-1.5 -7l-95 -125q-9 -10 -20 -10z" />
    <glyph glyph-name="Scommaaccent" unicode="&#x218;" horiz-adv-x="587" 
d="M251 -228q-10 0 -10 11v153q0 10 10 10h83q10 0 10 -10v-69q0 -12 -7 -19l-71 -69q-7 -7 -15 -7zM289 -11q-73 0 -141 25.5t-109 64.5q-8 8 -2 15l62 72q7 8 14 1q91 -72 185 -72q60 0 94 27t34 71q0 39 -28 62t-96 32l-36 5q-205 28 -205 194q0 93 62.5 149t167.5 56
q130 0 220 -68q7 -6 2 -14l-48 -74q-6 -8 -14 -3q-81 53 -163 53q-51 0 -79 -25t-28 -66q0 -74 125 -92l36 -5q203 -28 203 -197q0 -94 -66.5 -152.5t-189.5 -58.5z" />
    <glyph glyph-name="scommaaccent" unicode="&#x219;" horiz-adv-x="498" 
d="M207 -228q-10 0 -10 11v153q0 10 10 10h83q10 0 10 -10v-69q0 -12 -7 -19l-71 -69q-7 -7 -15 -7zM251 -11q-125 0 -207 76q-7 7 0 14l57 60q7 7 14 0q27 -24 65.5 -39.5t75.5 -15.5q43 0 66 15.5t23 41.5q0 23 -17.5 36t-62.5 17l-52 5q-148 15 -148 142q0 71 49 111.5
t138 40.5q106 0 181 -59q8 -6 2 -14l-49 -59q-6 -7 -14 -2q-57 40 -126 40q-35 0 -54 -14t-19 -36t17.5 -34.5t61.5 -16.5l52 -5q74 -7 111.5 -44t37.5 -97q0 -74 -52.5 -118.5t-149.5 -44.5z" />
    <glyph glyph-name="uni021A" unicode="&#x21a;" horiz-adv-x="550" 
d="M233 -228q-10 0 -10 11v153q0 10 10 10h83q10 0 10 -10v-69q0 -12 -7 -19l-71 -69q-7 -7 -15 -7zM324 0h-98q-10 0 -10 10v558q0 6 -6 6h-178q-10 0 -10 10v86q0 10 10 10h486q10 0 10 -10v-86q0 -10 -10 -10h-178q-6 0 -6 -6v-558q0 -10 -10 -10z" />
    <glyph glyph-name="uni021B" unicode="&#x21b;" horiz-adv-x="321" 
d="M139 -228q-10 0 -10 11v153q0 10 10 10h83q10 0 10 -10v-69q0 -12 -7 -19l-71 -69q-7 -7 -15 -7zM262 -6h-48q-71 0 -102.5 34.5t-31.5 106.5v254q0 6 -6 6h-32q-10 0 -10 10v67q0 10 10 10h32q6 0 6 6v132q0 10 10 10h92q10 0 10 -10v-132q0 -6 6 -6h64q10 0 10 -10v-67
q0 -10 -10 -10h-64q-6 0 -6 -6v-250q0 -25 10.5 -35t34.5 -10h25q10 0 10 -10v-80q0 -10 -10 -10z" />
    <glyph glyph-name="dotlessj" unicode="&#x237;" horiz-adv-x="258" 
d="M23 -180h-28q-10 0 -10 10v80q0 10 10 10h22q31 0 43.5 12.5t12.5 44.5v495q0 10 10 10h92q10 0 10 -10v-493q0 -159 -162 -159z" />
    <glyph glyph-name="circumflex" unicode="&#x2c6;" horiz-adv-x="422" 
d="M353 555h-63q-11 0 -21 10l-57 59h-2l-57 -59q-10 -10 -21 -10h-63q-5 0 -6 3t2 7l98 125q7 10 18 10h60q11 0 18 -10l98 -125q3 -4 2 -7t-6 -3z" />
    <glyph glyph-name="caron" unicode="&#x2c7;" horiz-adv-x="422" 
d="M241 553h-60q-11 0 -18 10l-98 125q-3 4 -2 7t6 3h63q11 0 21 -10l57 -59h2l57 59q10 10 21 10h63q5 0 6 -3t-2 -7l-98 -125q-7 -10 -18 -10z" />
    <glyph glyph-name="uni02C9" unicode="&#x2c9;" horiz-adv-x="422" 
d="M342 782h-263q-10 0 -10 10v61q0 10 10 10h263q10 0 10 -10v-61q0 -10 -10 -10z" />
    <glyph glyph-name="breve" unicode="&#x2d8;" horiz-adv-x="422" 
d="M211 554q-63 0 -102 33.5t-43 87.5q0 10 9 10h49q9 0 12 -10q15 -45 75 -45t75 45q3 10 12 10h49q9 0 9 -10q-4 -54 -43 -87.5t-102 -33.5z" />
    <glyph glyph-name="dotaccent" unicode="&#x2d9;" horiz-adv-x="422" 
d="M257 573h-93q-10 0 -10 10v87q0 10 10 10h93q10 0 10 -10v-87q0 -10 -10 -10z" />
    <glyph glyph-name="ring" unicode="&#x2da;" horiz-adv-x="422" 
d="M211 529q-43 0 -71 28.5t-28 71.5t28 71.5t71 28.5t71 -28.5t28 -71.5t-28 -71.5t-71 -28.5zM211 578q21 0 35 14.5t14 36.5t-14 36.5t-35 14.5t-35 -14.5t-14 -36.5t14 -36.5t35 -14.5z" />
    <glyph glyph-name="ogonek" unicode="&#x2db;" horiz-adv-x="422" 
d="M200 -190q-44 0 -70 23t-26 65q0 57 66 102q14 10 25 10h81q5 0 5.5 -4t-3.5 -6q-83 -48 -83 -83q0 -26 24 -26q9 0 25 8q9 4 13 -4l24 -50q5 -8 -4 -13q-31 -22 -77 -22z" />
    <glyph glyph-name="tilde" unicode="&#x2dc;" horiz-adv-x="422" 
d="M268 561q-29 0 -67 20q-33 18 -56 18q-30 0 -67 -31q-9 -7 -9 2v61q0 10 8 19q32 34 72 34q29 0 67 -20q33 -18 57 -18q29 0 66 31q9 7 9 -2v-61q0 -10 -8 -19q-32 -34 -72 -34z" />
    <glyph glyph-name="hungarumlaut" unicode="&#x2dd;" horiz-adv-x="422" 
d="M284 555h-65q-11 0 -6 10l65 125q5 10 16 10h78q11 0 5 -10l-77 -125q-6 -10 -16 -10zM126 555h-65q-11 0 -6 10l65 125q5 10 16 10h78q11 0 5 -10l-77 -125q-6 -10 -16 -10z" />
    <glyph glyph-name="Delta" unicode="&#x394;" horiz-adv-x="617" 
d="M591 0h-565q-11 0 -8 10l233 660q3 10 13 10h92q10 0 13 -10l230 -660q3 -10 -8 -10zM446 95q6 0 5 6l-141 410h-3l-142 -410q-1 -6 5 -6h276z" />
    <glyph glyph-name="Delta" unicode="&#x2206;" horiz-adv-x="617" 
d="M591 0h-565q-11 0 -8 10l233 660q3 10 13 10h92q10 0 13 -10l230 -660q3 -10 -8 -10zM446 95q6 0 5 6l-141 410h-3l-142 -410q-1 -6 5 -6h276z" />
    <glyph glyph-name="Omega" unicode="&#x3a9;" horiz-adv-x="638" 
d="M573 0h-202q-10 0 -10 10v85q0 10 10 13q91 27 91 232q0 112 -14 156q-29 89 -129 89t-129 -89q-14 -44 -14 -156q0 -205 91 -232q10 -3 10 -13v-85q0 -10 -10 -10h-202q-10 0 -10 10v86q0 10 10 10h66v2q-40 31 -57.5 81.5t-17.5 150.5q0 126 19 184q26 82 90.5 124.5
t153.5 42.5t153.5 -42.5t90.5 -124.5q19 -58 19 -184q0 -100 -17.5 -150.5t-57.5 -81.5v-2h66q10 0 10 -10v-86q0 -10 -10 -10z" />
    <glyph glyph-name="Omega" unicode="&#x2126;" horiz-adv-x="638" 
d="M573 0h-202q-10 0 -10 10v85q0 10 10 13q91 27 91 232q0 112 -14 156q-29 89 -129 89t-129 -89q-14 -44 -14 -156q0 -205 91 -232q10 -3 10 -13v-85q0 -10 -10 -10h-202q-10 0 -10 10v86q0 10 10 10h66v2q-40 31 -57.5 81.5t-17.5 150.5q0 126 19 184q26 82 90.5 124.5
t153.5 42.5t153.5 -42.5t90.5 -124.5q19 -58 19 -184q0 -100 -17.5 -150.5t-57.5 -81.5v-2h66q10 0 10 -10v-86q0 -10 -10 -10z" />
    <glyph glyph-name="pi" unicode="&#x3c0;" horiz-adv-x="593" 
d="M526 -6h-22q-68 0 -97.5 33.5t-29.5 103.5v245q0 6 -6 6h-151q-6 0 -6 -6v-366q0 -10 -10 -10h-92q-10 0 -10 10v366q0 6 -6 6h-45q-10 0 -10 10v80q0 10 10 10h489q10 0 10 -10v-80q0 -10 -10 -10h-45q-6 0 -6 -6v-242q0 -22 7.5 -31t25.5 -9h4q10 0 10 -10v-80
q0 -10 -10 -10z" />
    <glyph glyph-name="Wgrave" unicode="&#x1e80;" horiz-adv-x="827" 
d="M446 761h-72q-10 0 -18 8l-116 109q-4 4 -2.5 7t6.5 3h98q11 0 19 -10l89 -107q3 -4 1.5 -7t-5.5 -3zM633 0h-76q-9 0 -12 10l-130 465h-2l-131 -465q-3 -10 -12 -10h-75q-9 0 -12 10l-167 660q-2 10 8 10h94q10 0 12 -10l108 -458h2l127 458q3 10 12 10h70q9 0 12 -10
l130 -458h2l105 458q1 10 12 10h93q10 0 8 -10l-166 -660q-2 -10 -12 -10z" />
    <glyph glyph-name="wgrave" unicode="&#x1e81;" horiz-adv-x="753" 
d="M565 0h-82q-9 0 -12 10l-93 308h-2l-94 -308q-3 -10 -12 -10h-82q-9 0 -12 10l-152 462q-3 10 7 10h96q10 0 13 -10l93 -318h2l92 318q3 10 13 10h72q10 0 13 -10l98 -318h2l88 318q3 10 13 10h96q10 0 7 -10l-152 -462q-3 -10 -12 -10zM410 555h-67q-11 0 -20 10
l-95 125q-3 4 -1.5 7t6.5 3h91q12 0 18 -10l74 -125q5 -10 -6 -10z" />
    <glyph glyph-name="Wacute" unicode="&#x1e82;" horiz-adv-x="827" 
d="M455 761h-71q-4 0 -5.5 3t1.5 7l88 107q8 10 19 10h98q5 0 7 -3t-2 -7l-117 -109q-8 -8 -18 -8zM633 0h-76q-9 0 -12 10l-130 465h-2l-131 -465q-3 -10 -12 -10h-75q-9 0 -12 10l-167 660q-2 10 8 10h94q10 0 12 -10l108 -458h2l127 458q3 10 12 10h70q9 0 12 -10
l130 -458h2l105 458q1 10 12 10h93q10 0 8 -10l-166 -660q-2 -10 -12 -10z" />
    <glyph glyph-name="wacute" unicode="&#x1e83;" horiz-adv-x="753" 
d="M414 555h-68q-11 0 -6 10l75 125q6 10 18 10h91q5 0 6.5 -3t-1.5 -7l-95 -125q-9 -10 -20 -10zM565 0h-82q-9 0 -12 10l-93 308h-2l-94 -308q-3 -10 -12 -10h-82q-9 0 -12 10l-152 462q-3 10 7 10h96q10 0 13 -10l93 -318h2l92 318q3 10 13 10h72q10 0 13 -10l98 -318h2
l88 318q3 10 13 10h96q10 0 7 -10l-152 -462q-3 -10 -12 -10z" />
    <glyph glyph-name="Wdieresis" unicode="&#x1e84;" horiz-adv-x="827" 
d="M549 769h-73q-10 0 -10 10v87q0 10 10 10h73q10 0 10 -10v-87q0 -10 -10 -10zM349 769h-73q-10 0 -10 10v87q0 10 10 10h73q10 0 10 -10v-87q0 -10 -10 -10zM633 0h-76q-9 0 -12 10l-130 465h-2l-131 -465q-3 -10 -12 -10h-75q-9 0 -12 10l-167 660q-2 10 8 10h94
q10 0 12 -10l108 -458h2l127 458q3 10 12 10h70q9 0 12 -10l130 -458h2l105 458q1 10 12 10h93q10 0 8 -10l-166 -660q-2 -10 -12 -10z" />
    <glyph glyph-name="wdieresis" unicode="&#x1e85;" horiz-adv-x="753" 
d="M512 573h-77q-10 0 -10 10v87q0 10 10 10h77q10 0 10 -10v-87q0 -10 -10 -10zM316 573h-77q-10 0 -10 10v87q0 10 10 10h77q10 0 10 -10v-87q0 -10 -10 -10zM565 0h-82q-9 0 -12 10l-93 308h-2l-94 -308q-3 -10 -12 -10h-82q-9 0 -12 10l-152 462q-3 10 7 10h96
q10 0 13 -10l93 -318h2l92 318q3 10 13 10h72q10 0 13 -10l98 -318h2l88 318q3 10 13 10h96q10 0 7 -10l-152 -462q-3 -10 -12 -10z" />
    <glyph glyph-name="Ygrave" unicode="&#x1ef2;" horiz-adv-x="536" 
d="M317 0h-98q-10 0 -10 10v268l-197 392q-4 10 8 10h101q10 0 14 -10l133 -264h3l134 264q4 10 14 10h97q12 0 8 -10l-197 -392v-268q0 -10 -10 -10zM310 761h-72q-10 0 -18 8l-116 109q-4 4 -2.5 7t6.5 3h98q11 0 19 -10l89 -107q3 -4 1.5 -7t-5.5 -3z" />
    <glyph glyph-name="ygrave" unicode="&#x1ef3;" horiz-adv-x="485" 
d="M121 -180h-31q-10 0 -10 10v80q0 10 10 10h18q28 0 44.5 13t27.5 44l14 41l-176 454q-3 10 8 10h99q9 0 12 -10l109 -315h2l104 315q3 10 12 10h95q11 0 8 -10l-184 -502q-31 -85 -66.5 -117.5t-95.5 -32.5zM293 555h-67q-11 0 -20 10l-95 125q-3 4 -1.5 7t6.5 3h91
q12 0 18 -10l74 -125q5 -10 -6 -10z" />
    <glyph glyph-name="endash" unicode="&#x2013;" horiz-adv-x="519" 
d="M489 219h-459q-10 0 -10 10v73q0 10 10 10h459q10 0 10 -10v-73q0 -10 -10 -10z" />
    <glyph glyph-name="emdash" unicode="&#x2014;" horiz-adv-x="867" 
d="M837 219h-807q-10 0 -10 10v73q0 10 10 10h807q10 0 10 -10v-73q0 -10 -10 -10z" />
    <glyph glyph-name="quoteleft" unicode="&#x2018;" horiz-adv-x="223" 
d="M152 488h-81q-10 0 -10 10v94q0 13 8 21l69 62q6 7 14 7q10 0 10 -10v-174q0 -10 -10 -10z" />
    <glyph glyph-name="quoteright" unicode="&#x2019;" horiz-adv-x="223" 
d="M71 486q-10 0 -10 10v174q0 10 10 10h81q10 0 10 -10v-94q0 -13 -8 -21l-68 -62q-7 -7 -15 -7z" />
    <glyph glyph-name="quotesinglbase" unicode="&#x201a;" horiz-adv-x="223" 
d="M71 -90q-10 0 -10 10v174q0 10 10 10h81q10 0 10 -10v-94q0 -13 -8 -21l-68 -62q-7 -7 -15 -7z" />
    <glyph glyph-name="quotedblleft" unicode="&#x201c;" horiz-adv-x="396" 
d="M325 488h-81q-10 0 -10 10v94q0 13 8 21l68 62q7 7 15 7q10 0 10 -10v-174q0 -10 -10 -10zM152 488h-81q-10 0 -10 10v94q0 13 8 21l69 62q6 7 14 7q10 0 10 -10v-174q0 -10 -10 -10z" />
    <glyph glyph-name="quotedblright" unicode="&#x201d;" horiz-adv-x="396" 
d="M244 486q-10 0 -10 10v174q0 10 10 10h81q10 0 10 -10v-94q0 -13 -8 -21l-69 -62q-6 -7 -14 -7zM71 486q-10 0 -10 10v174q0 10 10 10h81q10 0 10 -10v-94q0 -13 -8 -21l-68 -62q-7 -7 -15 -7z" />
    <glyph glyph-name="quotedblbase" unicode="&#x201e;" horiz-adv-x="396" 
d="M244 -90q-10 0 -10 10v174q0 10 10 10h81q10 0 10 -10v-94q0 -13 -8 -21l-69 -62q-6 -7 -14 -7zM71 -90q-10 0 -10 10v174q0 10 10 10h81q10 0 10 -10v-94q0 -13 -8 -21l-68 -62q-7 -7 -15 -7z" />
    <glyph glyph-name="dagger" unicode="&#x2020;" horiz-adv-x="535" 
d="M311 -180h-87q-10 0 -10 10v520q0 6 -6 6h-144q-10 0 -10 10v75q0 10 10 10h144q6 0 6 6v213q0 10 10 10h87q10 0 10 -10v-213q0 -6 6 -6h144q10 0 10 -10v-75q0 -10 -10 -10h-144q-6 0 -6 -6v-520q0 -10 -10 -10z" />
    <glyph glyph-name="daggerdbl" unicode="&#x2021;" horiz-adv-x="535" 
d="M311 -180h-87q-10 0 -10 10v183q0 6 -6 6h-144q-10 0 -10 10v75q0 10 10 10h144q6 0 6 6v260q0 6 -6 6h-144q-10 0 -10 10v75q0 10 10 10h144q6 0 6 6v183q0 10 10 10h87q10 0 10 -10v-183q0 -6 6 -6h144q10 0 10 -10v-75q0 -10 -10 -10h-144q-6 0 -6 -6v-260q0 -6 6 -6
h144q10 0 10 -10v-75q0 -10 -10 -10h-144q-6 0 -6 -6v-183q0 -10 -10 -10z" />
    <glyph glyph-name="bullet" unicode="&#x2022;" horiz-adv-x="458" 
d="M229 169q-61 0 -100 39t-39 100t39 100t100 39t100 -39t39 -100t-39 -100t-100 -39z" />
    <glyph glyph-name="ellipsis" unicode="&#x2026;" horiz-adv-x="759" 
d="M682 0h-100q-10 0 -10 10v102q0 10 10 10h100q10 0 10 -10v-102q0 -10 -10 -10zM429 0h-100q-10 0 -10 10v102q0 10 10 10h100q10 0 10 -10v-102q0 -10 -10 -10zM176 0h-100q-10 0 -10 10v102q0 10 10 10h100q10 0 10 -10v-102q0 -10 -10 -10z" />
    <glyph glyph-name="perthousand" unicode="&#x2030;" horiz-adv-x="1089" 
d="M222 -11h-66q-11 0 -5 10l395 682q6 10 16 10h65q11 0 5 -10l-395 -682q-6 -10 -15 -10zM192 330q-44 0 -77 22t-45 58q-8 24 -8 99t8 99q12 36 45 58t77 22t77 -22t45 -58q8 -24 8 -99t-8 -99q-12 -36 -45 -58t-77 -22zM192 402q34 0 43 29q4 11 4 78t-4 79
q-9 28 -43 28q-33 0 -44 -28q-4 -12 -4 -79t4 -78q11 -29 44 -29zM897 -9q-44 0 -77 22t-45 58q-8 24 -8 99t8 99q12 36 45 58t77 22q45 0 78 -22t44 -58q8 -24 8 -99t-8 -99q-11 -36 -44 -58t-78 -22zM590 -9q-45 0 -78 22t-45 58q-8 28 -8 99t8 99q12 36 45 58t78 22
q44 0 77 -22t45 -58q8 -24 8 -99t-8 -99q-12 -36 -45 -58t-77 -22zM897 63q33 0 44 29q4 11 4 78t-4 79q-11 28 -44 28q-34 0 -43 -28q-4 -12 -4 -79t4 -78q9 -29 43 -29zM590 63q34 0 43 29q4 11 4 78t-4 79q-9 28 -43 28q-33 0 -44 -28q-4 -12 -4 -79t4 -78q11 -29 44 -29
z" />
    <glyph glyph-name="guilsinglleft" unicode="&#x2039;" horiz-adv-x="315" 
d="M239 52l-204 205q-7 7 0 14l204 205q3 3 6.5 1.5t3.5 -5.5v-96q0 -11 -10 -21l-87 -87q-4 -4 0 -8l87 -87q10 -10 10 -21v-96q0 -4 -3.5 -5.5t-6.5 1.5z" />
    <glyph glyph-name="guilsinglright" unicode="&#x203a;" horiz-adv-x="315" 
d="M76 52q-3 -3 -6.5 -1.5t-3.5 5.5v96q0 11 9 21l88 87q4 4 0 8l-88 87q-9 10 -9 21v96q0 4 3.5 5.5t6.5 -1.5l204 -205q7 -7 0 -14z" />
    <glyph glyph-name="fraction" unicode="&#x2044;" horiz-adv-x="159" 
d="M-90 -11h-66q-11 0 -5 10l395 682q6 10 16 10h65q5 0 6.5 -3t-0.5 -7l-395 -682q-6 -10 -16 -10z" />
    <glyph glyph-name="zero.superior" unicode="&#x2070;" horiz-adv-x="349" 
d="M174 422q-102 0 -131 86q-9 29 -9 125t9 125q29 86 131 86q103 0 132 -86q9 -29 9 -125t-9 -125q-29 -86 -132 -86zM174 499q37 0 46 31q4 12 4 103t-4 103q-9 31 -46 31q-36 0 -45 -31q-4 -12 -4 -103t4 -103q9 -31 45 -31z" />
    <glyph glyph-name="four.superior" unicode="&#x2074;" horiz-adv-x="349" 
d="M274 430h-64q-10 0 -10 10v44q0 6 -6 6h-162q-10 0 -10 10v55q0 8 4 15l124 256q5 10 14 10h72q11 0 6 -10l-122 -260v-1h74q6 0 6 6v82q0 10 10 10h64q10 0 10 -10v-82q0 -6 6 -6h17q10 0 10 -10v-55q0 -10 -10 -10h-17q-6 0 -6 -6v-44q0 -10 -10 -10z" />
    <glyph glyph-name="five.superior" unicode="&#x2075;" horiz-adv-x="349" 
d="M171 422q-49 0 -85 21.5t-44 58.5q-2 11 5 13l64 22q8 3 11 -5q16 -31 50 -31q36 0 45 28q4 13 4 31q0 19 -4 31q-9 28 -43 28q-24 0 -36 -14q-6 -6 -12 -6h-69q-10 0 -10 10v217q0 10 10 10h235q10 0 10 -10v-57q0 -10 -10 -10h-156q-6 0 -6 -6v-71h1q26 14 58 14
q89 0 112 -70q8 -24 8 -66q0 -32 -8 -58q-27 -80 -130 -80z" />
    <glyph glyph-name="six.superior" unicode="&#x2076;" horiz-adv-x="349" 
d="M174 422q-62 0 -102 35.5t-40 94.5q0 44 33 104l95 170q4 10 16 10h77q11 0 5 -10l-82 -148l1 -1q5 3 19 3q53 0 87 -35.5t34 -92.5q0 -59 -40 -94.5t-103 -35.5zM174 499q25 0 40 14.5t15 37.5t-15 37.5t-40 14.5q-24 0 -39 -14.5t-15 -37.5t15 -37.5t39 -14.5z" />
    <glyph glyph-name="seven.superior" unicode="&#x2077;" horiz-adv-x="349" 
d="M162 430h-70q-10 0 -5 11l133 316v2h-87q-6 0 -6 -6v-43q0 -10 -10 -10h-65q-10 0 -10 10v116q0 10 10 10h249q10 0 10 -10v-63q0 -4 -2 -10l-133 -314q-4 -9 -14 -9z" />
    <glyph glyph-name="eight.superior" unicode="&#x2078;" horiz-adv-x="349" 
d="M174 422q-63 0 -103.5 35.5t-40.5 91.5q0 58 48 95v1q-38 33 -38 77q0 50 35.5 86t98.5 36t99 -36t36 -86q0 -44 -38 -77v-1q48 -37 48 -95q0 -56 -41 -91.5t-104 -35.5zM174 678q21 0 34 13t13 31q0 19 -13 32t-34 13q-20 0 -33 -13t-13 -32q0 -18 13 -31t33 -13z
M174 499q24 0 40.5 15.5t16.5 37.5q0 23 -16.5 38.5t-40.5 15.5t-40 -15.5t-16 -38.5t16 -38t40 -15z" />
    <glyph glyph-name="nine.superior" unicode="&#x2079;" horiz-adv-x="349" 
d="M173 430h-77q-11 0 -5 10l82 148l-1 1q-4 -3 -19 -3q-53 0 -87 35.5t-34 92.5q0 59 40 94.5t102 35.5q63 0 103 -35.5t40 -94.5q0 -44 -33 -104l-95 -170q-6 -10 -16 -10zM174 663q25 0 40 14.5t15 37.5t-15 37.5t-40 14.5q-24 0 -39 -14.5t-15 -37.5t15 -37.5t39 -14.5z
" />
    <glyph glyph-name="zero.inferior" unicode="&#x2080;" horiz-adv-x="349" 
d="M174 -164q-102 0 -131 86q-9 29 -9 125t9 125q29 86 131 86q103 0 132 -86q9 -29 9 -125t-9 -125q-29 -86 -132 -86zM174 -87q37 0 46 31q4 12 4 103t-4 103q-9 31 -46 31q-36 0 -45 -31q-4 -12 -4 -103t4 -103q9 -31 45 -31z" />
    <glyph glyph-name="one.inferior" unicode="&#x2081;" horiz-adv-x="349" 
d="M233 -156h-67q-10 0 -10 10v294h-2l-63 -41q-4 -2 -7 0t-3 7v72q0 10 8 15l62 42q10 7 17 7h65q10 0 10 -10v-386q0 -10 -10 -10z" />
    <glyph glyph-name="two.inferior" unicode="&#x2082;" horiz-adv-x="349" 
d="M297 -156h-245q-10 0 -10 10v57q0 8 6 14l144 158q27 29 27 55q0 20 -11.5 31.5t-31.5 11.5q-42 0 -49 -42q-2 -10 -11 -8l-65 14q-10 2 -8 11q5 37 40 69.5t94 32.5q58 0 94 -34t36 -86q0 -51 -44 -100l-109 -116v-1h143q10 0 10 -10v-57q0 -10 -10 -10z" />
    <glyph glyph-name="three.inferior" unicode="&#x2083;" horiz-adv-x="349" 
d="M176 -164q-54 0 -91.5 22.5t-48.5 68.5q-2 12 7 13l64 16q7 1 12 -8q17 -35 55 -35q23 0 37.5 14t14.5 36q0 23 -15 36.5t-42 13.5h-20q-10 0 -10 10v57q0 10 10 10h15q52 0 52 45q0 46 -46 46q-34 0 -48 -29q-4 -8 -13 -6l-60 14q-9 1 -7 12q9 38 43.5 62t86.5 24
q62 0 97 -31.5t35 -84.5q0 -50 -41 -83v-1q19 -8 35 -33.5t16 -59.5q0 -59 -37.5 -94t-100.5 -35z" />
    <glyph glyph-name="four.inferior" unicode="&#x2084;" horiz-adv-x="349" 
d="M274 -156h-64q-10 0 -10 10v44q0 6 -6 6h-162q-10 0 -10 10v55q0 8 4 15l124 256q5 10 14 10h72q11 0 6 -10l-122 -260v-1h74q6 0 6 6v82q0 10 10 10h64q10 0 10 -10v-82q0 -6 6 -6h17q10 0 10 -10v-55q0 -10 -10 -10h-17q-6 0 -6 -6v-44q0 -10 -10 -10z" />
    <glyph glyph-name="five.inferior" unicode="&#x2085;" horiz-adv-x="349" 
d="M171 -164q-49 0 -85 21.5t-44 58.5q-2 11 5 13l64 22q8 3 11 -5q16 -31 50 -31q36 0 45 28q4 13 4 31q0 19 -4 31q-9 28 -43 28q-24 0 -36 -14q-6 -6 -12 -6h-69q-10 0 -10 10v217q0 10 10 10h235q10 0 10 -10v-57q0 -10 -10 -10h-156q-6 0 -6 -6v-71h1q26 14 58 14
q89 0 112 -70q8 -24 8 -66q0 -32 -8 -58q-27 -80 -130 -80z" />
    <glyph glyph-name="six.inferior" unicode="&#x2086;" horiz-adv-x="349" 
d="M174 -164q-62 0 -102 35.5t-40 94.5q0 44 33 104l95 170q4 10 16 10h77q11 0 5 -10l-82 -148l1 -1q5 3 19 3q53 0 87 -35.5t34 -92.5q0 -59 -40 -94.5t-103 -35.5zM174 -87q25 0 40 14.5t15 37.5t-15 37.5t-40 14.5q-24 0 -39 -14.5t-15 -37.5t15 -37.5t39 -14.5z" />
    <glyph glyph-name="seven.inferior" unicode="&#x2087;" horiz-adv-x="349" 
d="M162 -156h-70q-10 0 -5 11l133 316v2h-87q-6 0 -6 -6v-43q0 -10 -10 -10h-65q-10 0 -10 10v116q0 10 10 10h249q10 0 10 -10v-63q0 -4 -2 -10l-133 -314q-4 -9 -14 -9z" />
    <glyph glyph-name="eight.inferior" unicode="&#x2088;" horiz-adv-x="349" 
d="M174 -164q-63 0 -103.5 35.5t-40.5 91.5q0 58 48 95v1q-38 33 -38 77q0 50 35.5 86t98.5 36t99 -36t36 -86q0 -44 -38 -77v-1q48 -37 48 -95q0 -56 -41 -91.5t-104 -35.5zM174 92q21 0 34 13t13 31q0 19 -13 32t-34 13q-20 0 -33 -13t-13 -32q0 -18 13 -31t33 -13z
M174 -87q24 0 40.5 15.5t16.5 37.5q0 23 -16.5 38.5t-40.5 15.5t-40 -15.5t-16 -38.5t16 -38t40 -15z" />
    <glyph glyph-name="nine.inferior" unicode="&#x2089;" horiz-adv-x="349" 
d="M173 -156h-77q-11 0 -5 10l82 148l-1 1q-4 -3 -19 -3q-53 0 -87 35.5t-34 92.5q0 59 40 94.5t102 35.5q63 0 103 -35.5t40 -94.5q0 -44 -33 -104l-95 -170q-6 -10 -16 -10zM174 77q25 0 40 14.5t15 37.5t-15 37.5t-40 14.5q-24 0 -39 -14.5t-15 -37.5t15 -37.5t39 -14.5z
" />
    <glyph glyph-name="Euro" unicode="&#x20ac;" 
d="M93 232q0 6 -6 6h-37q-10 0 -10 10v58q0 10 10 10h37q6 0 6 6v41q0 6 -6 6h-37q-10 0 -10 10v58q0 10 10 10h37q6 0 6 6q0 50 13 94q47 144 204 144q137 0 194 -120q4 -8 -5 -13l-73 -35q-9 -4 -14 4q-37 64 -102 64q-72 0 -95 -70q-9 -24 -9 -68q0 -6 6 -6h182
q10 0 10 -10l-10 -58q-1 -10 -10 -10h-172q-6 0 -6 -6v-41q0 -6 6 -6h162q10 0 10 -10l-10 -58q-1 -10 -10 -10h-152q-6 0 -6 -6q0 -49 9 -73q23 -70 95 -70q65 0 102 64q5 8 14 4l73 -35q9 -5 5 -13q-57 -120 -194 -120q-157 0 -204 144q-13 44 -13 99z" />
    <glyph glyph-name="afii61289" unicode="&#x2113;" horiz-adv-x="446" 
d="M83 148q-8 -5 -14 2l-39 56q-5 9 2 14l85 64v204q0 96 38.5 149.5t113.5 53.5q62 0 99 -39.5t37 -107.5q0 -77 -43 -150t-133 -151v-95q0 -59 44 -59q27 0 58 26q9 7 14 -2l38 -55q4 -7 -3 -14q-55 -55 -131 -55q-132 0 -132 158v26zM229 502v-139q81 84 81 180
q0 60 -38 60q-22 0 -32.5 -22t-10.5 -79z" />
    <glyph glyph-name="trademark" unicode="&#x2122;" horiz-adv-x="848" 
d="M784 286h-58q-10 0 -10 10v204h-2l-68 -147q-5 -10 -13 -10h-46q-7 0 -12 10l-69 147h-2v-204q0 -10 -10 -10h-58q-10 0 -10 10v374q0 10 10 10h53q9 0 14 -10l107 -232h3l104 232q5 10 14 10h53q10 0 10 -10v-374q0 -10 -10 -10zM231 286h-63q-10 0 -10 10v305q0 6 -6 6
h-100q-10 0 -10 10v53q0 10 10 10h295q10 0 10 -10v-53q0 -10 -10 -10h-100q-6 0 -6 -6v-305q0 -10 -10 -10z" />
    <glyph glyph-name="estimated" unicode="&#x212e;" horiz-adv-x="599" 
d="M298 -11q-105 0 -169.5 72.5t-64.5 180.5t64.5 179.5t169.5 71.5q106 0 171 -69.5t66 -181.5h-369v-166q54 -52 132 -52q113 0 175 109l33 -21q-43 -65 -90.5 -94t-117.5 -29zM432 275v132q-60 55 -134 55q-79 0 -132 -55v-132h266z" />
    <glyph glyph-name="onethird" unicode="&#x2153;" horiz-adv-x="893" 
d="M243 274h-67q-10 0 -10 10v294h-2l-63 -41q-4 -2 -7 0t-3 7v72q0 10 8 15l62 42q10 7 17 7h65q10 0 10 -10v-386q0 -10 -10 -10zM239 -11h-66q-11 0 -5 10l395 682q6 10 16 10h65q4 0 6 -3t0 -7l-395 -682q-6 -10 -16 -10zM665 -8q-54 0 -91.5 22.5t-48.5 68.5
q-2 12 7 13l64 16q7 1 12 -8q17 -35 55 -35q23 0 37.5 14t14.5 36q0 23 -15 36.5t-42 13.5h-20q-10 0 -10 10v57q0 10 10 10h15q52 0 52 45q0 46 -46 46q-33 0 -48 -29q-4 -8 -13 -6l-60 14q-9 1 -7 12q9 38 43.5 62t86.5 24q62 0 97 -31.5t35 -84.5q0 -50 -41 -83v-1
q19 -8 35 -33.5t16 -59.5q0 -59 -37.5 -94t-100.5 -35z" />
    <glyph glyph-name="twothirds" unicode="&#x2154;" horiz-adv-x="994" 
d="M345 274h-245q-10 0 -10 10v57q0 8 6 14l144 158q27 29 27 55q0 20 -11.5 31.5t-31.5 11.5q-42 0 -49 -42q-2 -10 -11 -8l-65 14q-10 2 -8 11q5 37 40 69.5t94 32.5q58 0 94 -34t36 -86q0 -51 -44 -100l-109 -116v-1h143q10 0 10 -10v-57q0 -10 -10 -10zM340 -11h-66
q-11 0 -5 10l395 682q6 10 16 10h65q5 0 6.5 -3t-0.5 -7l-395 -682q-6 -10 -16 -10zM766 -8q-54 0 -91.5 22.5t-48.5 68.5q-2 12 7 13l64 16q7 1 12 -8q17 -35 55 -35q23 0 37.5 14t14.5 36q0 23 -15 36.5t-42 13.5h-20q-10 0 -10 10v57q0 10 10 10h15q52 0 52 45
q0 46 -46 46q-34 0 -48 -29q-4 -8 -13 -6l-60 14q-9 1 -7 12q9 38 43.5 62t86.5 24q62 0 97 -31.5t35 -84.5q0 -50 -41 -83v-1q19 -8 35 -33.5t16 -59.5q0 -59 -37.5 -94t-100.5 -35z" />
    <glyph glyph-name="oneeighth" unicode="&#x215b;" horiz-adv-x="894" 
d="M243 274h-67q-10 0 -10 10v294h-2l-63 -41q-4 -2 -7 0t-3 7v72q0 10 8 15l62 42q10 7 17 7h65q10 0 10 -10v-386q0 -10 -10 -10zM659 -8q-63 0 -103.5 35.5t-40.5 91.5q0 58 48 95v1q-38 33 -38 77q0 50 35.5 86t98.5 36t99 -36t36 -86q0 -44 -38 -77v-1q48 -37 48 -95
q0 -56 -41 -91.5t-104 -35.5zM659 248q21 0 34 13t13 31q0 19 -13 32t-34 13q-20 0 -33 -13t-13 -32q0 -18 13 -31t33 -13zM659 69q24 0 40.5 15.5t16.5 37.5q0 23 -16.5 38.5t-40.5 15.5t-40 -15.5t-16 -38.5t16 -38t40 -15zM239 -11h-66q-11 0 -5 10l395 682q6 10 16 10
h65q4 0 6 -3t0 -7l-395 -682q-6 -10 -16 -10z" />
    <glyph glyph-name="threeeighths" unicode="&#x215c;" horiz-adv-x="969" 
d="M734 -8q-63 0 -103.5 35.5t-40.5 91.5q0 58 48 95v1q-38 33 -38 77q0 50 35.5 86t98.5 36t99 -36t36 -86q0 -44 -38 -77v-1q48 -37 48 -95q0 -56 -41 -91.5t-104 -35.5zM734 248q21 0 34 13t13 31q0 19 -13 32t-34 13q-20 0 -33 -13t-13 -32q0 -18 13 -31t33 -13zM734 69
q24 0 40.5 15.5t16.5 37.5q0 23 -16.5 38.5t-40.5 15.5t-40 -15.5t-16 -38.5t16 -38t40 -15zM314 -11h-66q-11 0 -5 10l395 682q6 10 16 10h65q4 0 6 -3t0 -7l-395 -682q-6 -10 -16 -10zM231 266q-54 0 -91.5 22.5t-48.5 68.5q-2 12 7 13l64 16q7 1 12 -8q17 -35 55 -35
q23 0 37.5 14t14.5 36q0 23 -15 36.5t-42 13.5h-20q-10 0 -10 10v57q0 10 10 10h15q52 0 52 45q0 46 -46 46q-33 0 -48 -29q-4 -8 -13 -6l-60 14q-9 1 -7 12q9 38 43.5 62t86.5 24q62 0 97 -31.5t35 -84.5q0 -50 -41 -83v-1q19 -8 35 -33.5t16 -59.5q0 -59 -37.5 -94
t-100.5 -35z" />
    <glyph glyph-name="fiveeighths" unicode="&#x215d;" horiz-adv-x="961" 
d="M726 -8q-63 0 -103.5 35.5t-40.5 91.5q0 58 48 95v1q-38 33 -38 77q0 50 35.5 86t98.5 36t99 -36t36 -86q0 -44 -38 -77v-1q48 -37 48 -95q0 -56 -41 -91.5t-104 -35.5zM726 248q21 0 34 13t13 31q0 19 -13 32t-34 13q-20 0 -33 -13t-13 -32q0 -18 13 -31t33 -13zM726 69
q24 0 40.5 15.5t16.5 37.5q0 23 -16.5 38.5t-40.5 15.5t-40 -15.5t-16 -38.5t16 -38t40 -15zM306 -11h-66q-11 0 -5 10l395 682q6 10 16 10h65q5 0 6.5 -3t-0.5 -7l-395 -682q-6 -10 -16 -10zM220 266q-49 0 -85 21.5t-44 58.5q-2 11 5 13l64 22q8 3 11 -5q15 -31 50 -31
q36 0 45 28q4 13 4 31q0 19 -4 31q-9 28 -43 28q-24 0 -36 -14q-6 -6 -12 -6h-69q-10 0 -10 10v217q0 10 10 10h235q10 0 10 -10v-57q0 -10 -10 -10h-156q-6 0 -6 -6v-71h1q26 14 58 14q89 0 112 -70q8 -24 8 -66q0 -32 -8 -58q-27 -80 -130 -80z" />
    <glyph glyph-name="seveneighths" unicode="&#x215e;" horiz-adv-x="897" 
d="M661 -8q-63 0 -103.5 35.5t-40.5 91.5q0 58 48 95v1q-38 33 -38 77q0 50 35.5 86t98.5 36t99 -36t36 -86q0 -44 -38 -77v-1q48 -37 48 -95q0 -56 -41 -91.5t-104 -35.5zM661 248q21 0 34 13t13 31q0 19 -13 32t-34 13q-20 0 -33 -13t-13 -32q0 -18 13 -31t33 -13zM661 69
q24 0 40.5 15.5t16.5 37.5q0 23 -16.5 38.5t-40.5 15.5t-40 -15.5t-16 -38.5t16 -38t40 -15zM210 274h-70q-10 0 -5 11l133 316v2h-87q-6 0 -6 -6v-43q0 -10 -10 -10h-65q-10 0 -10 10v116q0 10 10 10h249q10 0 10 -10v-63q0 -4 -2 -10l-133 -314q-4 -9 -14 -9zM241 -11h-66
q-11 0 -5 10l395 682q6 10 16 10h65q4 0 6 -3t0 -7l-395 -682q-6 -10 -16 -10z" />
    <glyph glyph-name="partialdiff" unicode="&#x2202;" horiz-adv-x="546" 
d="M251 -11q-92 0 -148 58t-56 150q0 95 58 159t150 64q86 0 140 -55h1q-1 102 -37.5 165.5t-105.5 63.5q-53 0 -107 -40q-8 -5 -14 3l-41 62q-5 8 3 14q71 58 162 58q114 0 178.5 -85t64.5 -245q0 -164 -62 -268t-186 -104zM261 90q57 0 90 50t41 144q-52 44 -119 44
q-55 0 -87 -33t-32 -94q0 -50 29 -80.5t78 -30.5z" />
    <glyph glyph-name="product" unicode="&#x220f;" horiz-adv-x="667" 
d="M577 -180h-98q-10 0 -10 10v798q0 6 -6 6h-259q-6 0 -6 -6v-798q0 -10 -10 -10h-98q-10 0 -10 10v900q0 10 10 10h487q10 0 10 -10v-900q0 -10 -10 -10z" />
    <glyph glyph-name="summation" unicode="&#x2211;" horiz-adv-x="538" 
d="M487 -180h-436q-10 0 -10 10v82q0 5 2 9l178 397l-173 315q-3 6 -3 11v86q0 10 10 10h422q10 0 10 -10v-86q0 -10 -10 -10h-298l163 -301q3 -7 0 -14l-175 -393h320q10 0 10 -10v-86q0 -10 -10 -10z" />
    <glyph glyph-name="minus" unicode="&#x2212;" 
d="M484 227h-419q-10 0 -10 10v78q0 10 10 10h419q10 0 10 -10v-78q0 -10 -10 -10z" />
    <glyph glyph-name="uni2215" unicode="&#x2215;" horiz-adv-x="159" 
d="M-90 -11h-66q-11 0 -5 10l395 682q6 10 16 10h65q5 0 6.5 -3t-0.5 -7l-395 -682q-6 -10 -16 -10z" />
    <glyph glyph-name="uni2219" unicode="&#x2219;" horiz-adv-x="252" 
d="M176 204h-100q-10 0 -10 10v102q0 10 10 10h100q10 0 10 -10v-102q0 -10 -10 -10z" />
    <glyph glyph-name="radical" unicode="&#x221a;" horiz-adv-x="641" 
d="M360 -180h-75q-9 0 -13 10l-131 264q-3 6 -9 3l-57 -27q-9 -5 -13 4l-30 61q-5 9 4 13l142 68q10 5 14 -4l120 -251h3l207 769q3 10 12 10h79q11 0 8 -10l-249 -900q-3 -10 -12 -10z" />
    <glyph glyph-name="infinity" unicode="&#x221e;" horiz-adv-x="763" 
d="M564 84q-91 0 -182 100q-94 -100 -184 -100q-69 0 -114.5 45.5t-45.5 116.5q0 72 46 117.5t116 45.5q85 0 181 -103q53 56 94.5 79.5t87.5 23.5q69 0 115.5 -45.5t46.5 -117.5q0 -71 -46 -116.5t-115 -45.5zM560 161q38 0 61 25.5t23 61.5t-22.5 60t-61.5 24
q-27 0 -55 -19.5t-70 -67.5q44 -47 71 -65.5t54 -18.5zM204 161q47 0 124 86q-41 47 -69 66t-55 19q-39 0 -62 -24t-23 -60q0 -37 23 -62t62 -25z" />
    <glyph glyph-name="integral" unicode="&#x222b;" horiz-adv-x="444" 
d="M119 -180q-28 0 -49 3q-10 2 -10 10v79q0 5 3 8t7 2q15 -3 32 -3q34 0 49 20t15 68v524q0 112 38 160.5t121 48.5q27 0 49 -3q10 -2 10 -10v-78q0 -5 -3 -8t-7 -2q-20 2 -33 2q-33 0 -48.5 -20t-15.5 -68v-524q0 -112 -38 -160.5t-120 -48.5z" />
    <glyph glyph-name="approxequal" unicode="&#x2248;" 
d="M359 298q-48 0 -104 36q-41 25 -67 25q-41 0 -69 -50q-5 -9 -15 -2l-52 31q-7 5 -3 14q20 45 57.5 71t82.5 26q47 0 105 -35q41 -25 66 -25q42 0 70 50q5 9 15 2l52 -31q7 -5 3 -14q-20 -45 -58 -71.5t-83 -26.5zM359 103q-46 0 -104 35q-41 25 -67 25q-41 0 -69 -50
q-5 -9 -15 -2l-52 31q-7 5 -3 14q20 45 57.5 71.5t82.5 26.5q49 0 105 -36q41 -25 66 -25q42 0 70 50q5 9 15 2l52 -31q7 -5 3 -14q-20 -45 -57.5 -71t-83.5 -26z" />
    <glyph glyph-name="notequal" unicode="&#x2260;" 
d="M184 17h-71q-10 0 -5 10l48 100h-91q-10 0 -10 10v78q0 10 10 10h139l49 102h-188q-10 0 -10 10v78q0 10 10 10h236l49 100q4 10 15 10h70q10 0 5 -10l-48 -100h92q10 0 10 -10v-78q0 -10 -10 -10h-140l-49 -102h189q10 0 10 -10v-78q0 -10 -10 -10h-237l-48 -100
q-4 -10 -15 -10z" />
    <glyph glyph-name="lessequal" unicode="&#x2264;" 
d="M484 156l-419 172q-10 3 -10 14v66q0 11 10 14l419 172q10 3 10 -6v-89q0 -9 -10 -13l-286 -110v-2l286 -110q10 -4 10 -13v-89q0 -9 -10 -6zM484 0h-419q-10 0 -10 10v79q0 10 10 10h419q10 0 10 -10v-79q0 -10 -10 -10z" />
    <glyph glyph-name="greaterequal" unicode="&#x2265;" 
d="M484 328l-419 -172q-10 -3 -10 6v89q0 9 10 13l286 110v2l-286 110q-10 4 -10 13v89q0 9 10 6l419 -172q10 -3 10 -14v-66q0 -11 -10 -14zM484 0h-419q-10 0 -10 10v79q0 10 10 10h419q10 0 10 -10v-79q0 -10 -10 -10z" />
    <glyph glyph-name="lozenge" unicode="&#x25ca;" horiz-adv-x="561" 
d="M321 -52h-81q-11 0 -15 10l-174 364q-3 7 0 14l174 364q4 10 15 10h81q11 0 15 -10l174 -364q3 -7 0 -14l-174 -364q-4 -10 -15 -10zM284 52l123 277l-126 277h-2l-125 -277l128 -277h2z" />
    <glyph glyph-name="uniF8FF" unicode="&#xf8ff;" horiz-adv-x="483" 
d="M473 0h-463q-10 0 -10 10v660q0 10 10 10h463q10 0 10 -10v-660q0 -10 -10 -10zM418 55q6 0 6 6v558q0 6 -6 6h-353q-6 0 -6 -6v-558q0 -6 6 -6h353zM256 237h-54q-10 0 -10 10v24q0 30 17 55l51 70q21 30 21 53q0 21 -13.5 35t-34.5 14q-43 0 -55 -45q-2 -11 -11 -9
l-52 9q-10 2 -8 11q10 46 43 72.5t86 26.5q52 0 85.5 -32.5t33.5 -81.5q0 -42 -26 -74l-50 -71q-13 -18 -13 -41v-16q0 -10 -10 -10zM258 114h-58q-10 0 -10 10v59q0 10 10 10h58q10 0 10 -10v-59q0 -10 -10 -10z" />
    <glyph glyph-name="CR" horiz-adv-x="0" 
 />
    <glyph glyph-name="grave.cap" horiz-adv-x="422" 
d="M322 761h-72q-10 0 -18 8l-116 109q-4 4 -2.5 7t6.5 3h98q11 0 19 -10l89 -107q3 -4 1.5 -7t-5.5 -3z" />
    <glyph glyph-name="acute.cap" horiz-adv-x="422" 
d="M190 761h-71q-5 0 -6 3t2 7l88 107q8 10 19 10h98q5 0 6.5 -3t-1.5 -7l-117 -109q-8 -8 -18 -8z" />
    <glyph glyph-name="circumflex.cap" horiz-adv-x="422" 
d="M353 753h-63q-11 0 -21 10l-57 59h-2l-57 -59q-10 -10 -21 -10h-63q-5 0 -6 3t2 7l98 125q7 10 18 10h60q11 0 18 -10l98 -125q3 -4 2 -7t-6 -3z" />
    <glyph glyph-name="caron.cap" horiz-adv-x="422" 
d="M241 751h-60q-11 0 -18 10l-98 125q-3 4 -2 7t6 3h63q11 0 21 -10l57 -59h2l57 59q10 10 21 10h63q5 0 6 -3t-2 -7l-98 -125q-7 -10 -18 -10z" />
    <glyph glyph-name="caron.alt" horiz-adv-x="422" 
d="M170 502q-10 0 -10 11v157q0 10 10 10h83q10 0 10 -10v-73q0 -12 -7 -19l-71 -69q-7 -7 -15 -7z" />
    <glyph glyph-name="tilde.cap" horiz-adv-x="422" 
d="M268 757q-29 0 -67 20q-33 18 -56 18q-30 0 -67 -31q-9 -7 -9 2v61q0 10 8 19q32 34 72 34q29 0 67 -20q33 -18 57 -18q29 0 66 31q9 7 9 -2v-61q0 -10 -8 -19q-32 -34 -72 -34z" />
    <glyph glyph-name="dieresis.cap" horiz-adv-x="422" 
d="M348 769h-73q-10 0 -10 10v87q0 10 10 10h73q10 0 10 -10v-87q0 -10 -10 -10zM148 769h-73q-10 0 -10 10v87q0 10 10 10h73q10 0 10 -10v-87q0 -10 -10 -10z" />
    <glyph glyph-name="macron.cap" horiz-adv-x="422" 
d="M342 782h-263q-10 0 -10 10v61q0 10 10 10h263q10 0 10 -10v-61q0 -10 -10 -10z" />
    <glyph glyph-name="breve.cap" horiz-adv-x="422" 
d="M211 754q-63 0 -102 34t-43 88q0 10 9 10h49q9 0 12 -10q15 -46 75 -46t75 46q3 10 12 10h49q9 0 9 -10q-4 -54 -43 -88t-102 -34z" />
    <glyph glyph-name="ring.cap" horiz-adv-x="422" 
d="M211 721q-43 0 -71 28t-28 71t28 71.5t71 28.5t71 -28.5t28 -71.5t-28 -71t-71 -28zM211 769q21 0 35 14.5t14 36.5t-14 36.5t-35 14.5t-35 -14.5t-14 -36.5t14 -36.5t35 -14.5z" />
    <glyph glyph-name="hungarumlaut.cap" horiz-adv-x="422" 
d="M282 763h-63q-11 0 -5 10l65 107q6 10 17 10h78q4 0 5.5 -3t-1.5 -7l-77 -107q-7 -10 -19 -10zM124 763h-63q-11 0 -5 10l65 107q6 10 17 10h78q4 0 5.5 -3t-1.5 -7l-77 -107q-7 -10 -19 -10z" />
    <glyph glyph-name="dotaccent.cap" horiz-adv-x="422" 
d="M257 769h-93q-10 0 -10 10v87q0 10 10 10h93q10 0 10 -10v-87q0 -10 -10 -10z" />
    <glyph glyph-name="commaaccent" horiz-adv-x="422" 
d="M170 -228q-10 0 -10 11v153q0 10 10 10h83q10 0 10 -10v-69q0 -12 -7 -19l-71 -69q-7 -7 -15 -7z" />
    <glyph glyph-name="commaaccent.alt" horiz-adv-x="422" 
d="M253 572h-83q-10 0 -10 10v69q0 12 7 19l71 69q7 7 15 7q10 0 10 -11v-153q0 -10 -10 -10z" />
    <glyph glyph-name="uni0394" horiz-adv-x="617" 
d="M591 0h-565q-11 0 -8 10l233 660q3 10 13 10h92q10 0 13 -10l230 -660q3 -10 -8 -10zM446 95q6 0 5 6l-141 410h-3l-142 -410q-1 -6 5 -6h276z" />
    <glyph glyph-name="uni03A9" horiz-adv-x="638" 
d="M573 0h-202q-10 0 -10 10v85q0 10 10 13q91 27 91 232q0 112 -14 156q-29 89 -129 89t-129 -89q-14 -44 -14 -156q0 -205 91 -232q10 -3 10 -13v-85q0 -10 -10 -10h-202q-10 0 -10 10v86q0 10 10 10h66v2q-40 31 -57.5 81.5t-17.5 150.5q0 126 19 184q26 82 90.5 124.5
t153.5 42.5t153.5 -42.5t90.5 -124.5q19 -58 19 -184q0 -100 -17.5 -150.5t-57.5 -81.5v-2h66q10 0 10 -10v-86q0 -10 -10 -10z" />
    <glyph glyph-name="uni03BC" horiz-adv-x="550" 
d="M467 0h-92q-10 0 -10 10v39h-1q-14 -26 -42 -43t-66 -17q-47 0 -69 24h-2v-183q0 -10 -10 -10h-92q-10 0 -10 10v642q0 10 10 10h92q10 0 10 -10v-279q0 -49 22.5 -76.5t67.5 -27.5q43 0 66.5 28t23.5 76v279q0 10 10 10h92q10 0 10 -10v-462q0 -10 -10 -10z" />
    <glyph glyph-name="exclam.sc" horiz-adv-x="287" 
d="M173 190h-59q-10 0 -10 10l-23 312q0 10 10 10h105q10 0 10 -10l-23 -312q0 -10 -10 -10zM194 0h-100q-10 0 -10 10v102q0 10 10 10h100q10 0 10 -10v-102q0 -10 -10 -10z" />
    <glyph glyph-name="dollar.sc" horiz-adv-x="460" 
d="M246 -55h-30q-10 0 -10 10v36q-92 3 -161 49q-9 6 -2 15l49 65q5 7 14 1q44 -32 100 -36v135q-74 7 -115.5 47t-41.5 103q0 68 42.5 111.5t114.5 48.5v37q0 10 10 10h30q10 0 10 -10v-38q77 -8 125 -41q7 -6 2 -14l-42 -63q-6 -8 -14 -3q-36 20 -71 27v-125
q78 -9 118 -48t40 -104q0 -67 -40.5 -111.5t-117.5 -53.5v-38q0 -10 -10 -10zM152 378q0 -47 54 -60v119q-54 -8 -54 -59zM311 152q0 45 -55 59v-125q55 12 55 66z" />
    <glyph glyph-name="percent.sc" horiz-adv-x="703" 
d="M209 -11h-65q-10 0 -4 10l338 524q6 10 16 10h66q10 0 4 -10l-339 -524q-6 -10 -16 -10zM175 256q-39 0 -67 18t-39 47q-9 27 -9 71t9 71q11 29 39 47t67 18t67 -18t39 -47q9 -27 9 -71t-9 -71q-11 -29 -39 -47t-67 -18zM175 324q26 0 33 22q3 10 3 46t-3 45
q-7 23 -33 23t-33 -23q-3 -9 -3 -45t3 -46q7 -22 33 -22zM528 -6q-39 0 -67 18t-39 47q-9 27 -9 71t9 71q11 29 39 47t67 18t67 -18t39 -47q9 -27 9 -71t-9 -71q-11 -29 -39 -47t-67 -18zM528 62q26 0 33 23q3 9 3 45t-3 45q-7 23 -33 23t-33 -23q-3 -9 -3 -45t3 -45
q7 -23 33 -23z" />
    <glyph glyph-name="ampersand.sc" horiz-adv-x="541" 
d="M506 -6h-27q-30 0 -50 11.5t-46 41.5l-8 9q-71 -67 -156 -67q-72 0 -111 38t-39 101q0 42 21.5 78t77.5 81q-34 38 -47 64t-13 55q0 55 42 91t105 36q64 0 102 -37.5t38 -88.5q0 -35 -21 -64t-70 -67l74 -81l47 56q6 8 15 2l51 -41q8 -6 2 -14l-55 -70l21 -23
q16 -17 35 -17h12q10 0 10 -10v-74q0 -10 -10 -10zM210 407q0 -25 34 -64q52 39 52 64q0 16 -11 27.5t-30 11.5q-21 0 -33 -10.5t-12 -28.5zM226 81q45 0 88 42l-86 96q-59 -46 -59 -82q0 -25 15 -40.5t42 -15.5z" />
    <glyph glyph-name="zero.sc" horiz-adv-x="460" 
d="M230 -11q-65 0 -109.5 31t-60.5 82q-12 37 -12 159t12 159q16 51 60.5 82t109.5 31t109.5 -31t60.5 -82q12 -37 12 -159t-12 -159q-16 -51 -60.5 -82t-109.5 -31zM230 85q50 0 64 41q8 26 8 135q0 110 -8 134q-14 42 -64 42q-51 0 -65 -42q-8 -24 -8 -134q0 -109 8 -135
q14 -41 65 -41z" />
    <glyph glyph-name="one.sc" horiz-adv-x="460" 
d="M302 0h-89q-10 0 -10 10v391h-2l-83 -49q-4 -3 -8.5 -1.5t-4.5 6.5v88q0 10 10 17l86 55q7 5 18 5h83q10 0 10 -10v-502q0 -10 -10 -10z" />
    <glyph glyph-name="two.sc" horiz-adv-x="460" 
d="M396 0h-330q-10 0 -10 10v71q0 8 5 14l197 205q37 38 37 75q0 27 -17.5 44.5t-48.5 17.5q-29 0 -47 -16t-22 -41q-2 -9 -12 -8l-84 18q-10 2 -8 12q7 53 52 92t124 39q80 0 127 -45t47 -108q0 -73 -60 -131l-149 -151v-2h199q10 0 10 -10v-76q0 -10 -10 -10z" />
    <glyph glyph-name="three.sc" horiz-adv-x="460" 
d="M228 -11q-71 0 -121 30.5t-60 85.5q-2 10 8 13l83 20q9 2 12 -7q21 -46 77 -46q35 0 54.5 18.5t19.5 48.5q0 32 -22 50t-60 18h-19q-10 0 -10 10v75q0 10 10 10h14q34 0 54.5 16.5t20.5 44.5q0 27 -17.5 44t-48.5 17q-53 0 -66 -47q-3 -8 -13 -7l-82 21q-10 2 -8 12
q11 53 56 85t115 32q82 0 128 -42t46 -110q0 -62 -57 -102v-1q28 -12 48.5 -45t20.5 -78q0 -75 -51.5 -120.5t-131.5 -45.5z" />
    <glyph glyph-name="four.sc" horiz-adv-x="460" 
d="M374 0h-89q-10 0 -10 10v53q0 6 -6 6h-225q-10 0 -10 10v64q0 12 7 23l180 348q4 8 14 8h92q11 0 7 -9l-178 -347v-2h113q6 0 6 6v120q0 10 10 10h89q10 0 10 -10v-120q0 -6 6 -6h34q10 0 10 -10v-75q0 -10 -10 -10h-34q-6 0 -6 -6v-53q0 -10 -10 -10z" />
    <glyph glyph-name="five.sc" horiz-adv-x="460" 
d="M235 -11q-65 0 -109.5 27t-61.5 77q-3 10 7 13l82 21q10 3 15 -7q20 -35 67 -35q51 0 65 38q6 18 6 46q0 26 -6 44q-14 39 -63 39q-39 0 -59 -25q-8 -9 -16 -9h-82q-10 0 -10 10v284q0 10 10 10h315q10 0 10 -10v-76q0 -10 -10 -10h-219q-6 0 -6 -6v-91h3q36 19 79 19
q123 0 154 -94q11 -37 11 -85q0 -44 -12 -80q-16 -48 -61 -74t-109 -26z" />
    <glyph glyph-name="six.sc" horiz-adv-x="460" 
d="M230 -11q-81 0 -134.5 46t-53.5 124q0 66 39 126l147 227q7 10 16 10h94q12 0 6 -10l-125 -190l2 -2q18 3 35 3q71 0 116.5 -43.5t45.5 -120.5q0 -79 -54 -124.5t-134 -45.5zM230 85q36 0 56.5 20.5t20.5 50.5t-20.5 50.5t-56.5 20.5t-57 -20.5t-21 -50.5t21 -50.5
t57 -20.5z" />
    <glyph glyph-name="seven.sc" horiz-adv-x="460" 
d="M212 0h-90q-11 0 -6 11l181 412v3h-124q-6 0 -6 -6v-52q0 -10 -10 -10h-83q-10 0 -10 10v144q0 10 10 10h329q10 0 10 -10v-79q0 -4 -2 -10l-185 -414q-4 -9 -14 -9z" />
    <glyph glyph-name="eight.sc" horiz-adv-x="460" 
d="M230 -11q-85 0 -136.5 45t-51.5 117q0 80 62 122v1q-21 14 -36 41.5t-15 61.5q0 63 46.5 109.5t130.5 46.5q83 0 129.5 -46.5t46.5 -109.5q0 -34 -15 -61.5t-36 -41.5v-1q63 -43 63 -122q0 -72 -52 -117t-136 -45zM230 321q30 0 48 16.5t18 41.5t-18 41.5t-48 16.5
q-31 0 -49 -16.5t-18 -41.5t18 -41.5t49 -16.5zM230 85q36 0 56.5 20t20.5 51q0 30 -20.5 50t-56.5 20q-37 0 -57.5 -20t-20.5 -50q0 -31 20.5 -51t57.5 -20z" />
    <glyph glyph-name="nine.sc" horiz-adv-x="460" 
d="M215 0h-93q-12 0 -6 10l125 190l-2 2q-10 -3 -35 -3q-71 0 -116.5 43.5t-45.5 120.5q0 79 54 124.5t134 45.5q81 0 134.5 -46t53.5 -124q0 -66 -39 -126l-148 -227q-7 -10 -16 -10zM230 295q36 0 56.5 20.5t20.5 50.5t-20.5 50.5t-56.5 20.5t-57 -20.5t-21 -50.5
t21 -50.5t57 -20.5z" />
    <glyph glyph-name="question.sc" horiz-adv-x="405" 
d="M240 177h-92q-10 0 -10 10v25q0 40 26 63l54 51q34 33 34 61q0 20 -14 33t-39 13q-48 0 -58 -47q-2 -10 -12 -8l-89 13q-10 2 -8 12q11 59 54 94.5t118 35.5q70 0 116 -39t46 -98q0 -37 -12 -62.5t-40 -52.5l-49 -47q-15 -15 -15 -40v-7q0 -10 -10 -10zM242 0h-100
q-10 0 -10 10v102q0 10 10 10h100q10 0 10 -10v-102q0 -10 -10 -10z" />
    <glyph glyph-name="a.sc" horiz-adv-x="542" 
d="M511 0h-90q-10 0 -14 10l-33 88h-206l-33 -88q-4 -10 -14 -10h-90q-11 0 -8 10l193 502q3 10 13 10h88q9 0 12 -10l190 -502q3 -10 -8 -10zM270 372l-67 -178h136l-66 178h-3z" />
    <glyph glyph-name="b.sc" horiz-adv-x="533" 
d="M292 0h-208q-10 0 -10 10v502q0 10 10 10h228q81 0 124.5 -38.5t43.5 -101.5q0 -74 -60 -108v-2q28 -12 49 -42.5t21 -74.5q0 -155 -198 -155zM305 312q29 0 46 15t17 41t-17 41.5t-46 15.5h-114q-6 0 -6 -6v-101q0 -6 6 -6h114zM309 97q33 0 51 15.5t18 44.5
q0 28 -18 44t-51 16h-118q-6 0 -6 -6v-108q0 -6 6 -6h118z" />
    <glyph glyph-name="c.sc" horiz-adv-x="493" 
d="M267 -11q-77 0 -129 36t-74 103q-15 46 -15 133t15 133q22 67 74 103t129 36q137 0 191 -119q5 -9 -5 -14l-78 -37q-10 -5 -14 5q-29 65 -94 65q-72 0 -95 -66q-10 -30 -10 -106q0 -77 10 -107q23 -65 95 -65q65 0 94 65q4 10 14 5l78 -38q10 -5 5 -14
q-55 -118 -191 -118z" />
    <glyph glyph-name="d.sc" horiz-adv-x="547" 
d="M293 0h-209q-10 0 -10 10v502q0 10 10 10h209q72 0 121 -30.5t68 -87.5q15 -45 15 -143t-15 -143q-19 -57 -68 -87.5t-121 -30.5zM263 100q47 0 74.5 14t38.5 48q8 24 8 99t-8 99q-11 34 -38.5 48t-74.5 14h-71q-6 0 -6 -6v-310q0 -6 6 -6h71z" />
    <glyph glyph-name="e.sc" horiz-adv-x="504" 
d="M445 0h-361q-10 0 -10 10v502q0 10 10 10h361q10 0 10 -10v-80q0 -10 -10 -10h-253q-6 0 -6 -6v-97q0 -6 6 -6h212q10 0 10 -10v-79q0 -10 -10 -10h-212q-6 0 -6 -6v-102q0 -6 6 -6h253q10 0 10 -10v-80q0 -10 -10 -10z" />
    <glyph glyph-name="f.sc" horiz-adv-x="496" 
d="M176 0h-92q-10 0 -10 10v502q0 10 10 10h361q10 0 10 -10v-80q0 -10 -10 -10h-253q-6 0 -6 -6v-103q0 -6 6 -6h212q10 0 10 -10v-79q0 -10 -10 -10h-212q-6 0 -6 -6v-192q0 -10 -10 -10z" />
    <glyph glyph-name="g.sc" horiz-adv-x="538" 
d="M269 -11q-77 0 -130 36t-75 103q-15 46 -15 133t15 133q22 67 75 103t130 36q142 0 199 -118q5 -9 -5 -14l-78 -37q-9 -3 -14 5q-34 64 -102 64q-74 0 -97 -66q-10 -30 -10 -106q0 -77 10 -107q23 -65 98 -65q77 0 100 65q6 19 6 40q0 6 -6 6h-80q-9 0 -9 10v73
q0 10 9 10h189q10 0 10 -10v-22q0 -82 -15 -133q-22 -67 -75 -103t-130 -36z" />
    <glyph glyph-name="h.sc" horiz-adv-x="582" 
d="M498 0h-92q-10 0 -10 10v197q0 6 -6 6h-198q-6 0 -6 -6v-197q0 -10 -10 -10h-92q-10 0 -10 10v502q0 10 10 10h92q10 0 10 -10v-194q0 -6 6 -6h198q6 0 6 6v194q0 10 10 10h92q10 0 10 -10v-502q0 -10 -10 -10z" />
    <glyph glyph-name="i.sc" horiz-adv-x="260" 
d="M176 0h-92q-10 0 -10 10v502q0 10 10 10h92q10 0 10 -10v-502q0 -10 -10 -10z" />
    <glyph glyph-name="j.sc" horiz-adv-x="451" 
d="M182 -9q-52 0 -94 21t-63 51q-5 8 3 14l69 50q8 5 14 -3q31 -33 74 -33q84 0 84 93v328q0 10 10 10h92q10 0 10 -10v-328q0 -92 -51.5 -142.5t-147.5 -50.5z" />
    <glyph glyph-name="k.sc" horiz-adv-x="558" 
d="M527 0h-105q-10 0 -15 8l-143 228l-78 -88v-138q0 -10 -10 -10h-92q-10 0 -10 10v502q0 10 10 10h92q10 0 10 -10v-227l196 229q7 8 16 8h107q5 0 6.5 -4t-2.5 -9l-171 -191l196 -306q7 -12 -7 -12z" />
    <glyph glyph-name="l.sc" horiz-adv-x="468" 
d="M427 0h-343q-10 0 -10 10v502q0 10 10 10h92q10 0 10 -10v-406q0 -6 6 -6h235q10 0 10 -10v-80q0 -10 -10 -10z" />
    <glyph glyph-name="m.sc" horiz-adv-x="664" 
d="M580 0h-82q-10 0 -10 10v283h-4l-106 -211q-6 -13 -19 -13h-54q-13 0 -19 13l-106 211h-4v-283q0 -10 -10 -10h-82q-10 0 -10 10v502q0 10 10 10h84q13 0 17 -10l147 -302h4l144 302q4 10 17 10h83q10 0 10 -10v-502q0 -10 -10 -10z" />
    <glyph glyph-name="n.sc" horiz-adv-x="583" 
d="M499 0h-86q-10 0 -17 10l-216 326h-4v-326q0 -10 -10 -10h-82q-10 0 -10 10v502q0 10 10 10h86q11 0 17 -10l216 -327h4v327q0 10 10 10h82q10 0 10 -10v-502q0 -10 -10 -10z" />
    <glyph glyph-name="o.sc" horiz-adv-x="537" 
d="M269 -11q-77 0 -130 36t-75 103q-15 46 -15 133t15 133q22 67 75 103t130 36q76 0 129 -36t75 -103q15 -51 15 -133t-15 -133q-22 -67 -75 -103t-129 -36zM269 89q74 0 96 65q10 30 10 107q0 76 -10 106q-22 66 -96 66t-97 -66q-10 -30 -10 -106q0 -77 10 -107
q23 -65 97 -65z" />
    <glyph glyph-name="p.sc" horiz-adv-x="528" 
d="M176 0h-92q-10 0 -10 10v502q0 10 10 10h220q90 0 142 -47t52 -121q0 -73 -52.5 -120.5t-141.5 -47.5h-112q-6 0 -6 -6v-170q0 -10 -10 -10zM301 286q40 0 62 18.5t22 49.5q0 32 -22 50t-62 18h-109q-6 0 -6 -6v-124q0 -6 6 -6h109z" />
    <glyph glyph-name="q.sc" horiz-adv-x="537" 
d="M436 -36l-54 51q-49 -26 -113 -26q-77 0 -130 36t-75 103q-15 46 -15 133t15 133q22 67 75 103t130 36q76 0 129 -36t75 -103q15 -51 15 -133t-15 -133q-9 -27 -23 -49l49 -47q7 -7 1 -14l-50 -53q-7 -8 -14 -1zM269 88q20 0 33 4l-35 35q-7 7 -1 14l50 53q7 8 14 1
l39 -38q9 30 9 104q0 76 -10 106q-23 67 -99 67q-77 0 -100 -67q-10 -30 -10 -106q0 -77 10 -107q23 -66 100 -66z" />
    <glyph glyph-name="r.sc" horiz-adv-x="550" 
d="M499 0h-104q-10 0 -16 10l-102 189h-85q-6 0 -6 -6v-183q0 -10 -10 -10h-92q-10 0 -10 10v502q0 10 10 10h226q83 0 134 -45.5t51 -117.5q0 -51 -27 -89.5t-75 -56.5l113 -200q3 -5 0.5 -9t-7.5 -4zM305 298q36 0 56.5 16.5t20.5 44.5q0 30 -20 46.5t-57 16.5h-113
q-6 0 -6 -6v-112q0 -6 6 -6h113z" />
    <glyph glyph-name="s.sc" horiz-adv-x="504" 
d="M248 -11q-62 0 -120.5 21t-92.5 52q-7 6 -1 14l58 66q5 7 14 0q71 -53 150 -53q45 0 71 17t26 44q0 49 -95 61l-31 4q-83 11 -128 50.5t-45 106.5q0 72 53.5 116.5t142.5 44.5q113 0 188 -55q8 -6 3 -14l-45 -69q-6 -7 -14 -2q-66 40 -135 40q-37 0 -58 -15.5t-21 -40.5
q0 -48 97 -60l30 -4q172 -23 172 -156q0 -74 -56.5 -121t-162.5 -47z" />
    <glyph glyph-name="t.sc" horiz-adv-x="470" 
d="M281 0h-92q-10 0 -10 10v406q0 6 -6 6h-143q-10 0 -10 10v80q0 10 10 10h410q10 0 10 -10v-80q0 -10 -10 -10h-143q-6 0 -6 -6v-406q0 -10 -10 -10z" />
    <glyph glyph-name="u.sc" horiz-adv-x="562" 
d="M281 -11q-97 0 -155.5 55.5t-58.5 153.5v314q0 10 10 10h92q10 0 10 -10v-313q0 -52 27.5 -81t74.5 -29t74.5 29t27.5 81v313q0 10 10 10h92q10 0 10 -10v-314q0 -98 -58.5 -153.5t-155.5 -55.5z" />
    <glyph glyph-name="v.sc" horiz-adv-x="487" 
d="M283 0h-79q-9 0 -12 10l-176 502q-3 10 8 10h92q10 0 13 -10l116 -337h3l111 337q3 10 13 10h91q11 0 8 -10l-176 -502q-3 -10 -12 -10z" />
    <glyph glyph-name="w.sc" horiz-adv-x="711" 
d="M541 0h-70q-9 0 -12 10l-103 324h-2l-102 -324q-3 -10 -12 -10h-70q-9 0 -12 10l-140 502q-3 10 8 10h87q10 0 13 -10l84 -315h2l99 315q3 10 12 10h66q9 0 12 -10l101 -315h2l81 315q3 10 12 10h88q11 0 8 -10l-140 -502q-3 -10 -12 -10z" />
    <glyph glyph-name="x.sc" horiz-adv-x="496" 
d="M474 0h-104q-10 0 -16 9l-105 156h-2l-106 -156q-6 -9 -16 -9h-102q-13 0 -6 13l168 256l-156 240q-7 13 6 13h102q9 0 15 -9l95 -140h2l95 140q6 9 16 9h101q13 0 6 -13l-156 -240l168 -256q7 -13 -5 -13z" />
    <glyph glyph-name="y.sc" horiz-adv-x="456" 
d="M274 0h-92q-10 0 -10 10v203l-159 298q-3 4 -1 7.5t8 3.5h95q9 0 15 -10l99 -180h3l99 180q6 10 15 10h90q6 0 8 -3.5t-1 -7.5l-159 -298v-203q0 -10 -10 -10z" />
    <glyph glyph-name="z.sc" horiz-adv-x="461" 
d="M408 0h-355q-10 0 -10 10v80q0 6 4 10l244 320v2h-232q-10 0 -10 10v80q0 10 10 10h349q10 0 10 -10v-80q0 -6 -3 -10l-239 -320v-2h232q10 0 10 -10v-80q0 -10 -10 -10z" />
    <glyph glyph-name="agrave.sc" horiz-adv-x="542" 
d="M303 595h-67q-11 0 -20 10l-95 125q-3 4 -1.5 7t6.5 3h91q12 0 18 -10l74 -125q5 -10 -6 -10zM511 0h-90q-10 0 -14 10l-33 88h-206l-33 -88q-4 -10 -14 -10h-90q-11 0 -8 10l193 502q3 10 13 10h88q9 0 12 -10l190 -502q3 -10 -8 -10zM270 372l-67 -178h136l-66 178h-3z
" />
    <glyph glyph-name="aacute.sc" horiz-adv-x="542" 
d="M511 0h-90q-10 0 -14 10l-33 88h-206l-33 -88q-4 -10 -14 -10h-90q-11 0 -8 10l193 502q3 10 13 10h88q9 0 12 -10l190 -502q3 -10 -8 -10zM270 372l-67 -178h136l-66 178h-3zM307 595h-68q-11 0 -6 10l75 125q6 10 18 10h91q5 0 6.5 -3t-1.5 -7l-95 -125q-9 -10 -20 -10
z" />
    <glyph glyph-name="acircumflex.sc" horiz-adv-x="542" 
d="M511 0h-90q-10 0 -14 10l-33 88h-206l-33 -88q-4 -10 -14 -10h-90q-11 0 -8 10l193 502q3 10 13 10h88q9 0 12 -10l190 -502q3 -10 -8 -10zM270 372l-67 -178h136l-66 178h-3zM413 595h-63q-11 0 -21 10l-57 59h-2l-57 -59q-10 -10 -21 -10h-63q-5 0 -6 3t2 7l98 125
q7 10 18 10h60q11 0 18 -10l98 -125q3 -4 2 -7t-6 -3z" />
    <glyph glyph-name="atilde.sc" horiz-adv-x="542" 
d="M330 599q-29 0 -67 20q-33 18 -56 18q-30 0 -67 -31q-9 -7 -9 2v61q0 10 8 19q32 34 72 34q29 0 67 -20q33 -18 57 -18q29 0 66 31q9 7 9 -2v-61q0 -10 -8 -19q-32 -34 -72 -34zM511 0h-90q-10 0 -14 10l-33 88h-206l-33 -88q-4 -10 -14 -10h-90q-11 0 -8 10l193 502
q3 10 13 10h88q9 0 12 -10l190 -502q3 -10 -8 -10zM270 372l-67 -178h136l-66 178h-3z" />
    <glyph glyph-name="adieresis.sc" horiz-adv-x="542" 
d="M511 0h-90q-10 0 -14 10l-33 88h-206l-33 -88q-4 -10 -14 -10h-90q-11 0 -8 10l193 502q3 10 13 10h88q9 0 12 -10l190 -502q3 -10 -8 -10zM270 372l-67 -178h136l-66 178h-3zM407 613h-77q-10 0 -10 10v87q0 10 10 10h77q10 0 10 -10v-87q0 -10 -10 -10zM211 613h-77
q-10 0 -10 10v87q0 10 10 10h77q10 0 10 -10v-87q0 -10 -10 -10z" />
    <glyph glyph-name="amacron.sc" horiz-adv-x="542" 
d="M511 0h-90q-10 0 -14 10l-33 88h-206l-33 -88q-4 -10 -14 -10h-90q-11 0 -8 10l193 502q3 10 13 10h88q9 0 12 -10l190 -502q3 -10 -8 -10zM270 372l-67 -178h136l-66 178h-3zM402 627h-263q-10 0 -10 10v61q0 10 10 10h263q10 0 10 -10v-61q0 -10 -10 -10z" />
    <glyph glyph-name="abreve.sc" horiz-adv-x="542" 
d="M271 594q-63 0 -102 33.5t-43 87.5q0 10 9 10h49q9 0 12 -10q15 -45 75 -45t75 45q3 10 12 10h49q9 0 9 -10q-4 -54 -43 -87.5t-102 -33.5zM511 0h-90q-10 0 -14 10l-33 88h-206l-33 -88q-4 -10 -14 -10h-90q-11 0 -8 10l193 502q3 10 13 10h88q9 0 12 -10l190 -502
q3 -10 -8 -10zM270 372l-67 -178h136l-66 178h-3z" />
    <glyph glyph-name="aring.sc" horiz-adv-x="542" 
d="M271 569q-43 0 -71 28.5t-28 71.5t28 71.5t71 28.5t71 -28.5t28 -71.5t-28 -71.5t-71 -28.5zM271 618q21 0 35 14.5t14 36.5t-14 36.5t-35 14.5t-35 -14.5t-14 -36.5t14 -36.5t35 -14.5zM511 0h-90q-10 0 -14 10l-33 88h-206l-33 -88q-4 -10 -14 -10h-90q-11 0 -8 10
l193 502q3 10 13 10h88q9 0 12 -10l190 -502q3 -10 -8 -10zM270 372l-67 -178h136l-66 178h-3z" />
    <glyph glyph-name="aringacute.sc" horiz-adv-x="542" 
d="M310 717h-71q-5 0 -6 3t2 7l88 107q8 10 19 10h98q5 0 6.5 -3t-1.5 -7l-117 -109q-8 -8 -18 -8zM511 0h-90q-10 0 -14 10l-33 88h-206l-33 -88q-4 -10 -14 -10h-90q-11 0 -8 10l186 483q-37 29 -37 80q0 43 28 71.5t71 28.5t71 -28.5t28 -71.5q0 -49 -35 -78l184 -485
q3 -10 -8 -10zM271 522q22 0 35.5 14.5t13.5 36.5t-14 36.5t-35 14.5t-35 -14.5t-14 -36.5t14 -36.5t35 -14.5zM270 372l-67 -178h136l-66 178h-3z" />
    <glyph glyph-name="aogonek.sc" horiz-adv-x="542" 
d="M435 -190q-43 0 -69.5 23t-26.5 65q0 31 16 55.5t54 50.5l-35 94h-206l-33 -88q-4 -10 -14 -10h-90q-11 0 -8 10l193 502q3 10 13 10h88q9 0 12 -10l190 -502q3 -8 -6 -12q-83 -43 -83 -81q0 -26 25 -26q8 0 24 8q9 4 13 -4l25 -50q5 -8 -4 -13q-33 -22 -78 -22zM339 194
l-66 178h-3l-67 -178h136z" />
    <glyph glyph-name="ae.sc" horiz-adv-x="799" 
d="M740 0h-361q-10 0 -10 10v82q0 6 -6 6h-172l-47 -88q-6 -10 -16 -10h-98q-12 0 -6 10l282 502q7 10 17 10h417q10 0 10 -10v-80q0 -10 -10 -10h-253q-6 0 -6 -6v-97q0 -6 6 -6h212q10 0 10 -10v-79q0 -10 -10 -10h-212q-6 0 -6 -6v-102q0 -6 6 -6h253q10 0 10 -10v-80
q0 -10 -10 -10zM366 422l-123 -228h120q6 0 6 6v222h-3z" />
    <glyph glyph-name="aeacute.sc" horiz-adv-x="799" 
d="M740 0h-361q-10 0 -10 10v82q0 6 -6 6h-172l-47 -88q-6 -10 -16 -10h-98q-12 0 -6 10l282 502q7 10 17 10h417q10 0 10 -10v-80q0 -10 -10 -10h-253q-6 0 -6 -6v-97q0 -6 6 -6h212q10 0 10 -10v-79q0 -10 -10 -10h-212q-6 0 -6 -6v-102q0 -6 6 -6h253q10 0 10 -10v-80
q0 -10 -10 -10zM366 422l-123 -228h120q6 0 6 6v222h-3zM440 595h-68q-11 0 -6 10l75 125q6 10 18 10h91q5 0 6.5 -3t-1.5 -7l-95 -125q-9 -10 -20 -10z" />
    <glyph glyph-name="cacute.sc" horiz-adv-x="493" 
d="M276 595h-68q-11 0 -6 10l75 125q6 10 18 10h91q5 0 6.5 -3t-1.5 -7l-95 -125q-9 -10 -20 -10zM267 -11q-77 0 -129 36t-74 103q-15 46 -15 133t15 133q22 67 74 103t129 36q137 0 191 -119q5 -9 -5 -14l-78 -37q-10 -5 -14 5q-29 65 -94 65q-72 0 -95 -66
q-10 -30 -10 -106q0 -77 10 -107q23 -65 95 -65q65 0 94 65q4 10 14 5l78 -38q10 -5 5 -14q-55 -118 -191 -118z" />
    <glyph glyph-name="ccircumflex.sc" horiz-adv-x="493" 
d="M267 -11q-77 0 -129 36t-74 103q-15 46 -15 133t15 133q22 67 74 103t129 36q137 0 191 -119q5 -9 -5 -14l-78 -37q-10 -5 -14 5q-29 65 -94 65q-72 0 -95 -66q-10 -30 -10 -106q0 -77 10 -107q23 -65 95 -65q65 0 94 65q4 10 14 5l78 -38q10 -5 5 -14
q-55 -118 -191 -118zM405 595h-63q-11 0 -21 10l-57 59h-2l-57 -59q-10 -10 -21 -10h-63q-5 0 -6 3t2 7l98 125q7 10 18 10h60q11 0 18 -10l98 -125q3 -4 2 -7t-6 -3z" />
    <glyph glyph-name="ccaron.sc" horiz-adv-x="493" 
d="M290 595h-60q-11 0 -18 10l-98 125q-3 4 -1.5 7t5.5 3h63q11 0 21 -10l57 -59h2l57 59q10 10 21 10h63q4 0 5.5 -3t-1.5 -7l-98 -125q-7 -10 -18 -10zM267 -11q-77 0 -129 36t-74 103q-15 46 -15 133t15 133q22 67 74 103t129 36q137 0 191 -119q5 -9 -5 -14l-78 -37
q-10 -5 -14 5q-29 65 -94 65q-72 0 -95 -66q-10 -30 -10 -106q0 -77 10 -107q23 -65 95 -65q65 0 94 65q4 10 14 5l78 -38q10 -5 5 -14q-55 -118 -191 -118z" />
    <glyph glyph-name="cdotaccent.sc" horiz-adv-x="493" 
d="M309 613h-93q-10 0 -10 10v87q0 10 10 10h93q10 0 10 -10v-87q0 -10 -10 -10zM267 -11q-77 0 -129 36t-74 103q-15 46 -15 133t15 133q22 67 74 103t129 36q137 0 191 -119q5 -9 -5 -14l-78 -37q-10 -5 -14 5q-29 65 -94 65q-72 0 -95 -66q-10 -30 -10 -106
q0 -77 10 -107q23 -65 95 -65q65 0 94 65q4 10 14 5l78 -38q10 -5 5 -14q-55 -118 -191 -118z" />
    <glyph glyph-name="ccedilla.sc" horiz-adv-x="493" 
d="M245 -155h-78q-10 0 -7 10l56 138q-116 23 -152 135q-15 46 -15 133t15 133q22 67 74 103t129 36q137 0 191 -119q5 -9 -5 -14l-78 -37q-10 -5 -14 5q-29 65 -94 65q-72 0 -95 -66q-10 -30 -10 -106q0 -77 10 -107q23 -65 95 -65q65 0 94 65q4 10 14 5l78 -38
q10 -5 5 -14q-47 -102 -154 -115l-43 -137q-3 -10 -16 -10z" />
    <glyph glyph-name="dcaron.sc" horiz-adv-x="547" 
d="M293 0h-209q-10 0 -10 10v502q0 10 10 10h209q72 0 121 -30.5t68 -87.5q15 -45 15 -143t-15 -143q-19 -57 -68 -87.5t-121 -30.5zM263 100q47 0 74.5 14t38.5 48q8 24 8 99t-8 99q-11 34 -38.5 48t-74.5 14h-71q-6 0 -6 -6v-310q0 -6 6 -6h71zM291 595h-60q-11 0 -18 10
l-98 125q-3 4 -2 7t6 3h63q11 0 21 -10l57 -59h2l57 59q10 10 21 10h63q5 0 6 -3t-2 -7l-98 -125q-7 -10 -18 -10z" />
    <glyph glyph-name="dcroat.sc" horiz-adv-x="547" 
d="M293 0h-209q-10 0 -10 10v203q0 6 -6 6h-27q-10 0 -10 10v71q0 10 10 10h27q6 0 6 6v196q0 10 10 10h209q72 0 121 -30.5t68 -87.5q15 -45 15 -143t-15 -143q-19 -57 -68 -87.5t-121 -30.5zM263 100q47 0 74.5 14t38.5 48q8 24 8 99t-8 99q-11 34 -38.5 48t-74.5 14h-71
q-6 0 -6 -6v-100q0 -6 6 -6h59q10 0 10 -10v-71q0 -10 -10 -10h-59q-6 0 -6 -6v-107q0 -6 6 -6h71z" />
    <glyph glyph-name="eth.sc" horiz-adv-x="547" 
d="M293 0h-209q-10 0 -10 10v203q0 6 -6 6h-27q-10 0 -10 10v71q0 10 10 10h27q6 0 6 6v196q0 10 10 10h209q72 0 121 -30.5t68 -87.5q15 -45 15 -143t-15 -143q-19 -57 -68 -87.5t-121 -30.5zM263 100q47 0 74.5 14t38.5 48q8 24 8 99t-8 99q-11 34 -38.5 48t-74.5 14h-71
q-6 0 -6 -6v-100q0 -6 6 -6h59q10 0 10 -10v-71q0 -10 -10 -10h-59q-6 0 -6 -6v-107q0 -6 6 -6h71z" />
    <glyph glyph-name="egrave.sc" horiz-adv-x="504" 
d="M314 595h-67q-11 0 -20 10l-95 125q-3 4 -1.5 7t6.5 3h91q12 0 18 -10l74 -125q5 -10 -6 -10zM445 0h-361q-10 0 -10 10v502q0 10 10 10h361q10 0 10 -10v-80q0 -10 -10 -10h-253q-6 0 -6 -6v-97q0 -6 6 -6h212q10 0 10 -10v-79q0 -10 -10 -10h-212q-6 0 -6 -6v-102
q0 -6 6 -6h253q10 0 10 -10v-80q0 -10 -10 -10z" />
    <glyph glyph-name="eacute.sc" horiz-adv-x="504" 
d="M273 595h-68q-11 0 -6 10l75 125q6 10 18 10h91q5 0 6.5 -3t-1.5 -7l-95 -125q-9 -10 -20 -10zM445 0h-361q-10 0 -10 10v502q0 10 10 10h361q10 0 10 -10v-80q0 -10 -10 -10h-253q-6 0 -6 -6v-97q0 -6 6 -6h212q10 0 10 -10v-79q0 -10 -10 -10h-212q-6 0 -6 -6v-102
q0 -6 6 -6h253q10 0 10 -10v-80q0 -10 -10 -10z" />
    <glyph glyph-name="ecircumflex.sc" horiz-adv-x="504" 
d="M445 0h-361q-10 0 -10 10v502q0 10 10 10h361q10 0 10 -10v-80q0 -10 -10 -10h-253q-6 0 -6 -6v-97q0 -6 6 -6h212q10 0 10 -10v-79q0 -10 -10 -10h-212q-6 0 -6 -6v-102q0 -6 6 -6h253q10 0 10 -10v-80q0 -10 -10 -10zM407 595h-63q-11 0 -21 10l-57 59h-2l-57 -59
q-10 -10 -21 -10h-63q-5 0 -6 3t2 7l98 125q7 10 18 10h60q11 0 18 -10l98 -125q3 -4 2 -7t-6 -3z" />
    <glyph glyph-name="ecaron.sc" horiz-adv-x="504" 
d="M294 595h-60q-11 0 -18 10l-98 125q-3 4 -1.5 7t5.5 3h63q11 0 21 -10l57 -59h2l57 59q10 10 21 10h63q4 0 5.5 -3t-1.5 -7l-98 -125q-7 -10 -18 -10zM445 0h-361q-10 0 -10 10v502q0 10 10 10h361q10 0 10 -10v-80q0 -10 -10 -10h-253q-6 0 -6 -6v-97q0 -6 6 -6h212
q10 0 10 -10v-79q0 -10 -10 -10h-212q-6 0 -6 -6v-102q0 -6 6 -6h253q10 0 10 -10v-80q0 -10 -10 -10z" />
    <glyph glyph-name="edieresis.sc" horiz-adv-x="504" 
d="M401 613h-77q-10 0 -10 10v87q0 10 10 10h77q10 0 10 -10v-87q0 -10 -10 -10zM205 613h-77q-10 0 -10 10v87q0 10 10 10h77q10 0 10 -10v-87q0 -10 -10 -10zM445 0h-361q-10 0 -10 10v502q0 10 10 10h361q10 0 10 -10v-80q0 -10 -10 -10h-253q-6 0 -6 -6v-97q0 -6 6 -6
h212q10 0 10 -10v-79q0 -10 -10 -10h-212q-6 0 -6 -6v-102q0 -6 6 -6h253q10 0 10 -10v-80q0 -10 -10 -10z" />
    <glyph glyph-name="emacron.sc" horiz-adv-x="504" 
d="M395 627h-263q-10 0 -10 10v61q0 10 10 10h263q10 0 10 -10v-61q0 -10 -10 -10zM445 0h-361q-10 0 -10 10v502q0 10 10 10h361q10 0 10 -10v-80q0 -10 -10 -10h-253q-6 0 -6 -6v-97q0 -6 6 -6h212q10 0 10 -10v-79q0 -10 -10 -10h-212q-6 0 -6 -6v-102q0 -6 6 -6h253
q10 0 10 -10v-80q0 -10 -10 -10z" />
    <glyph glyph-name="ebreve.sc" horiz-adv-x="504" 
d="M264 594q-63 0 -102 33.5t-43 87.5q0 10 9 10h49q9 0 12 -10q15 -45 75 -45t75 45q3 10 12 10h49q9 0 9 -10q-4 -54 -43 -87.5t-102 -33.5zM445 0h-361q-10 0 -10 10v502q0 10 10 10h361q10 0 10 -10v-80q0 -10 -10 -10h-253q-6 0 -6 -6v-97q0 -6 6 -6h212q10 0 10 -10
v-79q0 -10 -10 -10h-212q-6 0 -6 -6v-102q0 -6 6 -6h253q10 0 10 -10v-80q0 -10 -10 -10z" />
    <glyph glyph-name="edotaccent.sc" horiz-adv-x="504" 
d="M309 613h-93q-10 0 -10 10v87q0 10 10 10h93q10 0 10 -10v-87q0 -10 -10 -10zM445 0h-361q-10 0 -10 10v502q0 10 10 10h361q10 0 10 -10v-80q0 -10 -10 -10h-253q-6 0 -6 -6v-97q0 -6 6 -6h212q10 0 10 -10v-79q0 -10 -10 -10h-212q-6 0 -6 -6v-102q0 -6 6 -6h253
q10 0 10 -10v-80q0 -10 -10 -10z" />
    <glyph glyph-name="eogonek.sc" horiz-adv-x="504" 
d="M355 -190q-43 0 -69 23t-26 65q0 57 65 102h-241q-10 0 -10 10v502q0 10 10 10h361q10 0 10 -10v-80q0 -10 -10 -10h-253q-6 0 -6 -6v-97q0 -6 6 -6h212q10 0 10 -10v-79q0 -10 -10 -10h-212q-6 0 -6 -6v-102q0 -6 6 -6h253q10 0 10 -10v-80q0 -10 -10 -10h-12
q-83 -49 -83 -83q0 -26 25 -26q9 0 25 8q9 4 13 -4l24 -50q5 -8 -4 -13q-31 -22 -78 -22z" />
    <glyph glyph-name="gcircumflex.sc" horiz-adv-x="538" 
d="M269 -11q-77 0 -130 36t-75 103q-15 46 -15 133t15 133q22 67 75 103t130 36q142 0 199 -118q5 -9 -5 -14l-78 -37q-9 -3 -14 5q-34 64 -102 64q-74 0 -97 -66q-10 -30 -10 -106q0 -77 10 -107q23 -65 98 -65q77 0 100 65q6 19 6 40q0 6 -6 6h-80q-9 0 -9 10v73
q0 10 9 10h189q10 0 10 -10v-22q0 -82 -15 -133q-22 -67 -75 -103t-130 -36zM410 595h-63q-11 0 -21 10l-57 59h-2l-57 -59q-10 -10 -21 -10h-63q-4 0 -5.5 3t1.5 7l98 125q7 10 18 10h60q11 0 18 -10l98 -125q3 -4 1.5 -7t-5.5 -3z" />
    <glyph glyph-name="gbreve.sc" horiz-adv-x="538" 
d="M269 -11q-77 0 -130 36t-75 103q-15 46 -15 133t15 133q22 67 75 103t130 36q142 0 199 -118q5 -9 -5 -14l-78 -37q-9 -3 -14 5q-34 64 -102 64q-74 0 -97 -66q-10 -30 -10 -106q0 -77 10 -107q23 -65 98 -65q77 0 100 65q6 19 6 40q0 6 -6 6h-80q-9 0 -9 10v73
q0 10 9 10h189q10 0 10 -10v-22q0 -82 -15 -133q-22 -67 -75 -103t-130 -36zM268 594q-63 0 -102 33.5t-43 87.5q0 10 9 10h49q9 0 12 -10q15 -45 75 -45t75 45q3 10 12 10h49q9 0 9 -10q-4 -54 -43 -87.5t-102 -33.5z" />
    <glyph glyph-name="gdotaccent.sc" horiz-adv-x="538" 
d="M269 -11q-77 0 -130 36t-75 103q-15 46 -15 133t15 133q22 67 75 103t130 36q142 0 199 -118q5 -9 -5 -14l-78 -37q-9 -3 -14 5q-34 64 -102 64q-74 0 -97 -66q-10 -30 -10 -106q0 -77 10 -107q23 -65 98 -65q77 0 100 65q6 19 6 40q0 6 -6 6h-80q-9 0 -9 10v73
q0 10 9 10h189q10 0 10 -10v-22q0 -82 -15 -133q-22 -67 -75 -103t-130 -36zM314 613h-93q-10 0 -10 10v87q0 10 10 10h93q10 0 10 -10v-87q0 -10 -10 -10z" />
    <glyph glyph-name="gcommaaccent.sc" horiz-adv-x="538" 
d="M226 -228q-10 0 -10 11v153q0 10 10 10h83q10 0 10 -10v-69q0 -12 -7 -19l-71 -69q-7 -7 -15 -7zM269 -11q-77 0 -130 36t-75 103q-15 46 -15 133t15 133q22 67 75 103t130 36q142 0 199 -118q5 -9 -5 -14l-78 -37q-9 -3 -14 5q-34 64 -102 64q-74 0 -97 -66
q-10 -30 -10 -106q0 -77 10 -107q23 -65 98 -65q77 0 100 65q6 19 6 40q0 6 -6 6h-80q-9 0 -9 10v73q0 10 9 10h189q10 0 10 -10v-22q0 -82 -15 -133q-22 -67 -75 -103t-130 -36z" />
    <glyph glyph-name="hcircumflex.sc" horiz-adv-x="582" 
d="M498 0h-92q-10 0 -10 10v197q0 6 -6 6h-198q-6 0 -6 -6v-197q0 -10 -10 -10h-92q-10 0 -10 10v502q0 10 10 10h92q10 0 10 -10v-194q0 -6 6 -6h198q6 0 6 6v194q0 10 10 10h92q10 0 10 -10v-502q0 -10 -10 -10zM432 595h-63q-11 0 -21 10l-57 59h-2l-57 -59
q-10 -10 -21 -10h-63q-4 0 -5.5 3t1.5 7l98 125q7 10 18 10h60q11 0 18 -10l98 -125q3 -4 1.5 -7t-5.5 -3z" />
    <glyph glyph-name="hbar.sc" horiz-adv-x="582" 
d="M498 0h-92q-10 0 -10 10v197q0 6 -6 6h-198q-6 0 -6 -6v-197q0 -10 -10 -10h-92q-10 0 -10 10v361q0 6 -6 6h-24q-10 0 -10 10v59q0 10 10 10h24q6 0 6 6v50q0 10 10 10h92q10 0 10 -10v-50q0 -6 6 -6h198q6 0 6 6v50q0 10 10 10h92q10 0 10 -10v-50q0 -6 6 -6h24
q10 0 10 -10v-59q0 -10 -10 -10h-24q-6 0 -6 -6v-361q0 -10 -10 -10zM390 312q6 0 6 6v53q0 6 -6 6h-198q-6 0 -6 -6v-53q0 -6 6 -6h198z" />
    <glyph glyph-name="igrave.sc" horiz-adv-x="260" 
d="M164 595h-67q-11 0 -20 10l-95 125q-3 4 -1.5 7t6.5 3h91q12 0 18 -10l74 -125q5 -10 -6 -10zM176 0h-92q-10 0 -10 10v502q0 10 10 10h92q10 0 10 -10v-502q0 -10 -10 -10z" />
    <glyph glyph-name="iacute.sc" horiz-adv-x="260" 
d="M176 0h-92q-10 0 -10 10v502q0 10 10 10h92q10 0 10 -10v-502q0 -10 -10 -10zM163 595h-68q-11 0 -6 10l75 125q6 10 18 10h91q5 0 6.5 -3t-1.5 -7l-95 -125q-9 -10 -20 -10z" />
    <glyph glyph-name="ibreve.sc" horiz-adv-x="260" 
d="M131 594q-63 0 -102 33.5t-43 87.5q0 10 9 10h49q9 0 12 -10q15 -45 75 -45t75 45q3 10 12 10h49q9 0 9 -10q-4 -54 -43 -87.5t-102 -33.5zM176 0h-92q-10 0 -10 10v502q0 10 10 10h92q10 0 10 -10v-502q0 -10 -10 -10z" />
    <glyph glyph-name="icircumflex.sc" horiz-adv-x="260" 
d="M176 0h-92q-10 0 -10 10v502q0 10 10 10h92q10 0 10 -10v-502q0 -10 -10 -10zM273 595h-63q-11 0 -21 10l-57 59h-2l-57 -59q-10 -10 -21 -10h-63q-5 0 -6 3t2 7l98 125q7 10 18 10h60q11 0 18 -10l98 -125q3 -4 2 -7t-6 -3z" />
    <glyph glyph-name="itilde.sc" horiz-adv-x="260" 
d="M190 599q-29 0 -67 20q-33 18 -56 18q-30 0 -67 -31q-9 -7 -9 2v61q0 10 8 19q32 34 72 34q29 0 67 -20q33 -18 57 -18q29 0 66 31q9 7 9 -2v-61q0 -10 -8 -19q-32 -34 -72 -34zM176 0h-92q-10 0 -10 10v502q0 10 10 10h92q10 0 10 -10v-502q0 -10 -10 -10z" />
    <glyph glyph-name="idieresis.sc" horiz-adv-x="260" 
d="M176 0h-92q-10 0 -10 10v502q0 10 10 10h92q10 0 10 -10v-502q0 -10 -10 -10zM267 613h-77q-10 0 -10 10v87q0 10 10 10h77q10 0 10 -10v-87q0 -10 -10 -10zM71 613h-77q-10 0 -10 10v87q0 10 10 10h77q10 0 10 -10v-87q0 -10 -10 -10z" />
    <glyph glyph-name="imacron.sc" horiz-adv-x="260" 
d="M176 0h-92q-10 0 -10 10v502q0 10 10 10h92q10 0 10 -10v-502q0 -10 -10 -10zM262 627h-263q-10 0 -10 10v61q0 10 10 10h263q10 0 10 -10v-61q0 -10 -10 -10z" />
    <glyph glyph-name="idotaccent.sc" horiz-adv-x="260" 
d="M177 613h-93q-10 0 -10 10v87q0 10 10 10h93q10 0 10 -10v-87q0 -10 -10 -10zM176 0h-92q-10 0 -10 10v502q0 10 10 10h92q10 0 10 -10v-502q0 -10 -10 -10z" />
    <glyph glyph-name="iogonek.sc" horiz-adv-x="260" 
d="M120 -190q-43 0 -69.5 23t-26.5 65q0 53 55 102q-5 2 -5 10v502q0 10 10 10h92q10 0 10 -10v-502q0 -6 -5 -10q-66 -51 -66 -83q0 -26 24 -26q11 0 25 8q9 4 13 -4l25 -50q5 -8 -4 -13q-33 -22 -78 -22z" />
    <glyph glyph-name="jcircumflex.sc" horiz-adv-x="451" 
d="M182 -9q-52 0 -94 21t-63 51q-5 8 3 14l69 50q8 5 14 -3q31 -33 74 -33q84 0 84 93v328q0 10 10 10h92q10 0 10 -10v-328q0 -92 -51.5 -142.5t-147.5 -50.5zM463 595h-63q-11 0 -21 10l-57 59h-2l-57 -59q-10 -10 -21 -10h-63q-5 0 -6 3t2 7l98 125q7 10 18 10h60
q11 0 18 -10l98 -125q3 -4 2 -7t-6 -3z" />
    <glyph glyph-name="kcommaaccent.sc" horiz-adv-x="558" 
d="M249 -228q-10 0 -10 11v153q0 10 10 10h83q10 0 10 -10v-69q0 -12 -7 -19l-71 -69q-7 -7 -15 -7zM527 0h-105q-10 0 -15 8l-143 228l-78 -88v-138q0 -10 -10 -10h-92q-10 0 -10 10v502q0 10 10 10h92q10 0 10 -10v-227l196 229q7 8 16 8h107q5 0 6.5 -4t-2.5 -9
l-171 -191l196 -306q7 -12 -7 -12z" />
    <glyph glyph-name="lacute.sc" horiz-adv-x="468" 
d="M427 0h-343q-10 0 -10 10v502q0 10 10 10h92q10 0 10 -10v-406q0 -6 6 -6h235q10 0 10 -10v-80q0 -10 -10 -10zM168 595h-68q-11 0 -6 10l75 125q6 10 18 10h91q5 0 6.5 -3t-1.5 -7l-95 -125q-9 -10 -20 -10z" />
    <glyph glyph-name="lcaron.sc" horiz-adv-x="468" 
d="M427 0h-343q-10 0 -10 10v502q0 10 10 10h92q10 0 10 -10v-406q0 -6 6 -6h235q10 0 10 -10v-80q0 -10 -10 -10zM246 344q-10 0 -10 11v157q0 10 10 10h83q10 0 10 -10v-73q0 -12 -7 -19l-71 -69q-7 -7 -15 -7z" />
    <glyph glyph-name="lcommaaccent.sc" horiz-adv-x="468" 
d="M427 0h-343q-10 0 -10 10v502q0 10 10 10h92q10 0 10 -10v-406q0 -6 6 -6h235q10 0 10 -10v-80q0 -10 -10 -10zM224 -228q-10 0 -10 11v153q0 10 10 10h83q10 0 10 -10v-69q0 -12 -7 -19l-71 -69q-7 -7 -15 -7z" />
    <glyph glyph-name="lslash.sc" horiz-adv-x="468" 
d="M286 296l-100 -51v-139q0 -6 6 -6h235q10 0 10 -10v-80q0 -10 -10 -10h-343q-10 0 -10 10v184l-41 -20q-10 -5 -10 6v74q0 9 10 14l41 21v223q0 10 10 10h92q10 0 10 -10v-172l100 51q10 5 10 -6v-75q0 -9 -10 -14z" />
    <glyph glyph-name="ldot.sc" horiz-adv-x="468" 
d="M427 0h-343q-10 0 -10 10v502q0 10 10 10h92q10 0 10 -10v-406q0 -6 6 -6h235q10 0 10 -10v-80q0 -10 -10 -10zM416 224h-100q-10 0 -10 10v102q0 10 10 10h100q10 0 10 -10v-102q0 -10 -10 -10z" />
    <glyph glyph-name="nacute.sc" horiz-adv-x="583" 
d="M499 0h-86q-10 0 -17 10l-216 326h-4v-326q0 -10 -10 -10h-82q-10 0 -10 10v502q0 10 10 10h86q11 0 17 -10l216 -327h4v327q0 10 10 10h82q10 0 10 -10v-502q0 -10 -10 -10zM296 595h-68q-11 0 -6 10l75 125q6 10 18 10h91q5 0 6.5 -3t-1.5 -7l-95 -125q-9 -10 -20 -10z
" />
    <glyph glyph-name="ncaron.sc" horiz-adv-x="583" 
d="M499 0h-86q-10 0 -17 10l-216 326h-4v-326q0 -10 -10 -10h-82q-10 0 -10 10v502q0 10 10 10h86q11 0 17 -10l216 -327h4v327q0 10 10 10h82q10 0 10 -10v-502q0 -10 -10 -10zM320 595h-60q-11 0 -18 10l-98 125q-3 4 -1.5 7t5.5 3h63q11 0 21 -10l57 -59h2l57 59
q10 10 21 10h63q4 0 5.5 -3t-1.5 -7l-98 -125q-7 -10 -18 -10z" />
    <glyph glyph-name="ntilde.sc" horiz-adv-x="583" 
d="M499 0h-86q-10 0 -17 10l-216 326h-4v-326q0 -10 -10 -10h-82q-10 0 -10 10v502q0 10 10 10h86q11 0 17 -10l216 -327h4v327q0 10 10 10h82q10 0 10 -10v-502q0 -10 -10 -10zM350 599q-29 0 -67 20q-33 18 -56 18q-30 0 -67 -31q-9 -7 -9 2v61q0 10 8 19q32 34 72 34
q29 0 67 -20q33 -18 57 -18q29 0 66 31q9 7 9 -2v-61q0 -10 -8 -19q-32 -34 -72 -34z" />
    <glyph glyph-name="ncommaaccent.sc" horiz-adv-x="583" 
d="M249 -228q-10 0 -10 11v153q0 10 10 10h83q10 0 10 -10v-69q0 -12 -7 -19l-71 -69q-7 -7 -15 -7zM499 0h-86q-10 0 -17 10l-216 326h-4v-326q0 -10 -10 -10h-82q-10 0 -10 10v502q0 10 10 10h86q11 0 17 -10l216 -327h4v327q0 10 10 10h82q10 0 10 -10v-502
q0 -10 -10 -10z" />
    <glyph glyph-name="ograve.sc" horiz-adv-x="537" 
d="M269 -11q-77 0 -130 36t-75 103q-15 46 -15 133t15 133q22 67 75 103t130 36q76 0 129 -36t75 -103q15 -51 15 -133t-15 -133q-22 -67 -75 -103t-129 -36zM269 89q74 0 96 65q10 30 10 107q0 76 -10 106q-22 66 -96 66t-97 -66q-10 -30 -10 -106q0 -77 10 -107
q23 -65 97 -65zM316 595h-67q-11 0 -20 10l-95 125q-3 4 -1.5 7t6.5 3h91q12 0 18 -10l74 -125q5 -10 -6 -10z" />
    <glyph glyph-name="oacute.sc" horiz-adv-x="537" 
d="M269 -11q-77 0 -130 36t-75 103q-15 46 -15 133t15 133q22 67 75 103t130 36q76 0 129 -36t75 -103q15 -51 15 -133t-15 -133q-22 -67 -75 -103t-129 -36zM269 89q74 0 96 65q10 30 10 107q0 76 -10 106q-22 66 -96 66t-97 -66q-10 -30 -10 -106q0 -77 10 -107
q23 -65 97 -65zM287 595h-68q-11 0 -6 10l75 125q6 10 18 10h91q5 0 6.5 -3t-1.5 -7l-95 -125q-9 -10 -20 -10z" />
    <glyph glyph-name="ocircumflex.sc" horiz-adv-x="537" 
d="M269 -11q-77 0 -130 36t-75 103q-15 46 -15 133t15 133q22 67 75 103t130 36q76 0 129 -36t75 -103q15 -51 15 -133t-15 -133q-22 -67 -75 -103t-129 -36zM269 89q74 0 96 65q10 30 10 107q0 76 -10 106q-22 66 -96 66t-97 -66q-10 -30 -10 -106q0 -77 10 -107
q23 -65 97 -65zM410 595h-63q-11 0 -21 10l-57 59h-2l-57 -59q-10 -10 -21 -10h-63q-4 0 -5.5 3t1.5 7l98 125q7 10 18 10h60q11 0 18 -10l98 -125q3 -4 1.5 -7t-5.5 -3z" />
    <glyph glyph-name="otilde.sc" horiz-adv-x="537" 
d="M269 -11q-77 0 -130 36t-75 103q-15 46 -15 133t15 133q22 67 75 103t130 36q76 0 129 -36t75 -103q15 -51 15 -133t-15 -133q-22 -67 -75 -103t-129 -36zM269 89q74 0 96 65q10 30 10 107q0 76 -10 106q-22 66 -96 66t-97 -66q-10 -30 -10 -106q0 -77 10 -107
q23 -65 97 -65zM327 599q-29 0 -67 20q-33 18 -56 18q-30 0 -67 -31q-9 -7 -9 2v61q0 10 8 19q32 34 72 34q29 0 67 -20q33 -18 57 -18q29 0 66 31q9 7 9 -2v-61q0 -10 -8 -19q-32 -34 -72 -34z" />
    <glyph glyph-name="odieresis.sc" horiz-adv-x="537" 
d="M269 -11q-77 0 -130 36t-75 103q-15 46 -15 133t15 133q22 67 75 103t130 36q76 0 129 -36t75 -103q15 -51 15 -133t-15 -133q-22 -67 -75 -103t-129 -36zM269 89q74 0 96 65q10 30 10 107q0 76 -10 106q-22 66 -96 66t-97 -66q-10 -30 -10 -106q0 -77 10 -107
q23 -65 97 -65zM404 613h-77q-10 0 -10 10v87q0 10 10 10h77q10 0 10 -10v-87q0 -10 -10 -10zM208 613h-77q-10 0 -10 10v87q0 10 10 10h77q10 0 10 -10v-87q0 -10 -10 -10z" />
    <glyph glyph-name="omacron.sc" horiz-adv-x="537" 
d="M269 -11q-77 0 -130 36t-75 103q-15 46 -15 133t15 133q22 67 75 103t130 36q76 0 129 -36t75 -103q15 -51 15 -133t-15 -133q-22 -67 -75 -103t-129 -36zM269 89q74 0 96 65q10 30 10 107q0 76 -10 106q-22 66 -96 66t-97 -66q-10 -30 -10 -106q0 -77 10 -107
q23 -65 97 -65zM399 627h-263q-10 0 -10 10v61q0 10 10 10h263q10 0 10 -10v-61q0 -10 -10 -10z" />
    <glyph glyph-name="obreve.sc" horiz-adv-x="537" 
d="M269 -11q-77 0 -130 36t-75 103q-15 46 -15 133t15 133q22 67 75 103t130 36q76 0 129 -36t75 -103q15 -51 15 -133t-15 -133q-22 -67 -75 -103t-129 -36zM269 89q74 0 96 65q10 30 10 107q0 76 -10 106q-22 66 -96 66t-97 -66q-10 -30 -10 -106q0 -77 10 -107
q23 -65 97 -65zM268 594q-63 0 -102 33.5t-43 87.5q0 10 9 10h49q9 0 12 -10q15 -45 75 -45t75 45q3 10 12 10h49q9 0 9 -10q-4 -54 -43 -87.5t-102 -33.5z" />
    <glyph glyph-name="ohungarumlaut.sc" horiz-adv-x="537" 
d="M376 595h-65q-11 0 -6 10l65 125q5 10 16 10h78q11 0 5 -10l-77 -125q-6 -10 -16 -10zM218 595h-65q-11 0 -6 10l65 125q5 10 16 10h78q11 0 5 -10l-77 -125q-6 -10 -16 -10zM269 -11q-77 0 -130 36t-75 103q-15 46 -15 133t15 133q22 67 75 103t130 36q76 0 129 -36
t75 -103q15 -51 15 -133t-15 -133q-22 -67 -75 -103t-129 -36zM269 89q74 0 96 65q10 30 10 107q0 76 -10 106q-22 66 -96 66t-97 -66q-10 -30 -10 -106q0 -77 10 -107q23 -65 97 -65z" />
    <glyph glyph-name="oslash.sc" horiz-adv-x="537" 
d="M102 -30h-46q-11 0 -5 10l51 78q-23 26 -38 70q-15 46 -15 133t15 133q22 67 75 103t130 36q72 0 122 -32l27 41q6 10 17 10h47q11 0 5 -10l-51 -79q23 -29 37 -69q15 -51 15 -133t-15 -133q-22 -67 -75 -103t-129 -36q-71 0 -124 31l-26 -40q-6 -10 -17 -10zM162 261
q0 -71 8 -100l163 253q-26 19 -64 19q-74 0 -97 -66q-10 -30 -10 -106zM269 89q74 0 96 65q10 30 10 107q0 69 -8 98l-163 -251q26 -19 65 -19z" />
    <glyph glyph-name="oslashacute.sc" horiz-adv-x="537" 
d="M287 595h-68q-11 0 -6 10l75 125q6 10 18 10h91q5 0 6.5 -3t-1.5 -7l-95 -125q-9 -10 -20 -10zM102 -30h-46q-11 0 -5 10l51 78q-23 26 -38 70q-15 46 -15 133t15 133q22 67 75 103t130 36q72 0 122 -32l27 41q6 10 17 10h47q11 0 5 -10l-51 -79q23 -29 37 -69
q15 -51 15 -133t-15 -133q-22 -67 -75 -103t-129 -36q-71 0 -124 31l-26 -40q-6 -10 -17 -10zM162 261q0 -71 8 -100l163 253q-26 19 -64 19q-74 0 -97 -66q-10 -30 -10 -106zM269 89q74 0 96 65q10 30 10 107q0 69 -8 98l-163 -251q26 -19 65 -19z" />
    <glyph glyph-name="oe.sc" horiz-adv-x="805" 
d="M746 0h-361q-10 0 -10 10v19h-1q-37 -40 -114 -40q-73 0 -123.5 36t-72.5 103q-15 46 -15 133t15 133q22 67 72.5 103t123.5 36q77 0 114 -40h1v19q0 10 10 10h361q10 0 10 -10v-80q0 -10 -10 -10h-253q-6 0 -6 -6v-97q0 -6 6 -6h212q10 0 10 -10v-79q0 -10 -10 -10h-212
q-6 0 -6 -6v-102q0 -6 6 -6h253q10 0 10 -10v-80q0 -10 -10 -10zM269 89q74 0 96 65q10 30 10 107q0 76 -10 106q-22 66 -96 66t-97 -66q-10 -30 -10 -106q0 -77 10 -107q23 -65 97 -65z" />
    <glyph glyph-name="racute.sc" horiz-adv-x="550" 
d="M275 595h-68q-11 0 -6 10l75 125q6 10 18 10h91q5 0 6.5 -3t-1.5 -7l-95 -125q-9 -10 -20 -10zM499 0h-104q-10 0 -16 10l-102 189h-85q-6 0 -6 -6v-183q0 -10 -10 -10h-92q-10 0 -10 10v502q0 10 10 10h226q83 0 134 -45.5t51 -117.5q0 -51 -27 -89.5t-75 -56.5
l113 -200q3 -5 0.5 -9t-7.5 -4zM305 298q36 0 56.5 16.5t20.5 44.5q0 30 -20 46.5t-57 16.5h-113q-6 0 -6 -6v-112q0 -6 6 -6h113z" />
    <glyph glyph-name="rcaron.sc" horiz-adv-x="550" 
d="M296 595h-60q-11 0 -18 10l-98 125q-3 4 -1.5 7t5.5 3h63q11 0 21 -10l57 -59h2l57 59q10 10 21 10h63q4 0 5.5 -3t-1.5 -7l-98 -125q-7 -10 -18 -10zM499 0h-104q-10 0 -16 10l-102 189h-85q-6 0 -6 -6v-183q0 -10 -10 -10h-92q-10 0 -10 10v502q0 10 10 10h226
q83 0 134 -45.5t51 -117.5q0 -51 -27 -89.5t-75 -56.5l113 -200q3 -5 0.5 -9t-7.5 -4zM305 298q36 0 56.5 16.5t20.5 44.5q0 30 -20 46.5t-57 16.5h-113q-6 0 -6 -6v-112q0 -6 6 -6h113z" />
    <glyph glyph-name="rcommaaccent.sc" horiz-adv-x="550" 
d="M236 -228q-10 0 -10 11v153q0 10 10 10h83q10 0 10 -10v-69q0 -12 -7 -19l-71 -69q-7 -7 -15 -7zM499 0h-104q-10 0 -16 10l-102 189h-85q-6 0 -6 -6v-183q0 -10 -10 -10h-92q-10 0 -10 10v502q0 10 10 10h226q83 0 134 -45.5t51 -117.5q0 -51 -27 -89.5t-75 -56.5
l113 -200q3 -5 0.5 -9t-7.5 -4zM305 298q36 0 56.5 16.5t20.5 44.5q0 30 -20 46.5t-57 16.5h-113q-6 0 -6 -6v-112q0 -6 6 -6h113z" />
    <glyph glyph-name="sacute.sc" horiz-adv-x="504" 
d="M269 595h-68q-11 0 -6 10l75 125q6 10 18 10h91q5 0 6.5 -3t-1.5 -7l-95 -125q-9 -10 -20 -10zM248 -11q-62 0 -120.5 21t-92.5 52q-7 6 -1 14l58 66q5 7 14 0q71 -53 150 -53q45 0 71 17t26 44q0 49 -95 61l-31 4q-83 11 -128 50.5t-45 106.5q0 72 53.5 116.5
t142.5 44.5q113 0 188 -55q8 -6 3 -14l-45 -69q-6 -7 -14 -2q-66 40 -135 40q-37 0 -58 -15.5t-21 -40.5q0 -48 97 -60l30 -4q172 -23 172 -156q0 -74 -56.5 -121t-162.5 -47z" />
    <glyph glyph-name="scircumflex.sc" horiz-adv-x="504" 
d="M248 -11q-62 0 -120.5 21t-92.5 52q-7 6 -1 14l58 66q5 7 14 0q71 -53 150 -53q45 0 71 17t26 44q0 49 -95 61l-31 4q-83 11 -128 50.5t-45 106.5q0 72 53.5 116.5t142.5 44.5q113 0 188 -55q8 -6 3 -14l-45 -69q-6 -7 -14 -2q-66 40 -135 40q-37 0 -58 -15.5t-21 -40.5
q0 -48 97 -60l30 -4q172 -23 172 -156q0 -74 -56.5 -121t-162.5 -47zM400 595h-63q-11 0 -21 10l-57 59h-2l-57 -59q-10 -10 -21 -10h-63q-4 0 -5.5 3t1.5 7l98 125q7 10 18 10h60q11 0 18 -10l98 -125q3 -4 1.5 -7t-5.5 -3z" />
    <glyph glyph-name="scaron.sc" horiz-adv-x="504" 
d="M283 595h-60q-11 0 -18 10l-98 125q-3 4 -2 7t6 3h63q11 0 21 -10l57 -59h2l57 59q10 10 21 10h63q5 0 6 -3t-2 -7l-98 -125q-7 -10 -18 -10zM248 -11q-62 0 -120.5 21t-92.5 52q-7 6 -1 14l58 66q5 7 14 0q71 -53 150 -53q45 0 71 17t26 44q0 49 -95 61l-31 4
q-83 11 -128 50.5t-45 106.5q0 72 53.5 116.5t142.5 44.5q113 0 188 -55q8 -6 3 -14l-45 -69q-6 -7 -14 -2q-66 40 -135 40q-37 0 -58 -15.5t-21 -40.5q0 -48 97 -60l30 -4q172 -23 172 -156q0 -74 -56.5 -121t-162.5 -47z" />
    <glyph glyph-name="scedilla.sc" horiz-adv-x="504" 
d="M240 -155h-78q-10 0 -7 10l55 136q-112 13 -175 71q-7 6 -1 14l58 66q5 7 14 0q71 -53 150 -53q45 0 71 17t26 44q0 49 -95 61l-31 4q-83 11 -128 50.5t-45 106.5q0 72 53.5 116.5t142.5 44.5q113 0 188 -55q8 -6 3 -14l-45 -69q-6 -7 -14 -2q-66 40 -135 40
q-37 0 -58 -15.5t-21 -40.5q0 -48 97 -60l30 -4q172 -23 172 -156q0 -64 -43 -109t-124 -55l-44 -138q-3 -10 -16 -10z" />
    <glyph glyph-name="scommaaccent.sc" horiz-adv-x="504" 
d="M210 -228q-10 0 -10 11v153q0 10 10 10h83q10 0 10 -10v-69q0 -12 -7 -19l-71 -69q-7 -7 -15 -7zM248 -11q-62 0 -120.5 21t-92.5 52q-7 6 -1 14l58 66q5 7 14 0q71 -53 150 -53q45 0 71 17t26 44q0 49 -95 61l-31 4q-83 11 -128 50.5t-45 106.5q0 72 53.5 116.5
t142.5 44.5q113 0 188 -55q8 -6 3 -14l-45 -69q-6 -7 -14 -2q-66 40 -135 40q-37 0 -58 -15.5t-21 -40.5q0 -48 97 -60l30 -4q172 -23 172 -156q0 -74 -56.5 -121t-162.5 -47z" />
    <glyph glyph-name="tcaron.sc" horiz-adv-x="470" 
d="M281 0h-92q-10 0 -10 10v406q0 6 -6 6h-143q-10 0 -10 10v80q0 10 10 10h410q10 0 10 -10v-80q0 -10 -10 -10h-143q-6 0 -6 -6v-406q0 -10 -10 -10zM264 595h-60q-11 0 -18 10l-98 125q-3 4 -1.5 7t5.5 3h63q11 0 21 -10l57 -59h2l57 59q10 10 21 10h63q4 0 5.5 -3
t-1.5 -7l-98 -125q-7 -10 -18 -10z" />
    <glyph glyph-name="tcommaaccent.sc" horiz-adv-x="470" 
d="M281 0h-92q-10 0 -10 10v406q0 6 -6 6h-143q-10 0 -10 10v80q0 10 10 10h410q10 0 10 -10v-80q0 -10 -10 -10h-143q-6 0 -6 -6v-406q0 -10 -10 -10zM193 -228q-10 0 -10 11v153q0 10 10 10h83q10 0 10 -10v-69q0 -12 -7 -19l-71 -69q-7 -7 -15 -7z" />
    <glyph glyph-name="tbar.sc" horiz-adv-x="470" 
d="M281 0h-92q-10 0 -10 10v219q0 6 -6 6h-90q-10 0 -10 10v61q0 10 10 10h90q6 0 6 6v94q0 6 -6 6h-143q-10 0 -10 10v80q0 10 10 10h410q10 0 10 -10v-80q0 -10 -10 -10h-143q-6 0 -6 -6v-94q0 -6 6 -6h90q10 0 10 -10v-61q0 -10 -10 -10h-90q-6 0 -6 -6v-219
q0 -10 -10 -10z" />
    <glyph glyph-name="thorn.sc" horiz-adv-x="529" 
d="M176 0h-92q-10 0 -10 10v502q0 10 10 10h92q10 0 10 -10v-67q0 -6 6 -6h112q90 0 142 -47t52 -121t-52 -121t-142 -47h-112q-6 0 -6 -6v-87q0 -10 -10 -10zM301 203q40 0 62 18t22 50t-22 50t-62 18h-109q-6 0 -6 -6v-124q0 -6 6 -6h109z" />
    <glyph glyph-name="ugrave.sc" horiz-adv-x="562" 
d="M326 595h-67q-11 0 -20 10l-95 125q-3 4 -1.5 7t6.5 3h91q12 0 18 -10l74 -125q5 -10 -6 -10zM281 -11q-97 0 -155.5 55.5t-58.5 153.5v314q0 10 10 10h92q10 0 10 -10v-313q0 -52 27.5 -81t74.5 -29t74.5 29t27.5 81v313q0 10 10 10h92q10 0 10 -10v-314
q0 -98 -58.5 -153.5t-155.5 -55.5z" />
    <glyph glyph-name="uacute.sc" horiz-adv-x="562" 
d="M303 595h-68q-11 0 -6 10l75 125q6 10 18 10h91q5 0 6.5 -3t-1.5 -7l-95 -125q-9 -10 -20 -10zM281 -11q-97 0 -155.5 55.5t-58.5 153.5v314q0 10 10 10h92q10 0 10 -10v-313q0 -52 27.5 -81t74.5 -29t74.5 29t27.5 81v313q0 10 10 10h92q10 0 10 -10v-314
q0 -98 -58.5 -153.5t-155.5 -55.5z" />
    <glyph glyph-name="ucircumflex.sc" horiz-adv-x="562" 
d="M281 -11q-97 0 -155.5 55.5t-58.5 153.5v314q0 10 10 10h92q10 0 10 -10v-313q0 -52 27.5 -81t74.5 -29t74.5 29t27.5 81v313q0 10 10 10h92q10 0 10 -10v-314q0 -98 -58.5 -153.5t-155.5 -55.5zM423 595h-63q-11 0 -21 10l-57 59h-2l-57 -59q-10 -10 -21 -10h-63
q-5 0 -6 3t2 7l98 125q7 10 18 10h60q11 0 18 -10l98 -125q3 -4 2 -7t-6 -3z" />
    <glyph glyph-name="utilde.sc" horiz-adv-x="562" 
d="M340 599q-29 0 -67 20q-33 18 -56 18q-30 0 -67 -31q-9 -7 -9 2v61q0 10 8 19q32 34 72 34q29 0 67 -20q33 -18 57 -18q29 0 66 31q9 7 9 -2v-61q0 -10 -8 -19q-32 -34 -72 -34zM281 -11q-97 0 -155.5 55.5t-58.5 153.5v314q0 10 10 10h92q10 0 10 -10v-313
q0 -52 27.5 -81t74.5 -29t74.5 29t27.5 81v313q0 10 10 10h92q10 0 10 -10v-314q0 -98 -58.5 -153.5t-155.5 -55.5z" />
    <glyph glyph-name="udieresis.sc" horiz-adv-x="562" 
d="M417 613h-77q-10 0 -10 10v87q0 10 10 10h77q10 0 10 -10v-87q0 -10 -10 -10zM221 613h-77q-10 0 -10 10v87q0 10 10 10h77q10 0 10 -10v-87q0 -10 -10 -10zM281 -11q-97 0 -155.5 55.5t-58.5 153.5v314q0 10 10 10h92q10 0 10 -10v-313q0 -52 27.5 -81t74.5 -29t74.5 29
t27.5 81v313q0 10 10 10h92q10 0 10 -10v-314q0 -98 -58.5 -153.5t-155.5 -55.5z" />
    <glyph glyph-name="umacron.sc" horiz-adv-x="562" 
d="M412 627h-263q-10 0 -10 10v61q0 10 10 10h263q10 0 10 -10v-61q0 -10 -10 -10zM281 -11q-97 0 -155.5 55.5t-58.5 153.5v314q0 10 10 10h92q10 0 10 -10v-313q0 -52 27.5 -81t74.5 -29t74.5 29t27.5 81v313q0 10 10 10h92q10 0 10 -10v-314q0 -98 -58.5 -153.5
t-155.5 -55.5z" />
    <glyph glyph-name="ubreve.sc" horiz-adv-x="562" 
d="M281 594q-63 0 -102 33.5t-43 87.5q0 10 9 10h49q9 0 12 -10q15 -45 75 -45t75 45q3 10 12 10h49q9 0 9 -10q-4 -54 -43 -87.5t-102 -33.5zM281 -11q-97 0 -155.5 55.5t-58.5 153.5v314q0 10 10 10h92q10 0 10 -10v-313q0 -52 27.5 -81t74.5 -29t74.5 29t27.5 81v313
q0 10 10 10h92q10 0 10 -10v-314q0 -98 -58.5 -153.5t-155.5 -55.5z" />
    <glyph glyph-name="uring.sc" horiz-adv-x="562" 
d="M281 569q-43 0 -71 28.5t-28 71.5t28 71.5t71 28.5t71 -28.5t28 -71.5t-28 -71.5t-71 -28.5zM281 618q21 0 35 14.5t14 36.5t-14 36.5t-35 14.5t-35 -14.5t-14 -36.5t14 -36.5t35 -14.5zM281 -11q-97 0 -155.5 55.5t-58.5 153.5v314q0 10 10 10h92q10 0 10 -10v-313
q0 -52 27.5 -81t74.5 -29t74.5 29t27.5 81v313q0 10 10 10h92q10 0 10 -10v-314q0 -98 -58.5 -153.5t-155.5 -55.5z" />
    <glyph glyph-name="uhungarumlaut.sc" horiz-adv-x="562" 
d="M390 595h-65q-11 0 -6 10l65 125q5 10 16 10h78q11 0 5 -10l-77 -125q-6 -10 -16 -10zM232 595h-65q-11 0 -6 10l65 125q5 10 16 10h78q11 0 5 -10l-77 -125q-6 -10 -16 -10zM281 -11q-97 0 -155.5 55.5t-58.5 153.5v314q0 10 10 10h92q10 0 10 -10v-313q0 -52 27.5 -81
t74.5 -29t74.5 29t27.5 81v313q0 10 10 10h92q10 0 10 -10v-314q0 -98 -58.5 -153.5t-155.5 -55.5z" />
    </font>
</defs>
</svg>
